<svg width="140" height="140" viewBox="0 0 140 140" fill="none" xmlns="http://www.w3.org/2000/svg">
<ellipse opacity="0.24" cx="70" cy="135.799" rx="70" ry="4.2" fill="#737373"/>
<path fill-rule="evenodd" clip-rule="evenodd" d="M41.998 26.6006C41.998 24.281 43.8784 22.4006 46.198 22.4006C48.5176 22.4006 50.398 24.281 50.398 26.6006V29.4006H89.598V26.6006C89.598 24.281 91.4784 22.4006 93.798 22.4006C96.1176 22.4006 97.998 24.281 97.998 26.6006V29.4006H106.398C112.584 29.4006 117.598 34.415 117.598 40.6006V79.9991C127.096 81.3578 134.398 89.5265 134.398 99.4006C134.398 110.225 125.623 119.001 114.798 119.001C107.543 119.001 101.209 115.059 97.8201 109.201H32.198C26.7856 109.201 22.398 104.813 22.398 99.4006V40.6006C22.398 34.415 27.4124 29.4006 33.598 29.4006H41.998V26.6006ZM96.485 106.401C95.6535 104.227 95.198 101.867 95.198 99.4006C95.198 88.5759 103.973 79.8006 114.798 79.8006V47.6006H25.198V99.4006C25.198 103.267 28.332 106.401 32.198 106.401H96.485ZM39.898 57.4006C37.5784 57.4006 35.698 59.281 35.698 61.6006V65.8006C35.698 68.1202 37.5784 70.0006 39.898 70.0006H44.098C46.4176 70.0006 48.298 68.1202 48.298 65.8006V61.6006C48.298 59.281 46.4176 57.4006 44.098 57.4006H39.898ZM38.498 61.6006C38.498 60.8274 39.1248 60.2006 39.898 60.2006H44.098C44.8712 60.2006 45.498 60.8274 45.498 61.6006V65.8006C45.498 66.5738 44.8712 67.2006 44.098 67.2006H39.898C39.1248 67.2006 38.498 66.5738 38.498 65.8006V61.6006ZM73.498 61.6006C73.498 59.281 75.3784 57.4006 77.698 57.4006H81.898C84.2176 57.4006 86.098 59.281 86.098 61.6006V65.8006C86.098 68.1202 84.2176 70.0006 81.898 70.0006H77.698C75.3784 70.0006 73.498 68.1202 73.498 65.8006V61.6006ZM77.698 60.2006C76.9248 60.2006 76.298 60.8274 76.298 61.6006V65.8006C76.298 66.5738 76.9248 67.2006 77.698 67.2006H81.898C82.6712 67.2006 83.298 66.5738 83.298 65.8006V61.6006C83.298 60.8274 82.6712 60.2006 81.898 60.2006H77.698ZM95.898 57.4006C93.5784 57.4006 91.698 59.281 91.698 61.6006V65.8006C91.698 68.1202 93.5784 70.0006 95.898 70.0006H100.098C102.418 70.0006 104.298 68.1202 104.298 65.8006V61.6006C104.298 59.281 102.418 57.4006 100.098 57.4006H95.898ZM94.498 61.6006C94.498 60.8274 95.1248 60.2006 95.898 60.2006H100.098C100.871 60.2006 101.498 60.8274 101.498 61.6006V65.8006C101.498 66.5738 100.871 67.2006 100.098 67.2006H95.898C95.1248 67.2006 94.498 66.5738 94.498 65.8006V61.6006ZM77.698 78.4006C75.3784 78.4006 73.498 80.281 73.498 82.6006V86.8006C73.498 89.1202 75.3784 91.0006 77.698 91.0006H81.898C84.2176 91.0006 86.098 89.1202 86.098 86.8006V82.6006C86.098 80.281 84.2176 78.4006 81.898 78.4006H77.698ZM58.098 57.4006C55.7784 57.4006 53.898 59.281 53.898 61.6006V65.8006C53.898 68.1202 55.7784 70.0006 58.098 70.0006H62.298C64.6176 70.0006 66.498 68.1202 66.498 65.8006V61.6006C66.498 59.281 64.6176 57.4006 62.298 57.4006H58.098ZM53.898 82.6006C53.898 80.281 55.7784 78.4006 58.098 78.4006H62.298C64.6176 78.4006 66.498 80.281 66.498 82.6006V86.8006C66.498 89.1202 64.6176 91.0006 62.298 91.0006H58.098C55.7784 91.0006 53.898 89.1202 53.898 86.8006V82.6006ZM58.098 81.2006C57.3248 81.2006 56.698 81.8274 56.698 82.6006V86.8006C56.698 87.5738 57.3248 88.2006 58.098 88.2006H62.298C63.0712 88.2006 63.698 87.5738 63.698 86.8006V82.6006C63.698 81.8274 63.0712 81.2006 62.298 81.2006H58.098ZM97.998 99.4006C97.998 90.1223 105.52 82.6006 114.798 82.6006C124.076 82.6006 131.598 90.1223 131.598 99.4006C131.598 108.679 124.076 116.201 114.798 116.201C105.52 116.201 97.998 108.679 97.998 99.4006ZM111.298 90.3006C111.298 88.3676 112.865 86.8006 114.798 86.8006C116.731 86.8006 118.298 88.3676 118.298 90.3006V98.7006C118.298 100.634 116.731 102.201 114.798 102.201C112.865 102.201 111.298 100.634 111.298 98.7006V90.3006ZM114.798 89.6006C114.411 89.6006 114.098 89.914 114.098 90.3006V98.7006C114.098 99.0872 114.411 99.4006 114.798 99.4006C115.185 99.4006 115.498 99.0872 115.498 98.7006V90.3006C115.498 89.914 115.185 89.6006 114.798 89.6006ZM114.798 112.001C112.865 112.001 111.298 110.434 111.298 108.501C111.298 106.568 112.865 105.001 114.798 105.001C116.731 105.001 118.298 106.568 118.298 108.501C118.298 110.434 116.731 112.001 114.798 112.001ZM114.098 108.501C114.098 108.887 114.411 109.201 114.798 109.201C115.185 109.201 115.498 108.887 115.498 108.501C115.498 108.114 115.185 107.801 114.798 107.801C114.411 107.801 114.098 108.114 114.098 108.501ZM16.8748 112.378C18.9119 112.378 20.5632 110.727 20.5632 108.69C20.5632 106.653 18.9119 105.001 16.8748 105.001H9.28706C7.24999 105.001 5.59863 106.653 5.59863 108.69C5.59863 110.727 7.24999 112.378 9.28705 112.378H16.8748ZM17.7632 108.69C17.7632 109.18 17.3655 109.578 16.8748 109.578H9.28705C8.79639 109.578 8.39863 109.18 8.39863 108.69C8.39863 108.199 8.79639 107.801 9.28706 107.801H16.8748C17.3655 107.801 17.7632 108.199 17.7632 108.69ZM24.9016 127.582C26.9386 127.582 28.59 125.931 28.59 123.894V116.306C28.59 114.269 26.9386 112.618 24.9016 112.618C22.8645 112.618 21.2131 114.269 21.2131 116.306L21.2131 123.894C21.2131 125.931 22.8645 127.582 24.9016 127.582ZM25.79 123.894C25.79 124.385 25.3922 124.782 24.9016 124.782C24.4109 124.782 24.0131 124.385 24.0131 123.894V116.306C24.0131 115.816 24.4109 115.418 24.9016 115.418C25.3922 115.418 25.79 115.816 25.79 116.306L25.79 123.894Z" fill="#D4D4D4"/>
</svg>
