<svg width="354" height="322" viewBox="0 0 354 322" fill="none" xmlns="http://www.w3.org/2000/svg">
<rect width="354" height="210" rx="15" fill="url(#paint0_linear_7931_28956)"/>
<path d="M43.488 18.224H46.152V28.04C46.152 32.984 42.888 35.456 38.832 35.312C35.088 35.216 31.896 32.816 31.896 28.04V18.224H34.56V28.04C34.56 31.088 36.336 32.744 38.832 32.84C41.52 32.984 43.488 31.232 43.488 28.04V18.224ZM52.8229 27.56V32.504H57.8629C59.3509 32.504 61.4149 32.024 61.4149 30.176C61.4149 28.376 59.4229 27.56 57.8869 27.56C56.1829 27.56 54.5269 27.56 52.8229 27.56ZM52.8229 20.624V25.16H57.8869C59.9029 25.16 60.9109 24.368 60.9109 23.048C60.9109 21.872 59.8789 20.624 57.8629 20.624H52.8229ZM50.1589 18.2H57.8629C61.0549 18.2 63.5749 19.664 63.5749 23C63.5749 24.416 62.8309 25.688 61.2469 26.336C63.2629 26.936 64.1029 28.928 64.1029 30.2C64.1029 33.872 61.1749 35 57.8629 35C55.2469 35 52.7749 35 50.1589 35V18.2ZM67.3386 18.2H70.0266V32.504H78.8826V35H67.3386V18.2Z" fill="white"/>
<path d="M108.912 34.144C108.336 34.144 107.812 34.028 107.34 33.796C106.876 33.564 106.504 33.212 106.224 32.74C105.944 32.26 105.804 31.648 105.804 30.904V25.6H106.812V30.916C106.812 31.46 106.9 31.904 107.076 32.248C107.26 32.592 107.512 32.844 107.832 33.004C108.152 33.164 108.52 33.244 108.936 33.244C109.36 33.244 109.728 33.164 110.04 33.004C110.352 32.844 110.596 32.592 110.772 32.248C110.948 31.904 111.036 31.46 111.036 30.916V25.6H112.044V30.904C112.044 31.648 111.904 32.26 111.624 32.74C111.344 33.212 110.968 33.564 110.496 33.796C110.024 34.028 109.496 34.144 108.912 34.144ZM113.703 34V27.844H114.615L114.675 28.876C114.859 28.508 115.127 28.22 115.479 28.012C115.831 27.804 116.235 27.7 116.691 27.7C117.163 27.7 117.571 27.792 117.915 27.976C118.259 28.16 118.527 28.44 118.719 28.816C118.911 29.184 119.007 29.652 119.007 30.22V34H117.999V30.328C117.999 29.744 117.863 29.304 117.591 29.008C117.319 28.712 116.943 28.564 116.463 28.564C116.143 28.564 115.847 28.644 115.575 28.804C115.311 28.964 115.099 29.196 114.939 29.5C114.787 29.796 114.711 30.164 114.711 30.604V34H113.703ZM120.714 34V27.844H121.722V34H120.714ZM121.218 26.596C121.018 26.596 120.85 26.532 120.714 26.404C120.586 26.268 120.522 26.1 120.522 25.9C120.522 25.7 120.586 25.54 120.714 25.42C120.85 25.292 121.018 25.228 121.218 25.228C121.41 25.228 121.574 25.292 121.71 25.42C121.846 25.54 121.914 25.7 121.914 25.9C121.914 26.1 121.846 26.268 121.71 26.404C121.574 26.532 121.41 26.596 121.218 26.596ZM125.276 34L122.936 27.844H124.004L125.864 33.028L127.736 27.844H128.768L126.44 34H125.276ZM132.234 34.144C131.674 34.144 131.174 34.012 130.734 33.748C130.302 33.476 129.962 33.1 129.714 32.62C129.466 32.132 129.342 31.568 129.342 30.928C129.342 30.28 129.466 29.716 129.714 29.236C129.962 28.748 130.302 28.372 130.734 28.108C131.174 27.836 131.682 27.7 132.258 27.7C132.858 27.7 133.362 27.836 133.77 28.108C134.186 28.372 134.502 28.724 134.718 29.164C134.934 29.604 135.042 30.084 135.042 30.604C135.042 30.684 135.042 30.768 135.042 30.856C135.042 30.944 135.038 31.044 135.03 31.156H130.098V30.376H134.046C134.03 29.792 133.85 29.344 133.506 29.032C133.17 28.712 132.746 28.552 132.234 28.552C131.898 28.552 131.586 28.632 131.298 28.792C131.01 28.952 130.774 29.188 130.59 29.5C130.414 29.804 130.326 30.188 130.326 30.652V30.988C130.326 31.492 130.414 31.916 130.59 32.26C130.774 32.604 131.01 32.864 131.298 33.04C131.586 33.208 131.898 33.292 132.234 33.292C132.674 33.292 133.026 33.204 133.29 33.028C133.554 32.844 133.75 32.588 133.878 32.26H134.874C134.77 32.62 134.598 32.944 134.358 33.232C134.126 33.512 133.83 33.736 133.47 33.904C133.118 34.064 132.706 34.144 132.234 34.144ZM136.403 34V27.844H137.315L137.399 28.996C137.535 28.716 137.711 28.48 137.927 28.288C138.151 28.096 138.419 27.952 138.73 27.856C139.043 27.752 139.395 27.7 139.787 27.7V28.756H139.319C139.071 28.756 138.831 28.792 138.599 28.864C138.375 28.928 138.171 29.036 137.987 29.188C137.811 29.332 137.671 29.532 137.567 29.788C137.463 30.044 137.411 30.364 137.411 30.748V34H136.403ZM143.218 34.144C142.69 34.144 142.238 34.06 141.862 33.892C141.494 33.724 141.206 33.488 140.998 33.184C140.79 32.88 140.662 32.524 140.614 32.116H141.646C141.686 32.324 141.766 32.52 141.886 32.704C142.014 32.88 142.186 33.024 142.402 33.136C142.626 33.24 142.902 33.292 143.23 33.292C143.51 33.292 143.742 33.252 143.926 33.172C144.118 33.084 144.258 32.968 144.346 32.824C144.442 32.672 144.49 32.508 144.49 32.332C144.49 32.076 144.43 31.88 144.31 31.744C144.198 31.608 144.03 31.504 143.806 31.432C143.59 31.352 143.322 31.288 143.002 31.24C142.698 31.192 142.414 31.128 142.15 31.048C141.894 30.96 141.666 30.848 141.466 30.712C141.274 30.576 141.122 30.408 141.01 30.208C140.906 30 140.854 29.752 140.854 29.464C140.854 29.12 140.942 28.816 141.118 28.552C141.302 28.288 141.558 28.08 141.886 27.928C142.222 27.776 142.618 27.7 143.074 27.7C143.73 27.7 144.258 27.856 144.658 28.168C145.058 28.48 145.294 28.928 145.366 29.512H144.37C144.33 29.216 144.194 28.984 143.962 28.816C143.738 28.64 143.438 28.552 143.062 28.552C142.67 28.552 142.374 28.628 142.174 28.78C141.974 28.932 141.874 29.132 141.874 29.38C141.874 29.556 141.922 29.712 142.018 29.848C142.122 29.976 142.282 30.088 142.498 30.184C142.722 30.272 143.002 30.344 143.338 30.4C143.762 30.464 144.138 30.556 144.466 30.676C144.794 30.796 145.054 30.98 145.246 31.228C145.438 31.468 145.53 31.808 145.522 32.248C145.53 32.632 145.438 32.968 145.246 33.256C145.054 33.544 144.786 33.764 144.442 33.916C144.098 34.068 143.69 34.144 143.218 34.144ZM148.976 34.144C148.488 34.144 148.08 34.056 147.752 33.88C147.432 33.704 147.192 33.472 147.032 33.184C146.872 32.896 146.792 32.58 146.792 32.236C146.792 31.828 146.896 31.48 147.104 31.192C147.32 30.904 147.62 30.688 148.004 30.544C148.388 30.392 148.84 30.316 149.36 30.316H150.944C150.944 29.924 150.892 29.6 150.788 29.344C150.684 29.08 150.52 28.884 150.296 28.756C150.08 28.62 149.804 28.552 149.468 28.552C149.092 28.552 148.768 28.648 148.496 28.84C148.224 29.024 148.056 29.3 147.992 29.668H146.96C147.008 29.244 147.152 28.888 147.392 28.6C147.632 28.304 147.936 28.08 148.304 27.928C148.672 27.776 149.06 27.7 149.468 27.7C150.028 27.7 150.492 27.804 150.86 28.012C151.228 28.212 151.5 28.496 151.676 28.864C151.86 29.224 151.952 29.652 151.952 30.148V34H151.052L150.992 32.92C150.912 33.088 150.808 33.248 150.68 33.4C150.56 33.544 150.416 33.672 150.248 33.784C150.088 33.896 149.9 33.984 149.684 34.048C149.468 34.112 149.232 34.144 148.976 34.144ZM149.12 33.292C149.392 33.292 149.64 33.232 149.864 33.112C150.096 32.992 150.292 32.832 150.452 32.632C150.612 32.432 150.732 32.208 150.812 31.96C150.9 31.704 150.944 31.44 150.944 31.168V31.096H149.444C149.06 31.096 148.748 31.144 148.508 31.24C148.276 31.328 148.108 31.456 148.004 31.624C147.9 31.792 147.848 31.98 147.848 32.188C147.848 32.412 147.896 32.608 147.992 32.776C148.088 32.936 148.232 33.064 148.424 33.16C148.616 33.248 148.848 33.292 149.12 33.292ZM153.559 34V25.36H154.567V34H153.559ZM159.514 34V25.6H162.466C163.058 25.6 163.546 25.696 163.93 25.888C164.322 26.072 164.614 26.328 164.806 26.656C164.998 26.976 165.094 27.336 165.094 27.736C165.094 28.168 164.998 28.528 164.806 28.816C164.622 29.104 164.378 29.324 164.074 29.476C163.778 29.628 163.462 29.72 163.126 29.752L163.294 29.632C163.654 29.64 163.986 29.736 164.29 29.92C164.594 30.104 164.834 30.352 165.01 30.664C165.194 30.976 165.286 31.324 165.286 31.708C165.286 32.132 165.182 32.52 164.974 32.872C164.766 33.216 164.458 33.492 164.05 33.7C163.65 33.9 163.154 34 162.562 34H159.514ZM160.522 33.16H162.454C163.022 33.16 163.462 33.028 163.774 32.764C164.094 32.492 164.254 32.116 164.254 31.636C164.254 31.164 164.09 30.788 163.762 30.508C163.442 30.22 162.998 30.076 162.43 30.076H160.522V33.16ZM160.522 29.272H162.394C162.938 29.272 163.35 29.144 163.63 28.888C163.918 28.632 164.062 28.284 164.062 27.844C164.062 27.42 163.918 27.08 163.63 26.824C163.35 26.568 162.926 26.44 162.358 26.44H160.522V29.272ZM168.664 34.144C168.176 34.144 167.768 34.056 167.44 33.88C167.12 33.704 166.88 33.472 166.72 33.184C166.56 32.896 166.48 32.58 166.48 32.236C166.48 31.828 166.584 31.48 166.792 31.192C167.008 30.904 167.308 30.688 167.692 30.544C168.076 30.392 168.528 30.316 169.048 30.316H170.632C170.632 29.924 170.58 29.6 170.476 29.344C170.372 29.08 170.208 28.884 169.984 28.756C169.768 28.62 169.492 28.552 169.156 28.552C168.78 28.552 168.456 28.648 168.184 28.84C167.912 29.024 167.744 29.3 167.68 29.668H166.648C166.696 29.244 166.84 28.888 167.08 28.6C167.32 28.304 167.624 28.08 167.992 27.928C168.36 27.776 168.748 27.7 169.156 27.7C169.716 27.7 170.18 27.804 170.548 28.012C170.916 28.212 171.188 28.496 171.364 28.864C171.548 29.224 171.64 29.652 171.64 30.148V34H170.74L170.68 32.92C170.6 33.088 170.496 33.248 170.368 33.4C170.248 33.544 170.104 33.672 169.936 33.784C169.776 33.896 169.588 33.984 169.372 34.048C169.156 34.112 168.92 34.144 168.664 34.144ZM168.808 33.292C169.08 33.292 169.328 33.232 169.552 33.112C169.784 32.992 169.98 32.832 170.14 32.632C170.3 32.432 170.42 32.208 170.5 31.96C170.588 31.704 170.632 31.44 170.632 31.168V31.096H169.132C168.748 31.096 168.436 31.144 168.196 31.24C167.964 31.328 167.796 31.456 167.692 31.624C167.588 31.792 167.536 31.98 167.536 32.188C167.536 32.412 167.584 32.608 167.68 32.776C167.776 32.936 167.92 33.064 168.112 33.16C168.304 33.248 168.536 33.292 168.808 33.292ZM173.246 34V27.844H174.158L174.218 28.876C174.402 28.508 174.67 28.22 175.022 28.012C175.374 27.804 175.778 27.7 176.234 27.7C176.706 27.7 177.114 27.792 177.458 27.976C177.802 28.16 178.07 28.44 178.262 28.816C178.454 29.184 178.55 29.652 178.55 30.22V34H177.542V30.328C177.542 29.744 177.406 29.304 177.134 29.008C176.862 28.712 176.486 28.564 176.006 28.564C175.686 28.564 175.39 28.644 175.118 28.804C174.854 28.964 174.642 29.196 174.482 29.5C174.33 29.796 174.254 30.164 174.254 30.604V34H173.246ZM183.869 34L180.989 30.652L183.653 27.844H184.889L181.841 31.012L181.853 30.292L185.153 34H183.869ZM180.149 34V25.36H181.157V34H180.149Z" fill="#626260"/>
<rect x="96" y="20" width="1" height="20" fill="#626261"/>
<path d="M64.259 97.8716L33.7923 98C31.7737 98.0117 30.1051 96.3547 30.0934 94.3361L30.0001 71.8274C29.9884 69.8087 31.6453 68.1401 33.664 68.1285L64.1306 68.0001C66.1493 67.9885 67.8179 69.6454 67.8295 71.6641L67.9229 94.1727C67.9346 96.203 66.2776 97.8716 64.259 97.8716Z" fill="#B2AEA9"/>
<path d="M44.6557 93.9743C44.4924 93.9743 44.3407 93.8926 44.259 93.7409C44.1423 93.5309 44.2357 93.2625 44.4457 93.1458C45.0758 92.8191 45.9393 92.2007 46.4294 91.1505C47.0595 89.8086 46.8844 88.35 46.616 88.2333C46.546 88.1983 46.2893 88.3384 46.126 88.42C45.7176 88.6301 45.1458 88.9218 44.4807 88.7001C43.8273 88.4784 43.5122 87.9066 43.3605 87.6266C42.357 85.818 42.0303 81.0922 43.0688 78.7351C43.4189 77.9533 43.8856 77.4866 44.469 77.3466C45.0641 77.2066 45.5542 77.4516 45.9509 77.65C46.2777 77.8133 46.441 77.8833 46.5344 77.825C46.9428 77.5799 46.9311 76.0747 46.3477 74.8845C45.8459 73.8343 44.9825 73.2276 44.3407 72.9009C44.1306 72.7958 44.0373 72.5275 44.154 72.3174C44.259 72.1074 44.5274 72.014 44.7374 72.1307C45.4959 72.5158 46.5227 73.2392 47.1295 74.5111C47.7362 75.7713 48.028 77.9417 46.9778 78.5834C46.4527 78.9102 45.9393 78.6535 45.5425 78.4434C45.2392 78.2917 44.9474 78.14 44.6674 78.21C44.2823 78.3034 44.014 78.7468 43.8623 79.0969C42.9521 81.1505 43.2322 85.6196 44.119 87.2065C44.2707 87.4749 44.4457 87.7666 44.7608 87.8716C45.0525 87.9766 45.3325 87.8483 45.7292 87.6382C46.1143 87.4399 46.546 87.2182 47.0011 87.4399C47.9813 87.9066 47.9229 90.0186 47.2228 91.5239C46.6277 92.8074 45.6009 93.5309 44.8424 93.9276C44.7958 93.9626 44.7257 93.9743 44.6557 93.9743Z" fill="#3D3D3C"/>
<path d="M43.2796 79.5288L35.3917 79.5638C35.1466 79.5638 34.9482 79.3654 34.9482 79.132C34.9482 78.887 35.1466 78.6886 35.38 78.6886L43.2679 78.6536C43.513 78.6536 43.7113 78.852 43.7113 79.0854C43.723 79.3304 43.5246 79.5288 43.2796 79.5288Z" fill="#3D3D3C"/>
<path d="M43.3138 87.4167L35.4258 87.4517C35.1808 87.4517 34.9824 87.2534 34.9824 87.02C34.9824 86.7749 35.1808 86.5766 35.4142 86.5766L43.3021 86.5416C43.5472 86.5416 43.7455 86.7399 43.7455 86.9733C43.7455 87.2067 43.5588 87.4167 43.3138 87.4167Z" fill="#3D3D3C"/>
<path d="M53.8505 93.9397C53.7805 93.9397 53.7105 93.928 53.6522 93.893C52.8937 93.5079 51.8669 92.7845 51.2601 91.5126C50.5367 90.019 50.4667 87.907 51.4468 87.4286C51.9019 87.2069 52.3336 87.4286 52.7187 87.6153C53.1154 87.8137 53.3955 87.942 53.6872 87.837C54.0139 87.7203 54.2006 87.3702 54.3173 87.1602C55.1808 85.5616 55.4258 81.0926 54.504 79.0506C54.3406 78.7005 54.0723 78.2571 53.6872 78.1754C53.4538 78.1171 53.3021 77.8837 53.3605 77.6503C53.4188 77.417 53.6522 77.2653 53.8856 77.3236C54.469 77.4636 54.9474 77.9187 55.2974 78.7005C56.3593 81.0459 56.0676 85.7717 55.0874 87.5919C54.9357 87.872 54.6207 88.4554 53.9789 88.6771C53.3138 88.9105 52.742 88.6188 52.3336 88.4088C52.1703 88.3271 51.9019 88.1987 51.8436 88.2221C51.5752 88.3504 51.4235 89.809 52.0653 91.1392C52.567 92.1894 53.4305 92.7961 54.0722 93.1228C54.2823 93.2279 54.3756 93.4962 54.2589 93.7063C54.1656 93.8463 54.0139 93.9397 53.8505 93.9397Z" fill="#3D3D3C"/>
<path d="M52.0306 77.7433C51.8439 77.7433 51.6805 77.6267 51.6105 77.44C50.6654 74.6278 52.8474 72.4458 53.5592 72.0841C53.7692 71.9674 54.0376 72.0608 54.1543 72.2708C54.2709 72.4808 54.1776 72.7492 53.9676 72.8659C53.6525 73.0292 51.6455 74.7679 52.4507 77.1599C52.5323 77.3933 52.404 77.6383 52.1706 77.72C52.1239 77.7317 52.0773 77.7433 52.0306 77.7433Z" fill="#3D3D3C"/>
<path d="M62.9876 79.447L55.0997 79.482C54.8546 79.482 54.6562 79.2836 54.6562 79.0502C54.6562 78.8052 54.8546 78.6068 55.088 78.6068L62.9759 78.5718C63.221 78.5718 63.4193 78.7702 63.4193 79.0036C63.431 79.2486 63.2326 79.447 62.9876 79.447Z" fill="#3D3D3C"/>
<path d="M63.0218 87.3349L55.1338 87.3699C54.8888 87.3699 54.6904 87.1716 54.6904 86.9382C54.6904 86.6932 54.8888 86.4948 55.1222 86.4948L63.0101 86.4598C63.2552 86.4598 63.4535 86.6581 63.4535 86.8915C63.4652 87.1366 63.2668 87.3349 63.0218 87.3349Z" fill="#3D3D3C"/>
<path d="M306.227 71.7513C310.93 77.6638 310.93 85.35 306.227 91.2625M311.157 67.75C317.787 76.0825 317.787 86.9175 311.157 95.25M301.056 74.3363C304.513 78.6676 304.513 84.3188 301.056 88.65M295.871 77.925C297.599 80.0975 297.599 82.9162 295.871 85.0887" stroke="#363B41" stroke-width="2" stroke-linecap="round" stroke-linejoin="round"/>
<path d="M35.287 136.204C34.4823 136.204 33.7797 136.057 33.179 135.762C32.5783 135.467 32.1023 135.065 31.751 134.555C31.411 134.045 31.1957 133.467 31.105 132.821H32.499C32.635 133.467 32.9467 133.988 33.434 134.385C33.9213 134.782 34.5447 134.98 35.304 134.98C35.8707 134.98 36.358 134.85 36.766 134.589C37.174 134.317 37.4857 133.96 37.701 133.518C37.9163 133.065 38.024 132.56 38.024 132.005C38.024 131.416 37.9107 130.906 37.684 130.475C37.4687 130.033 37.157 129.687 36.749 129.438C36.3523 129.189 35.8933 129.064 35.372 129.064C34.7147 129.064 34.1537 129.206 33.689 129.489C33.2357 129.772 32.9013 130.146 32.686 130.611H31.309L32.312 124.1H38.585V125.341H33.417L32.737 128.979C33.0203 128.65 33.4 128.384 33.876 128.18C34.352 127.965 34.9017 127.857 35.525 127.857C36.103 127.857 36.63 127.965 37.106 128.18C37.582 128.384 37.99 128.673 38.33 129.047C38.6813 129.41 38.9477 129.846 39.129 130.356C39.3103 130.855 39.401 131.399 39.401 131.988C39.401 132.555 39.3103 133.093 39.129 133.603C38.9477 134.113 38.6813 134.566 38.33 134.963C37.9787 135.348 37.548 135.654 37.038 135.881C36.528 136.096 35.9443 136.204 35.287 136.204ZM48.7566 136V133.45H42.7216V132.345L48.5016 124.1H50.1676V132.192H51.9356V133.45H50.1676V136H48.7566ZM44.3026 132.192H48.8246V125.681L44.3026 132.192ZM59.2867 136.204C58.5387 136.204 57.8984 136.057 57.3657 135.762C56.8331 135.467 56.4081 135.076 56.0907 134.589C55.7847 134.09 55.5977 133.546 55.5297 132.957H56.8557C56.9691 133.603 57.2411 134.102 57.6717 134.453C58.1024 134.793 58.6464 134.963 59.3037 134.963C59.9044 134.963 60.4371 134.782 60.9017 134.419C61.3664 134.056 61.7404 133.501 62.0238 132.753C62.3184 132.005 62.4828 131.059 62.5167 129.914C62.5167 129.88 62.5167 129.852 62.5167 129.829C62.5167 129.795 62.5167 129.761 62.5167 129.727C62.3468 130.09 62.0974 130.424 61.7687 130.73C61.4401 131.025 61.0491 131.263 60.5957 131.444C60.1537 131.625 59.6494 131.716 59.0828 131.716C58.4141 131.716 57.7794 131.557 57.1787 131.24C56.5894 130.923 56.1077 130.481 55.7337 129.914C55.3711 129.336 55.1897 128.662 55.1897 127.891C55.1897 127.222 55.3541 126.582 55.6827 125.97C56.0114 125.358 56.4817 124.859 57.0937 124.474C57.7057 124.089 58.4311 123.896 59.2697 123.896C60.1311 123.896 60.8564 124.06 61.4458 124.389C62.0351 124.706 62.5054 125.137 62.8567 125.681C63.2081 126.225 63.4631 126.837 63.6217 127.517C63.7917 128.186 63.8767 128.871 63.8767 129.574C63.8767 130.877 63.6954 132.028 63.3328 133.025C62.9701 134.022 62.4488 134.804 61.7687 135.371C61.0887 135.926 60.2614 136.204 59.2867 136.204ZM59.3717 130.475C59.9044 130.475 60.3804 130.356 60.7997 130.118C61.2191 129.869 61.5477 129.546 61.7858 129.149C62.0351 128.741 62.1597 128.293 62.1597 127.806C62.1597 127.296 62.0351 126.843 61.7858 126.446C61.5477 126.038 61.2191 125.721 60.7997 125.494C60.3804 125.267 59.9044 125.154 59.3717 125.154C58.8504 125.154 58.3801 125.273 57.9607 125.511C57.5527 125.738 57.2297 126.049 56.9917 126.446C56.7537 126.843 56.6347 127.302 56.6347 127.823C56.6347 128.356 56.7537 128.82 56.9917 129.217C57.2297 129.614 57.5527 129.925 57.9607 130.152C58.3801 130.367 58.8504 130.475 59.3717 130.475ZM71.7972 136.204C70.9925 136.204 70.2898 136.057 69.6892 135.762C69.0885 135.467 68.6125 135.065 68.2612 134.555C67.9212 134.045 67.7058 133.467 67.6152 132.821H69.0092C69.1452 133.467 69.4568 133.988 69.9442 134.385C70.4315 134.782 71.0548 134.98 71.8142 134.98C72.3808 134.98 72.8682 134.85 73.2762 134.589C73.6842 134.317 73.9958 133.96 74.2112 133.518C74.4265 133.065 74.5342 132.56 74.5342 132.005C74.5342 131.416 74.4208 130.906 74.1942 130.475C73.9788 130.033 73.6672 129.687 73.2592 129.438C72.8625 129.189 72.4035 129.064 71.8822 129.064C71.2248 129.064 70.6638 129.206 70.1992 129.489C69.7458 129.772 69.4115 130.146 69.1962 130.611H67.8192L68.8222 124.1H75.0952V125.341H69.9272L69.2472 128.979C69.5305 128.65 69.9102 128.384 70.3862 128.18C70.8622 127.965 71.4118 127.857 72.0352 127.857C72.6132 127.857 73.1402 127.965 73.6162 128.18C74.0922 128.384 74.5002 128.673 74.8402 129.047C75.1915 129.41 75.4578 129.846 75.6392 130.356C75.8205 130.855 75.9112 131.399 75.9112 131.988C75.9112 132.555 75.8205 133.093 75.6392 133.603C75.4578 134.113 75.1915 134.566 74.8402 134.963C74.4888 135.348 74.0582 135.654 73.5482 135.881C73.0382 136.096 72.4545 136.204 71.7972 136.204ZM93.346 136L98.021 125.324H91.493V124.1H99.483V125.171L94.859 136H93.346ZM106.348 136.204C105.588 136.204 104.897 136.068 104.274 135.796C103.662 135.513 103.174 135.093 102.812 134.538C102.449 133.983 102.256 133.291 102.234 132.464H103.679C103.69 132.917 103.798 133.337 104.002 133.722C104.217 134.096 104.523 134.396 104.92 134.623C105.316 134.85 105.792 134.963 106.348 134.963C106.903 134.963 107.368 134.855 107.742 134.64C108.116 134.425 108.399 134.141 108.592 133.79C108.784 133.427 108.881 133.025 108.881 132.583C108.881 132.028 108.745 131.58 108.473 131.24C108.212 130.889 107.855 130.628 107.402 130.458C106.96 130.288 106.472 130.203 105.94 130.203H105.056V128.996H105.94C106.71 128.996 107.317 128.82 107.759 128.469C108.201 128.106 108.422 127.608 108.422 126.973C108.422 126.452 108.246 126.015 107.895 125.664C107.555 125.313 107.039 125.137 106.348 125.137C105.679 125.137 105.146 125.33 104.75 125.715C104.353 126.1 104.126 126.593 104.07 127.194H102.625C102.659 126.548 102.834 125.976 103.152 125.477C103.469 124.978 103.9 124.593 104.444 124.321C104.988 124.038 105.622 123.896 106.348 123.896C107.118 123.896 107.764 124.032 108.286 124.304C108.807 124.576 109.198 124.939 109.459 125.392C109.731 125.845 109.867 126.344 109.867 126.888C109.867 127.285 109.793 127.664 109.646 128.027C109.498 128.39 109.277 128.707 108.983 128.979C108.699 129.24 108.331 129.427 107.878 129.54C108.342 129.631 108.756 129.812 109.119 130.084C109.493 130.345 109.787 130.685 110.003 131.104C110.218 131.523 110.326 132.016 110.326 132.583C110.326 133.229 110.173 133.83 109.867 134.385C109.572 134.929 109.13 135.371 108.541 135.711C107.951 136.04 107.22 136.204 106.348 136.204ZM118.262 136.204C117.491 136.204 116.794 136.062 116.171 135.779C115.559 135.484 115.072 135.082 114.709 134.572C114.358 134.051 114.182 133.45 114.182 132.77C114.182 132.283 114.278 131.829 114.471 131.41C114.664 130.991 114.93 130.628 115.27 130.322C115.621 130.005 116.024 129.784 116.477 129.659C115.842 129.432 115.349 129.081 114.998 128.605C114.658 128.129 114.488 127.613 114.488 127.058C114.488 126.469 114.635 125.936 114.93 125.46C115.236 124.984 115.672 124.604 116.239 124.321C116.806 124.038 117.48 123.896 118.262 123.896C119.055 123.896 119.735 124.038 120.302 124.321C120.869 124.604 121.299 124.984 121.594 125.46C121.9 125.936 122.053 126.469 122.053 127.058C122.053 127.613 121.877 128.129 121.526 128.605C121.186 129.081 120.693 129.432 120.047 129.659C120.523 129.784 120.931 130.005 121.271 130.322C121.611 130.628 121.877 130.991 122.07 131.41C122.263 131.829 122.359 132.283 122.359 132.77C122.359 133.45 122.178 134.051 121.815 134.572C121.464 135.082 120.976 135.484 120.353 135.779C119.741 136.062 119.044 136.204 118.262 136.204ZM118.262 134.946C119.169 134.946 119.837 134.742 120.268 134.334C120.71 133.915 120.931 133.365 120.931 132.685C120.931 131.914 120.687 131.331 120.2 130.934C119.724 130.537 119.078 130.339 118.262 130.339C117.457 130.339 116.811 130.537 116.324 130.934C115.848 131.331 115.61 131.914 115.61 132.685C115.61 133.365 115.831 133.915 116.273 134.334C116.715 134.742 117.378 134.946 118.262 134.946ZM118.262 129.149C118.987 129.149 119.56 128.962 119.979 128.588C120.398 128.214 120.608 127.732 120.608 127.143C120.608 126.474 120.398 125.97 119.979 125.63C119.571 125.29 118.999 125.12 118.262 125.12C117.548 125.12 116.981 125.29 116.562 125.63C116.154 125.97 115.95 126.474 115.95 127.143C115.95 127.732 116.154 128.214 116.562 128.588C116.981 128.962 117.548 129.149 118.262 129.149ZM127.354 136V125.698L125.348 126.191V125.171L127.83 124.1H128.799V136H127.354ZM149.18 136.204C148.42 136.204 147.729 136.068 147.106 135.796C146.494 135.513 146.006 135.093 145.644 134.538C145.281 133.983 145.088 133.291 145.066 132.464H146.511C146.522 132.917 146.63 133.337 146.834 133.722C147.049 134.096 147.355 134.396 147.752 134.623C148.148 134.85 148.624 134.963 149.18 134.963C149.735 134.963 150.2 134.855 150.574 134.64C150.948 134.425 151.231 134.141 151.424 133.79C151.616 133.427 151.713 133.025 151.713 132.583C151.713 132.028 151.577 131.58 151.305 131.24C151.044 130.889 150.687 130.628 150.234 130.458C149.792 130.288 149.304 130.203 148.772 130.203H147.888V128.996H148.772C149.542 128.996 150.149 128.82 150.591 128.469C151.033 128.106 151.254 127.608 151.254 126.973C151.254 126.452 151.078 126.015 150.727 125.664C150.387 125.313 149.871 125.137 149.18 125.137C148.511 125.137 147.978 125.33 147.582 125.715C147.185 126.1 146.958 126.593 146.902 127.194H145.457C145.491 126.548 145.666 125.976 145.984 125.477C146.301 124.978 146.732 124.593 147.276 124.321C147.82 124.038 148.454 123.896 149.18 123.896C149.95 123.896 150.596 124.032 151.118 124.304C151.639 124.576 152.03 124.939 152.291 125.392C152.563 125.845 152.699 126.344 152.699 126.888C152.699 127.285 152.625 127.664 152.478 128.027C152.33 128.39 152.109 128.707 151.815 128.979C151.531 129.24 151.163 129.427 150.71 129.54C151.174 129.631 151.588 129.812 151.951 130.084C152.325 130.345 152.619 130.685 152.835 131.104C153.05 131.523 153.158 132.016 153.158 132.583C153.158 133.229 153.005 133.83 152.699 134.385C152.404 134.929 151.962 135.371 151.373 135.711C150.783 136.04 150.052 136.204 149.18 136.204ZM157.956 136L162.631 125.324H156.103V124.1H164.093V125.171L159.469 136H157.956ZM171.214 136.204C170.409 136.204 169.707 136.057 169.106 135.762C168.505 135.467 168.029 135.065 167.678 134.555C167.338 134.045 167.123 133.467 167.032 132.821H168.426C168.562 133.467 168.874 133.988 169.361 134.385C169.848 134.782 170.472 134.98 171.231 134.98C171.798 134.98 172.285 134.85 172.693 134.589C173.101 134.317 173.413 133.96 173.628 133.518C173.843 133.065 173.951 132.56 173.951 132.005C173.951 131.416 173.838 130.906 173.611 130.475C173.396 130.033 173.084 129.687 172.676 129.438C172.279 129.189 171.82 129.064 171.299 129.064C170.642 129.064 170.081 129.206 169.616 129.489C169.163 129.772 168.828 130.146 168.613 130.611H167.236L168.239 124.1H174.512V125.341H169.344L168.664 128.979C168.947 128.65 169.327 128.384 169.803 128.18C170.279 127.965 170.829 127.857 171.452 127.857C172.03 127.857 172.557 127.965 173.033 128.18C173.509 128.384 173.917 128.673 174.257 129.047C174.608 129.41 174.875 129.846 175.056 130.356C175.237 130.855 175.328 131.399 175.328 131.988C175.328 132.555 175.237 133.093 175.056 133.603C174.875 134.113 174.608 134.566 174.257 134.963C173.906 135.348 173.475 135.654 172.965 135.881C172.455 136.096 171.871 136.204 171.214 136.204ZM182.689 136.204C181.941 136.204 181.301 136.057 180.768 135.762C180.236 135.467 179.811 135.076 179.493 134.589C179.187 134.09 179 133.546 178.932 132.957H180.258C180.372 133.603 180.644 134.102 181.074 134.453C181.505 134.793 182.049 134.963 182.706 134.963C183.307 134.963 183.84 134.782 184.304 134.419C184.769 134.056 185.143 133.501 185.426 132.753C185.721 132.005 185.885 131.059 185.919 129.914C185.919 129.88 185.919 129.852 185.919 129.829C185.919 129.795 185.919 129.761 185.919 129.727C185.749 130.09 185.5 130.424 185.171 130.73C184.843 131.025 184.452 131.263 183.998 131.444C183.556 131.625 183.052 131.716 182.485 131.716C181.817 131.716 181.182 131.557 180.581 131.24C179.992 130.923 179.51 130.481 179.136 129.914C178.774 129.336 178.592 128.662 178.592 127.891C178.592 127.222 178.757 126.582 179.085 125.97C179.414 125.358 179.884 124.859 180.496 124.474C181.108 124.089 181.834 123.896 182.672 123.896C183.534 123.896 184.259 124.06 184.848 124.389C185.438 124.706 185.908 125.137 186.259 125.681C186.611 126.225 186.866 126.837 187.024 127.517C187.194 128.186 187.279 128.871 187.279 129.574C187.279 130.877 187.098 132.028 186.735 133.025C186.373 134.022 185.851 134.804 185.171 135.371C184.491 135.926 183.664 136.204 182.689 136.204ZM182.774 130.475C183.307 130.475 183.783 130.356 184.202 130.118C184.622 129.869 184.95 129.546 185.188 129.149C185.438 128.741 185.562 128.293 185.562 127.806C185.562 127.296 185.438 126.843 185.188 126.446C184.95 126.038 184.622 125.721 184.202 125.494C183.783 125.267 183.307 125.154 182.774 125.154C182.253 125.154 181.783 125.273 181.363 125.511C180.955 125.738 180.632 126.049 180.394 126.446C180.156 126.843 180.037 127.302 180.037 127.823C180.037 128.356 180.156 128.82 180.394 129.217C180.632 129.614 180.955 129.925 181.363 130.152C181.783 130.367 182.253 130.475 182.774 130.475ZM203.415 136V134.997C204.231 134.362 205.002 133.722 205.727 133.076C206.452 132.43 207.098 131.79 207.665 131.155C208.232 130.509 208.674 129.88 208.991 129.268C209.308 128.656 209.467 128.067 209.467 127.5C209.467 127.081 209.393 126.695 209.246 126.344C209.11 125.981 208.883 125.687 208.566 125.46C208.249 125.233 207.812 125.12 207.257 125.12C206.724 125.12 206.282 125.239 205.931 125.477C205.58 125.704 205.313 126.01 205.132 126.395C204.962 126.769 204.877 127.183 204.877 127.636H203.5C203.511 126.854 203.681 126.185 204.01 125.63C204.339 125.063 204.781 124.633 205.336 124.338C205.903 124.043 206.549 123.896 207.274 123.896C207.988 123.896 208.617 124.032 209.161 124.304C209.705 124.565 210.13 124.956 210.436 125.477C210.742 125.998 210.895 126.656 210.895 127.449C210.895 128.004 210.782 128.56 210.555 129.115C210.328 129.67 210.022 130.214 209.637 130.747C209.252 131.268 208.821 131.773 208.345 132.26C207.88 132.747 207.404 133.206 206.917 133.637C206.43 134.068 205.965 134.459 205.523 134.81H211.303V136H203.415ZM218.803 136.204C218.044 136.204 217.353 136.068 216.729 135.796C216.117 135.513 215.63 135.093 215.267 134.538C214.905 133.983 214.712 133.291 214.689 132.464H216.134C216.146 132.917 216.253 133.337 216.457 133.722C216.673 134.096 216.979 134.396 217.375 134.623C217.772 134.85 218.248 134.963 218.803 134.963C219.359 134.963 219.823 134.855 220.197 134.64C220.571 134.425 220.855 134.141 221.047 133.79C221.24 133.427 221.336 133.025 221.336 132.583C221.336 132.028 221.2 131.58 220.928 131.24C220.668 130.889 220.311 130.628 219.857 130.458C219.415 130.288 218.928 130.203 218.395 130.203H217.511V128.996H218.395C219.166 128.996 219.772 128.82 220.214 128.469C220.656 128.106 220.877 127.608 220.877 126.973C220.877 126.452 220.702 126.015 220.35 125.664C220.01 125.313 219.495 125.137 218.803 125.137C218.135 125.137 217.602 125.33 217.205 125.715C216.809 126.1 216.582 126.593 216.525 127.194H215.08C215.114 126.548 215.29 125.976 215.607 125.477C215.925 124.978 216.355 124.593 216.899 124.321C217.443 124.038 218.078 123.896 218.803 123.896C219.574 123.896 220.22 124.032 220.741 124.304C221.263 124.576 221.654 124.939 221.914 125.392C222.186 125.845 222.322 126.344 222.322 126.888C222.322 127.285 222.249 127.664 222.101 128.027C221.954 128.39 221.733 128.707 221.438 128.979C221.155 129.24 220.787 129.427 220.333 129.54C220.798 129.631 221.212 129.812 221.574 130.084C221.948 130.345 222.243 130.685 222.458 131.104C222.674 131.523 222.781 132.016 222.781 132.583C222.781 133.229 222.628 133.83 222.322 134.385C222.028 134.929 221.586 135.371 220.996 135.711C220.407 136.04 219.676 136.204 218.803 136.204ZM226.621 136V134.997C227.437 134.362 228.207 133.722 228.933 133.076C229.658 132.43 230.304 131.79 230.871 131.155C231.437 130.509 231.879 129.88 232.197 129.268C232.514 128.656 232.673 128.067 232.673 127.5C232.673 127.081 232.599 126.695 232.452 126.344C232.316 125.981 232.089 125.687 231.772 125.46C231.454 125.233 231.018 125.12 230.463 125.12C229.93 125.12 229.488 125.239 229.137 125.477C228.785 125.704 228.519 126.01 228.338 126.395C228.168 126.769 228.083 127.183 228.083 127.636H226.706C226.717 126.854 226.887 126.185 227.216 125.63C227.544 125.063 227.986 124.633 228.542 124.338C229.108 124.043 229.754 123.896 230.48 123.896C231.194 123.896 231.823 124.032 232.367 124.304C232.911 124.565 233.336 124.956 233.642 125.477C233.948 125.998 234.101 126.656 234.101 127.449C234.101 128.004 233.987 128.56 233.761 129.115C233.534 129.67 233.228 130.214 232.843 130.747C232.457 131.268 232.027 131.773 231.551 132.26C231.086 132.747 230.61 133.206 230.123 133.637C229.635 134.068 229.171 134.459 228.729 134.81H234.509V136H226.621ZM239.561 136V125.698L237.555 126.191V125.171L240.037 124.1H241.006V136H239.561Z" fill="white"/>
<path d="M30.742 159.512C30.742 161.122 31.162 162.452 32.016 163.53C32.87 164.594 33.976 165.126 35.334 165.126C36.692 165.126 37.812 164.594 38.666 163.516C39.52 162.438 39.954 161.094 39.954 159.484C39.954 157.888 39.534 156.558 38.68 155.494C37.826 154.416 36.72 153.884 35.362 153.884C34.004 153.884 32.898 154.43 32.03 155.508C31.176 156.586 30.742 157.916 30.742 159.512ZM38.176 159.512C38.176 160.646 37.924 161.612 37.406 162.382C36.888 163.152 36.216 163.544 35.362 163.544C34.508 163.544 33.822 163.152 33.304 162.368C32.786 161.584 32.534 160.618 32.534 159.484C32.534 158.35 32.786 157.398 33.29 156.628C33.808 155.858 34.48 155.466 35.334 155.466C36.188 155.466 36.874 155.858 37.392 156.642C37.91 157.426 38.176 158.378 38.176 159.512ZM46.6274 154.038L41.4054 160.842V162.578H47.0474V165H48.7414V162.578H50.3654V161.024H48.7414V154.038H46.6274ZM47.0474 155.984V161.024H43.1694L47.0474 155.984ZM53.3322 165.07L58.3442 153.59H56.6782L51.6662 165.07H53.3322ZM59.7308 165H67.4448V163.446H62.1668L64.7148 161.332C65.6808 160.534 66.3668 159.848 66.7728 159.274C67.1788 158.686 67.3888 157.986 67.3888 157.188C67.3888 156.208 67.0388 155.41 66.3388 154.808C65.6388 154.192 64.7428 153.884 63.6648 153.884C62.7268 153.884 61.9148 154.122 61.2288 154.612C60.5568 155.102 60.1088 155.746 59.8848 156.544L61.4248 157.188C61.8588 156.04 62.6008 155.466 63.6508 155.466C64.8688 155.466 65.6108 156.264 65.6108 157.314C65.6108 157.804 65.4708 158.238 65.1908 158.63C64.9108 159.008 64.3928 159.526 63.6508 160.156L59.7308 163.502V165ZM74.1959 154.038L68.9739 160.842V162.578H74.6159V165H76.3099V162.578H77.9339V161.024H76.3099V154.038H74.1959ZM74.6159 155.984V161.024H70.7379L74.6159 155.984Z" fill="#868685"/>
<path fill-rule="evenodd" clip-rule="evenodd" d="M295.277 186.095V188V189.904H294.438V189.442C294.172 189.785 293.769 190 293.22 190C292.139 190 291.291 189.164 291.291 188C291.291 186.837 292.139 186 293.22 186C293.769 186 294.172 186.215 294.438 186.558V186.095H295.277ZM293.324 186.78C292.598 186.78 292.154 187.33 292.154 188C292.154 188.669 292.598 189.219 293.324 189.219C294.018 189.219 294.486 188.693 294.486 188C294.486 187.307 294.018 186.78 293.324 186.78ZM323.612 188C323.612 187.33 324.057 186.78 324.782 186.78C325.477 186.78 325.944 187.307 325.944 188C325.944 188.693 325.477 189.219 324.782 189.219C324.057 189.219 323.612 188.669 323.612 188ZM326.735 184.566V188V189.904H325.896V189.442C325.63 189.785 325.227 190 324.678 190C323.597 190 322.749 189.164 322.749 188C322.749 186.837 323.597 186 324.678 186C325.227 186 325.63 186.215 325.896 186.558V184.566H326.735ZM305.685 186.741C306.225 186.741 306.572 187.076 306.661 187.665H304.66C304.75 187.115 305.087 186.741 305.685 186.741ZM303.781 188C303.781 186.812 304.571 186 305.702 186C306.782 186 307.525 186.812 307.533 188C307.533 188.111 307.525 188.215 307.516 188.318H304.653C304.774 189.004 305.266 189.251 305.806 189.251C306.193 189.251 306.605 189.107 306.928 188.853L307.339 189.466C306.871 189.857 306.339 190 305.758 190C304.604 190 303.781 189.211 303.781 188ZM315.827 188C315.827 187.33 316.271 186.78 316.997 186.78C317.69 186.78 318.158 187.307 318.158 188C318.158 188.693 317.69 189.219 316.997 189.219C316.271 189.219 315.827 188.669 315.827 188ZM318.949 186.095V188V189.904H318.11V189.442C317.843 189.785 317.441 190 316.892 190C315.811 190 314.963 189.164 314.963 188C314.963 186.837 315.811 186 316.892 186C317.441 186 317.843 186.215 318.11 186.558V186.095H318.949ZM311.091 188C311.091 189.155 311.905 190 313.148 190C313.729 190 314.116 189.872 314.535 189.546L314.133 188.876C313.818 189.1 313.487 189.219 313.123 189.219C312.454 189.211 311.962 188.733 311.962 188C311.962 187.267 312.454 186.789 313.123 186.78C313.487 186.78 313.818 186.9 314.133 187.123L314.535 186.454C314.116 186.127 313.729 186 313.148 186C311.905 186 311.091 186.844 311.091 188ZM320.885 186.558C321.103 186.223 321.418 186 321.902 186C322.072 186 322.314 186.032 322.499 186.104L322.241 186.884C322.064 186.812 321.886 186.789 321.716 186.789C321.168 186.789 320.893 187.139 320.893 187.769V189.904H320.054V186.095H320.885V186.558ZM299.424 186.398C299.02 186.136 298.464 186 297.851 186C296.874 186 296.245 186.462 296.245 187.219C296.245 187.84 296.713 188.223 297.576 188.343L297.972 188.398C298.432 188.462 298.649 188.582 298.649 188.797C298.649 189.092 298.342 189.259 297.77 189.259C297.189 189.259 296.77 189.076 296.487 188.861L296.092 189.506C296.552 189.84 297.133 190 297.762 190C298.875 190 299.521 189.482 299.521 188.757C299.521 188.087 299.013 187.737 298.173 187.618L297.778 187.561C297.415 187.514 297.124 187.443 297.124 187.187C297.124 186.908 297.399 186.741 297.859 186.741C298.351 186.741 298.827 186.925 299.061 187.068L299.424 186.398ZM309.227 186.558C309.444 186.223 309.759 186 310.243 186C310.413 186 310.655 186.032 310.841 186.104L310.582 186.884C310.405 186.812 310.228 186.789 310.058 186.789C309.509 186.789 309.235 187.139 309.235 187.769V189.904H308.396V186.095H309.227V186.558ZM303.087 186.095H301.716V184.94H300.868V186.095H300.086V186.852H300.868V188.59C300.868 189.474 301.215 190 302.207 190C302.571 190 302.99 189.889 303.256 189.705L303.014 188.996C302.764 189.139 302.49 189.211 302.272 189.211C301.852 189.211 301.716 188.956 301.716 188.574V186.852H303.087V186.095ZM290.549 187.514V189.904H289.702V187.785C289.702 187.139 289.427 186.78 288.855 186.78C288.298 186.78 287.911 187.132 287.911 187.793V189.904H287.063V187.785C287.063 187.139 286.781 186.78 286.225 186.78C285.651 186.78 285.28 187.132 285.28 187.793V189.904H284.433V186.095H285.273V186.565C285.587 186.119 285.99 186 286.402 186C286.991 186 287.41 186.255 287.676 186.677C288.032 186.143 288.54 185.992 289.032 186C289.968 186.008 290.549 186.614 290.549 187.514Z" fill="white"/>
<path d="M311.855 179.624H299.146V157.067H311.855V179.624Z" fill="#FF5F00"/>
<path d="M299.952 168.346C299.952 163.77 302.121 159.694 305.5 157.067C303.029 155.146 299.912 154 296.523 154C288.502 154 282 160.423 282 168.346C282 176.269 288.502 182.691 296.523 182.691C299.912 182.691 303.029 181.545 305.5 179.624C302.121 176.997 299.952 172.921 299.952 168.346Z" fill="#EB001B"/>
<path d="M329 168.346C329 176.269 322.498 182.691 314.477 182.691C311.088 182.691 307.971 181.545 305.5 179.624C308.878 176.997 311.048 172.921 311.048 168.346C311.048 163.77 308.878 159.694 305.5 157.067C307.971 155.146 311.088 154 314.477 154C322.498 154 329 160.423 329 168.346Z" fill="#F79E1B"/>
<rect opacity="0.1" x="15" y="150" width="324" height="172" rx="15" fill="url(#paint1_linear_7931_28956)"/>
<foreignObject x="5" y="140" width="344" height="192"><div xmlns="http://www.w3.org/1999/xhtml" style="backdrop-filter:blur(5px);clip-path:url(#bgblur_0_7931_28956_clip_path);height:100%;width:100%"></div></foreignObject><rect data-figma-bg-blur-radius="10" x="15.25" y="150.25" width="323.5" height="171.5" rx="14.75" fill="url(#paint2_linear_7931_28956)" stroke="url(#paint3_linear_7931_28956)" stroke-width="0.5"/>
<path d="M314.431 287.785H312.514C312.644 287.448 312.949 286.632 313.431 285.338L313.472 285.215C313.509 285.124 313.556 285.005 313.611 284.859C313.667 284.714 313.708 284.595 313.736 284.504L313.903 285.256L314.431 287.785ZM294.375 286.896L293.569 282.863C293.468 282.371 293.12 282.125 292.528 282.125H288.806L288.778 282.303C291.657 283.023 293.523 284.554 294.375 286.896ZM296.861 282.125L294.611 288.113L294.375 286.896C294.134 286.258 293.741 285.668 293.194 285.126C292.648 284.584 292.042 284.18 291.375 283.916L293.25 290.889H295.681L299.306 282.125H296.861ZM298.792 290.902H301.097L302.542 282.125H300.236L298.792 290.902ZM309.458 282.344C308.819 282.098 308.13 281.975 307.389 281.975C306.25 281.975 305.319 282.243 304.597 282.781C303.875 283.319 303.509 284.016 303.5 284.873C303.491 285.803 304.162 286.596 305.514 287.252C305.958 287.462 306.269 287.648 306.444 287.812C306.62 287.977 306.708 288.154 306.708 288.346C306.708 288.619 306.569 288.829 306.292 288.975C306.014 289.12 305.694 289.193 305.333 289.193C304.537 289.193 303.815 289.043 303.167 288.742L302.861 288.592L302.542 290.561C303.227 290.87 304.083 291.025 305.111 291.025C306.315 291.035 307.28 290.766 308.007 290.219C308.734 289.672 309.106 288.943 309.125 288.031C309.125 287.065 308.477 286.272 307.181 285.652C306.727 285.424 306.398 285.233 306.194 285.078C305.991 284.923 305.889 284.75 305.889 284.559C305.889 284.358 306.002 284.183 306.229 284.032C306.456 283.882 306.782 283.807 307.208 283.807C307.856 283.798 308.431 283.907 308.931 284.135L309.139 284.244L309.458 282.344ZM315.361 282.125H313.583C312.981 282.125 312.579 282.371 312.375 282.863L308.958 290.902H311.375L311.861 289.59H314.806C314.852 289.79 314.944 290.228 315.083 290.902H317.222L315.361 282.125ZM319 277.75V295.25C319 295.724 318.824 296.134 318.472 296.48C318.12 296.827 317.704 297 317.222 297H288.778C288.296 297 287.88 296.827 287.528 296.48C287.176 296.134 287 295.724 287 295.25V277.75C287 277.276 287.176 276.866 287.528 276.52C287.88 276.173 288.296 276 288.778 276H317.222C317.704 276 318.12 276.173 318.472 276.52C318.824 276.866 319 277.276 319 277.75Z" fill="#1A1F71"/>
<path d="M53.488 167.224H56.152V177.04C56.152 181.984 52.888 184.456 48.832 184.312C45.088 184.216 41.896 181.816 41.896 177.04V167.224H44.56V177.04C44.56 180.088 46.336 181.744 48.832 181.84C51.52 181.984 53.488 180.232 53.488 177.04V167.224ZM62.8229 176.56V181.504H67.8629C69.3509 181.504 71.4149 181.024 71.4149 179.176C71.4149 177.376 69.4229 176.56 67.8869 176.56C66.1829 176.56 64.5269 176.56 62.8229 176.56ZM62.8229 169.624V174.16H67.8869C69.9029 174.16 70.9109 173.368 70.9109 172.048C70.9109 170.872 69.8789 169.624 67.8629 169.624H62.8229ZM60.1589 167.2H67.8629C71.0549 167.2 73.5749 168.664 73.5749 172C73.5749 173.416 72.8309 174.688 71.2469 175.336C73.2629 175.936 74.1029 177.928 74.1029 179.2C74.1029 182.872 71.1749 184 67.8629 184C65.2469 184 62.7749 184 60.1589 184V167.2ZM77.3386 167.2H80.0266V181.504H88.8826V184H77.3386V167.2Z" fill="white"/>
<path d="M114.512 180.144C113.704 180.144 113.004 179.964 112.412 179.604C111.828 179.236 111.376 178.728 111.056 178.08C110.736 177.424 110.576 176.664 110.576 175.8C110.576 174.936 110.736 174.18 111.056 173.532C111.376 172.876 111.828 172.368 112.412 172.008C113.004 171.64 113.704 171.456 114.512 171.456C115.472 171.456 116.248 171.684 116.84 172.14C117.44 172.596 117.824 173.24 117.992 174.072H116.888C116.752 173.552 116.488 173.136 116.096 172.824C115.712 172.504 115.184 172.344 114.512 172.344C113.928 172.344 113.416 172.484 112.976 172.764C112.536 173.036 112.196 173.432 111.956 173.952C111.724 174.464 111.608 175.08 111.608 175.8C111.608 176.52 111.724 177.14 111.956 177.66C112.196 178.172 112.536 178.568 112.976 178.848C113.416 179.12 113.928 179.256 114.512 179.256C115.184 179.256 115.712 179.104 116.096 178.8C116.488 178.488 116.752 178.076 116.888 177.564H117.992C117.824 178.372 117.44 179.004 116.84 179.46C116.248 179.916 115.472 180.144 114.512 180.144ZM122.118 180.144C121.542 180.144 121.03 180.012 120.582 179.748C120.134 179.484 119.782 179.112 119.526 178.632C119.278 178.144 119.154 177.576 119.154 176.928C119.154 176.272 119.282 175.704 119.538 175.224C119.794 174.744 120.146 174.372 120.594 174.108C121.05 173.836 121.566 173.7 122.142 173.7C122.718 173.7 123.23 173.836 123.678 174.108C124.126 174.372 124.474 174.744 124.722 175.224C124.978 175.704 125.106 176.272 125.106 176.928C125.106 177.576 124.978 178.144 124.722 178.632C124.466 179.112 124.11 179.484 123.654 179.748C123.206 180.012 122.694 180.144 122.118 180.144ZM122.118 179.28C122.478 179.28 122.806 179.192 123.102 179.016C123.398 178.84 123.634 178.576 123.81 178.224C123.986 177.872 124.074 177.44 124.074 176.928C124.074 176.4 123.986 175.964 123.81 175.62C123.642 175.268 123.41 175.004 123.114 174.828C122.818 174.652 122.494 174.564 122.142 174.564C121.79 174.564 121.466 174.652 121.17 174.828C120.874 175.004 120.634 175.268 120.45 175.62C120.274 175.964 120.186 176.4 120.186 176.928C120.186 177.44 120.274 177.872 120.45 178.224C120.626 178.576 120.858 178.84 121.146 179.016C121.442 179.192 121.766 179.28 122.118 179.28ZM126.543 180V173.844H127.455L127.515 174.708C127.707 174.396 127.963 174.152 128.283 173.976C128.611 173.792 128.963 173.7 129.339 173.7C129.651 173.7 129.931 173.744 130.179 173.832C130.427 173.912 130.643 174.04 130.827 174.216C131.019 174.384 131.175 174.6 131.295 174.864C131.503 174.488 131.787 174.2 132.147 174C132.507 173.8 132.891 173.7 133.299 173.7C133.763 173.7 134.163 173.792 134.499 173.976C134.843 174.16 135.107 174.44 135.291 174.816C135.483 175.192 135.579 175.664 135.579 176.232V180H134.583V176.34C134.583 175.748 134.459 175.304 134.211 175.008C133.963 174.712 133.615 174.564 133.167 174.564C132.871 174.564 132.599 174.644 132.351 174.804C132.111 174.964 131.919 175.2 131.775 175.512C131.631 175.816 131.559 176.188 131.559 176.628V180H130.551V176.34C130.551 175.748 130.427 175.304 130.179 175.008C129.931 174.712 129.591 174.564 129.159 174.564C128.863 174.564 128.591 174.644 128.343 174.804C128.103 174.964 127.911 175.2 127.767 175.512C127.623 175.816 127.551 176.188 127.551 176.628V180H126.543ZM137.172 180V173.844H138.084L138.144 174.708C138.336 174.396 138.592 174.152 138.912 173.976C139.24 173.792 139.592 173.7 139.968 173.7C140.28 173.7 140.56 173.744 140.808 173.832C141.056 173.912 141.272 174.04 141.456 174.216C141.648 174.384 141.804 174.6 141.924 174.864C142.132 174.488 142.416 174.2 142.776 174C143.136 173.8 143.52 173.7 143.928 173.7C144.392 173.7 144.792 173.792 145.128 173.976C145.472 174.16 145.736 174.44 145.92 174.816C146.112 175.192 146.208 175.664 146.208 176.232V180H145.212V176.34C145.212 175.748 145.088 175.304 144.84 175.008C144.592 174.712 144.244 174.564 143.796 174.564C143.5 174.564 143.228 174.644 142.98 174.804C142.74 174.964 142.548 175.2 142.404 175.512C142.26 175.816 142.188 176.188 142.188 176.628V180H141.18V176.34C141.18 175.748 141.056 175.304 140.808 175.008C140.56 174.712 140.22 174.564 139.788 174.564C139.492 174.564 139.22 174.644 138.972 174.804C138.732 174.964 138.54 175.2 138.396 175.512C138.252 175.816 138.18 176.188 138.18 176.628V180H137.172ZM150.441 180.144C149.881 180.144 149.381 180.012 148.941 179.748C148.509 179.476 148.169 179.1 147.921 178.62C147.673 178.132 147.549 177.568 147.549 176.928C147.549 176.28 147.673 175.716 147.921 175.236C148.169 174.748 148.509 174.372 148.941 174.108C149.381 173.836 149.889 173.7 150.465 173.7C151.065 173.7 151.569 173.836 151.977 174.108C152.393 174.372 152.709 174.724 152.925 175.164C153.141 175.604 153.249 176.084 153.249 176.604C153.249 176.684 153.249 176.768 153.249 176.856C153.249 176.944 153.245 177.044 153.237 177.156H148.305V176.376H152.253C152.237 175.792 152.057 175.344 151.713 175.032C151.377 174.712 150.953 174.552 150.441 174.552C150.105 174.552 149.793 174.632 149.505 174.792C149.217 174.952 148.981 175.188 148.797 175.5C148.621 175.804 148.533 176.188 148.533 176.652V176.988C148.533 177.492 148.621 177.916 148.797 178.26C148.981 178.604 149.217 178.864 149.505 179.04C149.793 179.208 150.105 179.292 150.441 179.292C150.881 179.292 151.233 179.204 151.497 179.028C151.761 178.844 151.957 178.588 152.085 178.26H153.081C152.977 178.62 152.805 178.944 152.565 179.232C152.333 179.512 152.037 179.736 151.677 179.904C151.325 180.064 150.913 180.144 150.441 180.144ZM154.61 180V173.844H155.522L155.606 174.996C155.742 174.716 155.918 174.48 156.134 174.288C156.358 174.096 156.626 173.952 156.938 173.856C157.25 173.752 157.602 173.7 157.994 173.7V174.756H157.526C157.278 174.756 157.038 174.792 156.806 174.864C156.582 174.928 156.378 175.036 156.194 175.188C156.018 175.332 155.878 175.532 155.774 175.788C155.67 176.044 155.618 176.364 155.618 176.748V180H154.61ZM161.658 180.144C161.082 180.144 160.566 180.012 160.11 179.748C159.662 179.476 159.31 179.1 159.054 178.62C158.798 178.132 158.67 177.568 158.67 176.928C158.67 176.28 158.798 175.716 159.054 175.236C159.31 174.756 159.662 174.38 160.11 174.108C160.566 173.836 161.082 173.7 161.658 173.7C162.37 173.7 162.966 173.892 163.446 174.276C163.934 174.652 164.242 175.156 164.37 175.788H163.338C163.258 175.404 163.058 175.104 162.738 174.888C162.426 174.672 162.062 174.564 161.646 174.564C161.286 174.564 160.958 174.656 160.662 174.84C160.374 175.016 160.142 175.28 159.966 175.632C159.79 175.976 159.702 176.408 159.702 176.928C159.702 177.312 159.75 177.652 159.846 177.948C159.95 178.244 160.09 178.492 160.266 178.692C160.442 178.892 160.646 179.044 160.878 179.148C161.118 179.244 161.374 179.292 161.646 179.292C161.926 179.292 162.182 179.244 162.414 179.148C162.654 179.052 162.854 178.912 163.014 178.728C163.174 178.544 163.282 178.324 163.338 178.068H164.37C164.242 178.684 163.934 179.184 163.446 179.568C162.966 179.952 162.37 180.144 161.658 180.144ZM165.921 180V173.844H166.929V180H165.921ZM166.425 172.596C166.225 172.596 166.057 172.532 165.921 172.404C165.793 172.268 165.729 172.1 165.729 171.9C165.729 171.7 165.793 171.54 165.921 171.42C166.057 171.292 166.225 171.228 166.425 171.228C166.617 171.228 166.781 171.292 166.917 171.42C167.053 171.54 167.121 171.7 167.121 171.9C167.121 172.1 167.053 172.268 166.917 172.404C166.781 172.532 166.617 172.596 166.425 172.596ZM170.675 180.144C170.187 180.144 169.779 180.056 169.451 179.88C169.131 179.704 168.891 179.472 168.731 179.184C168.571 178.896 168.491 178.58 168.491 178.236C168.491 177.828 168.595 177.48 168.803 177.192C169.019 176.904 169.319 176.688 169.703 176.544C170.087 176.392 170.539 176.316 171.059 176.316H172.643C172.643 175.924 172.591 175.6 172.487 175.344C172.383 175.08 172.219 174.884 171.995 174.756C171.779 174.62 171.503 174.552 171.167 174.552C170.791 174.552 170.467 174.648 170.195 174.84C169.923 175.024 169.755 175.3 169.691 175.668H168.659C168.707 175.244 168.851 174.888 169.091 174.6C169.331 174.304 169.635 174.08 170.003 173.928C170.371 173.776 170.759 173.7 171.167 173.7C171.727 173.7 172.191 173.804 172.559 174.012C172.927 174.212 173.199 174.496 173.375 174.864C173.559 175.224 173.651 175.652 173.651 176.148V180H172.751L172.691 178.92C172.611 179.088 172.507 179.248 172.379 179.4C172.259 179.544 172.115 179.672 171.947 179.784C171.787 179.896 171.599 179.984 171.383 180.048C171.167 180.112 170.931 180.144 170.675 180.144ZM170.819 179.292C171.091 179.292 171.339 179.232 171.563 179.112C171.795 178.992 171.991 178.832 172.151 178.632C172.311 178.432 172.431 178.208 172.511 177.96C172.599 177.704 172.643 177.44 172.643 177.168V177.096H171.143C170.759 177.096 170.447 177.144 170.207 177.24C169.975 177.328 169.807 177.456 169.703 177.624C169.599 177.792 169.547 177.98 169.547 178.188C169.547 178.412 169.595 178.608 169.691 178.776C169.787 178.936 169.931 179.064 170.123 179.16C170.315 179.248 170.547 179.292 170.819 179.292ZM175.258 180V171.36H176.266V180H175.258ZM181.213 180V171.6H184.165C184.757 171.6 185.245 171.696 185.629 171.888C186.021 172.072 186.313 172.328 186.505 172.656C186.697 172.976 186.793 173.336 186.793 173.736C186.793 174.168 186.697 174.528 186.505 174.816C186.321 175.104 186.077 175.324 185.773 175.476C185.477 175.628 185.161 175.72 184.825 175.752L184.993 175.632C185.353 175.64 185.685 175.736 185.989 175.92C186.293 176.104 186.533 176.352 186.709 176.664C186.893 176.976 186.985 177.324 186.985 177.708C186.985 178.132 186.881 178.52 186.673 178.872C186.465 179.216 186.157 179.492 185.749 179.7C185.349 179.9 184.853 180 184.261 180H181.213ZM182.221 179.16H184.153C184.721 179.16 185.161 179.028 185.473 178.764C185.793 178.492 185.953 178.116 185.953 177.636C185.953 177.164 185.789 176.788 185.461 176.508C185.141 176.22 184.697 176.076 184.129 176.076H182.221V179.16ZM182.221 175.272H184.093C184.637 175.272 185.049 175.144 185.329 174.888C185.617 174.632 185.761 174.284 185.761 173.844C185.761 173.42 185.617 173.08 185.329 172.824C185.049 172.568 184.625 172.44 184.057 172.44H182.221V175.272ZM190.363 180.144C189.875 180.144 189.467 180.056 189.139 179.88C188.819 179.704 188.579 179.472 188.419 179.184C188.259 178.896 188.179 178.58 188.179 178.236C188.179 177.828 188.283 177.48 188.491 177.192C188.707 176.904 189.007 176.688 189.391 176.544C189.775 176.392 190.227 176.316 190.747 176.316H192.331C192.331 175.924 192.279 175.6 192.175 175.344C192.071 175.08 191.907 174.884 191.683 174.756C191.467 174.62 191.191 174.552 190.855 174.552C190.479 174.552 190.155 174.648 189.883 174.84C189.611 175.024 189.443 175.3 189.379 175.668H188.347C188.395 175.244 188.539 174.888 188.779 174.6C189.019 174.304 189.323 174.08 189.691 173.928C190.059 173.776 190.447 173.7 190.855 173.7C191.415 173.7 191.879 173.804 192.247 174.012C192.615 174.212 192.887 174.496 193.063 174.864C193.247 175.224 193.339 175.652 193.339 176.148V180H192.439L192.379 178.92C192.299 179.088 192.195 179.248 192.067 179.4C191.947 179.544 191.803 179.672 191.635 179.784C191.475 179.896 191.287 179.984 191.071 180.048C190.855 180.112 190.619 180.144 190.363 180.144ZM190.507 179.292C190.779 179.292 191.027 179.232 191.251 179.112C191.483 178.992 191.679 178.832 191.839 178.632C191.999 178.432 192.119 178.208 192.199 177.96C192.287 177.704 192.331 177.44 192.331 177.168V177.096H190.831C190.447 177.096 190.135 177.144 189.895 177.24C189.663 177.328 189.495 177.456 189.391 177.624C189.287 177.792 189.235 177.98 189.235 178.188C189.235 178.412 189.283 178.608 189.379 178.776C189.475 178.936 189.619 179.064 189.811 179.16C190.003 179.248 190.235 179.292 190.507 179.292ZM194.945 180V173.844H195.857L195.917 174.876C196.101 174.508 196.369 174.22 196.721 174.012C197.073 173.804 197.477 173.7 197.933 173.7C198.405 173.7 198.813 173.792 199.157 173.976C199.501 174.16 199.769 174.44 199.961 174.816C200.153 175.184 200.249 175.652 200.249 176.22V180H199.241V176.328C199.241 175.744 199.105 175.304 198.833 175.008C198.561 174.712 198.185 174.564 197.705 174.564C197.385 174.564 197.089 174.644 196.817 174.804C196.553 174.964 196.341 175.196 196.181 175.5C196.029 175.796 195.953 176.164 195.953 176.604V180H194.945ZM205.568 180L202.688 176.652L205.352 173.844H206.588L203.54 177.012L203.552 176.292L206.852 180H205.568ZM201.848 180V171.36H202.856V180H201.848Z" fill="#F5F5F5"/>
<rect x="101" y="167" width="1" height="20" fill="#F5F5F5"/>
<path d="M62.1015 224.897L38 225C36.4031 225.009 35.0831 223.684 35.0739 222.069L35 204.062C34.9908 202.447 36.3016 201.112 37.8985 201.103L62 201C63.5969 200.991 64.9169 202.316 64.9261 203.931L65 221.938C65.0092 223.562 63.6984 224.897 62.1015 224.897Z" fill="#B2AEA9"/>
<path d="M46.5954 221.779C46.4661 221.779 46.3461 221.714 46.2815 221.593C46.1892 221.425 46.2631 221.21 46.4292 221.116C46.9277 220.855 47.6107 220.36 47.9984 219.52C48.4969 218.447 48.3584 217.28 48.1461 217.186C48.0907 217.158 47.8877 217.271 47.7584 217.336C47.4354 217.504 46.9831 217.737 46.4569 217.56C45.94 217.383 45.6908 216.925 45.5708 216.701C44.7769 215.254 44.5184 211.474 45.34 209.588C45.6169 208.962 45.9861 208.589 46.4477 208.477C46.9184 208.365 47.3061 208.561 47.62 208.72C47.8784 208.85 48.0077 208.906 48.0815 208.86C48.4046 208.664 48.3954 207.46 47.9338 206.507C47.5369 205.667 46.8538 205.182 46.3461 204.921C46.18 204.836 46.1061 204.622 46.1984 204.454C46.2815 204.286 46.4938 204.211 46.66 204.304C47.26 204.612 48.0723 205.191 48.5523 206.209C49.0323 207.217 49.2631 208.953 48.4323 209.467C48.0169 209.728 47.6107 209.523 47.2969 209.355C47.0569 209.233 46.8261 209.112 46.6046 209.168C46.3 209.243 46.0877 209.597 45.9677 209.877C45.2477 211.52 45.4692 215.095 46.1708 216.365C46.2908 216.58 46.4292 216.813 46.6784 216.897C46.9092 216.981 47.1307 216.878 47.4446 216.71C47.7492 216.552 48.0907 216.374 48.4507 216.552C49.2261 216.925 49.18 218.615 48.6261 219.819C48.1554 220.846 47.3431 221.425 46.7431 221.742C46.7061 221.77 46.6507 221.779 46.5954 221.779Z" fill="#3D3D3C"/>
<path d="M45.5068 210.223L39.2668 210.251C39.0729 210.251 38.916 210.092 38.916 209.906C38.916 209.71 39.0729 209.551 39.2576 209.551L45.4975 209.523C45.6914 209.523 45.8483 209.682 45.8483 209.868C45.8575 210.064 45.7006 210.223 45.5068 210.223Z" fill="#3D3D3C"/>
<path d="M45.5331 216.533L39.2932 216.561C39.0993 216.561 38.9424 216.403 38.9424 216.216C38.9424 216.02 39.0993 215.861 39.2839 215.861L45.5239 215.833C45.7177 215.833 45.8747 215.992 45.8747 216.179C45.8747 216.365 45.727 216.533 45.5331 216.533Z" fill="#3D3D3C"/>
<path d="M53.8681 221.752C53.8127 221.752 53.7573 221.742 53.7111 221.714C53.1112 221.406 52.2989 220.827 51.8189 219.81C51.2465 218.615 51.1912 216.926 51.9665 216.543C52.3265 216.365 52.6681 216.543 52.9727 216.692C53.2865 216.851 53.5081 216.954 53.7388 216.87C53.9973 216.776 54.145 216.496 54.2373 216.328C54.9204 215.049 55.1142 211.474 54.385 209.84C54.2558 209.56 54.0435 209.206 53.7388 209.14C53.5542 209.094 53.4342 208.907 53.4804 208.72C53.5265 208.533 53.7112 208.412 53.8958 208.459C54.3573 208.571 54.7358 208.935 55.0127 209.56C55.8527 211.437 55.6219 215.217 54.8465 216.673C54.7265 216.898 54.4773 217.364 53.9696 217.542C53.4435 217.728 52.9912 217.495 52.6681 217.327C52.5388 217.262 52.3265 217.159 52.2804 217.178C52.0681 217.28 51.9481 218.447 52.4558 219.511C52.8527 220.351 53.5358 220.837 54.0435 221.098C54.2096 221.182 54.2835 221.397 54.1912 221.565C54.1173 221.677 53.9973 221.752 53.8681 221.752Z" fill="#3D3D3C"/>
<path d="M52.4292 208.795C52.2815 208.795 52.1523 208.701 52.0969 208.552C51.3492 206.302 53.0753 204.557 53.6384 204.267C53.8046 204.174 54.0169 204.249 54.1092 204.417C54.2015 204.585 54.1276 204.799 53.9615 204.893C53.7123 205.023 52.1246 206.414 52.7615 208.328C52.8261 208.515 52.7246 208.711 52.54 208.776C52.503 208.785 52.4661 208.795 52.4292 208.795Z" fill="#3D3D3C"/>
<path d="M61.0966 210.157L54.8566 210.185C54.6628 210.185 54.5059 210.027 54.5059 209.84C54.5059 209.644 54.6628 209.485 54.8474 209.485L61.0874 209.457C61.2812 209.457 61.4381 209.616 61.4381 209.803C61.4474 209.999 61.2905 210.157 61.0966 210.157Z" fill="#3D3D3C"/>
<path d="M61.124 216.468L54.884 216.496C54.6901 216.496 54.5332 216.337 54.5332 216.151C54.5332 215.955 54.6901 215.796 54.8747 215.796L61.1147 215.768C61.3086 215.768 61.4655 215.927 61.4655 216.113C61.4747 216.309 61.3178 216.468 61.124 216.468Z" fill="#3D3D3C"/>
<path d="M308.227 206.751C312.93 212.664 312.93 220.35 308.227 226.263M313.157 202.75C319.787 211.082 319.787 221.918 313.157 230.25M303.056 209.336C306.513 213.668 306.513 219.319 303.056 223.65M297.871 212.925C299.599 215.097 299.599 217.916 297.871 220.089" stroke="#363B41" stroke-width="2" stroke-linecap="round" stroke-linejoin="round"/>
<path d="M39.864 273.192C39.1387 273.192 38.4827 273.059 37.896 272.792C37.32 272.515 36.8613 272.136 36.52 271.656C36.1893 271.165 36.024 270.6 36.024 269.96C36.024 269.501 36.1147 269.075 36.296 268.68C36.4773 268.285 36.728 267.944 37.048 267.656C37.3787 267.357 37.7573 267.149 38.184 267.032C37.5867 266.819 37.1227 266.488 36.792 266.04C36.472 265.592 36.312 265.107 36.312 264.584C36.312 264.029 36.4507 263.528 36.728 263.08C37.016 262.632 37.4267 262.275 37.96 262.008C38.4933 261.741 39.128 261.608 39.864 261.608C40.6107 261.608 41.2453 261.741 41.768 262.008C42.3013 262.275 42.712 262.632 43 263.08C43.288 263.528 43.432 264.029 43.432 264.584C43.432 265.107 43.2667 265.592 42.936 266.04C42.616 266.488 42.152 266.819 41.544 267.032C41.992 267.149 42.376 267.357 42.696 267.656C43.016 267.944 43.2667 268.285 43.448 268.68C43.6293 269.075 43.72 269.501 43.72 269.96C43.72 270.6 43.5493 271.165 43.208 271.656C42.8667 272.136 42.408 272.515 41.832 272.792C41.256 273.059 40.6 273.192 39.864 273.192ZM39.864 272.008C40.7067 272.008 41.336 271.816 41.752 271.432C42.168 271.037 42.376 270.52 42.376 269.88C42.376 269.155 42.1467 268.605 41.688 268.232C41.24 267.859 40.632 267.672 39.864 267.672C39.1067 267.672 38.4987 267.859 38.04 268.232C37.592 268.605 37.368 269.155 37.368 269.88C37.368 270.52 37.576 271.037 37.992 271.432C38.408 271.816 39.032 272.008 39.864 272.008ZM39.864 266.552C40.5467 266.552 41.0853 266.376 41.48 266.024C41.8747 265.672 42.072 265.219 42.072 264.664C42.072 264.035 41.8747 263.56 41.48 263.24C41.096 262.92 40.5573 262.76 39.864 262.76C39.192 262.76 38.6587 262.92 38.264 263.24C37.88 263.56 37.688 264.035 37.688 264.664C37.688 265.219 37.88 265.672 38.264 266.024C38.6587 266.376 39.192 266.552 39.864 266.552ZM51.326 273.192C50.5687 273.192 49.9073 273.053 49.342 272.776C48.7767 272.499 48.3287 272.12 47.998 271.64C47.678 271.16 47.4753 270.616 47.39 270.008H48.702C48.83 270.616 49.1233 271.107 49.582 271.48C50.0407 271.853 50.6273 272.04 51.342 272.04C51.8753 272.04 52.3287 271.917 52.702 271.672C53.086 271.416 53.3793 271.08 53.582 270.664C53.7953 270.237 53.902 269.763 53.902 269.24C53.902 268.685 53.7953 268.205 53.582 267.8C53.3793 267.384 53.086 267.059 52.702 266.824C52.3287 266.589 51.8967 266.472 51.406 266.472C50.7873 266.472 50.2593 266.605 49.822 266.872C49.3953 267.139 49.0807 267.485 48.878 267.912H47.582L48.526 261.8H54.43V262.968H49.566L48.926 266.392C49.1927 266.083 49.55 265.832 49.998 265.64C50.446 265.437 50.9633 265.336 51.55 265.336C52.094 265.336 52.59 265.437 53.038 265.64C53.486 265.832 53.87 266.104 54.19 266.456C54.5207 266.808 54.7713 267.219 54.942 267.688C55.1127 268.157 55.198 268.669 55.198 269.224C55.198 269.757 55.1127 270.264 54.942 270.744C54.7713 271.224 54.5153 271.651 54.174 272.024C53.8433 272.387 53.438 272.675 52.958 272.888C52.4887 273.091 51.9447 273.192 51.326 273.192ZM62.1265 273.192C61.4225 273.192 60.8198 273.053 60.3185 272.776C59.8172 272.499 59.4172 272.131 59.1185 271.672C58.8305 271.203 58.6492 270.696 58.5745 270.152H59.8225C59.9398 270.749 60.2012 271.213 60.6065 271.544C61.0118 271.864 61.5238 272.024 62.1425 272.024C62.7078 272.024 63.2092 271.853 63.6465 271.512C64.0838 271.171 64.4358 270.648 64.7025 269.944C64.9798 269.24 65.1345 268.349 65.1665 267.272C65.1665 267.251 65.1665 267.224 65.1665 267.192C65.1665 267.16 65.1665 267.128 65.1665 267.096C64.9958 267.437 64.7558 267.752 64.4465 268.04C64.1478 268.317 63.7852 268.541 63.3585 268.712C62.9425 268.883 62.4678 268.968 61.9345 268.968C61.3052 268.968 60.7078 268.819 60.1425 268.52C59.5878 268.221 59.1345 267.805 58.7825 267.272C58.4412 266.728 58.2705 266.093 58.2705 265.368C58.2705 264.739 58.4252 264.136 58.7345 263.56C59.0438 262.984 59.4865 262.515 60.0625 262.152C60.6385 261.789 61.3212 261.608 62.1105 261.608C62.9212 261.608 63.6038 261.763 64.1585 262.072C64.7132 262.371 65.1558 262.776 65.4865 263.288C65.8172 263.8 66.0572 264.376 66.2065 265.016C66.3665 265.645 66.4465 266.291 66.4465 266.952C66.4465 268.179 66.2758 269.261 65.9345 270.2C65.5932 271.139 65.1025 271.875 64.4625 272.408C63.8225 272.931 63.0438 273.192 62.1265 273.192ZM62.2065 267.8C62.7078 267.8 63.1505 267.688 63.5345 267.464C63.9292 267.229 64.2438 266.925 64.4785 266.552C64.7132 266.168 64.8305 265.747 64.8305 265.288C64.8305 264.808 64.7132 264.381 64.4785 264.008C64.2438 263.624 63.9292 263.325 63.5345 263.112C63.1505 262.899 62.7078 262.792 62.2065 262.792C61.7158 262.792 61.2732 262.904 60.8785 263.128C60.4945 263.341 60.1905 263.635 59.9665 264.008C59.7425 264.381 59.6305 264.813 59.6305 265.304C59.6305 265.805 59.7425 266.243 59.9665 266.616C60.1905 266.989 60.4945 267.283 60.8785 267.496C61.2732 267.699 61.7158 267.8 62.2065 267.8ZM73.901 273.192C73.1437 273.192 72.4823 273.053 71.917 272.776C71.3517 272.499 70.9037 272.12 70.573 271.64C70.253 271.16 70.0503 270.616 69.965 270.008H71.277C71.405 270.616 71.6983 271.107 72.157 271.48C72.6157 271.853 73.2023 272.04 73.917 272.04C74.4503 272.04 74.9037 271.917 75.277 271.672C75.661 271.416 75.9543 271.08 76.157 270.664C76.3703 270.237 76.477 269.763 76.477 269.24C76.477 268.685 76.3703 268.205 76.157 267.8C75.9543 267.384 75.661 267.059 75.277 266.824C74.9037 266.589 74.4717 266.472 73.981 266.472C73.3623 266.472 72.8343 266.605 72.397 266.872C71.9703 267.139 71.6557 267.485 71.453 267.912H70.157L71.101 261.8H77.005V262.968H72.141L71.501 266.392C71.7677 266.083 72.125 265.832 72.573 265.64C73.021 265.437 73.5383 265.336 74.125 265.336C74.669 265.336 75.165 265.437 75.613 265.64C76.061 265.832 76.445 266.104 76.765 266.456C77.0957 266.808 77.3463 267.219 77.517 267.688C77.6877 268.157 77.773 268.669 77.773 269.224C77.773 269.757 77.6877 270.264 77.517 270.744C77.3463 271.224 77.0903 271.651 76.749 272.024C76.4183 272.387 76.013 272.675 75.533 272.888C75.0637 273.091 74.5197 273.192 73.901 273.192ZM81.0486 273V272.056C81.8166 271.459 82.542 270.856 83.2246 270.248C83.9073 269.64 84.5153 269.037 85.0486 268.44C85.582 267.832 85.998 267.24 86.2966 266.664C86.606 266.088 86.7606 265.533 86.7606 265C86.7606 264.605 86.6913 264.243 86.5526 263.912C86.414 263.571 86.1953 263.293 85.8966 263.08C85.598 262.867 85.1873 262.76 84.6646 262.76C84.174 262.76 83.758 262.872 83.4166 263.096C83.086 263.309 82.8353 263.597 82.6646 263.96C82.5046 264.312 82.4246 264.701 82.4246 265.128H81.1286C81.1393 264.392 81.2993 263.763 81.6086 263.24C81.918 262.707 82.3393 262.301 82.8726 262.024C83.406 261.747 84.0086 261.608 84.6806 261.608C85.3526 261.608 85.9446 261.736 86.4566 261.992C86.9686 262.237 87.3686 262.605 87.6566 263.096C87.9553 263.587 88.1046 264.205 88.1046 264.952C88.1046 265.475 87.998 265.997 87.7846 266.52C87.5713 267.043 87.2833 267.555 86.9206 268.056C86.558 268.547 86.1526 269.021 85.7046 269.48C85.2673 269.939 84.814 270.371 84.3446 270.776C83.886 271.181 83.4486 271.549 83.0326 271.88H88.4886V273H81.0486ZM95.8198 273.192C95.0624 273.192 94.4011 273.053 93.8358 272.776C93.2704 272.499 92.8224 272.12 92.4918 271.64C92.1718 271.16 91.9691 270.616 91.8838 270.008H93.1957C93.3238 270.616 93.6171 271.107 94.0758 271.48C94.5344 271.853 95.1211 272.04 95.8358 272.04C96.3691 272.04 96.8224 271.917 97.1958 271.672C97.5798 271.416 97.8731 271.08 98.0758 270.664C98.2891 270.237 98.3958 269.763 98.3958 269.24C98.3958 268.685 98.2891 268.205 98.0758 267.8C97.8731 267.384 97.5798 267.059 97.1958 266.824C96.8224 266.589 96.3904 266.472 95.8998 266.472C95.2811 266.472 94.7531 266.605 94.3158 266.872C93.8891 267.139 93.5744 267.485 93.3718 267.912H92.0758L93.0198 261.8H98.9237V262.968H94.0598L93.4198 266.392C93.6864 266.083 94.0438 265.832 94.4918 265.64C94.9398 265.437 95.4571 265.336 96.0438 265.336C96.5878 265.336 97.0838 265.437 97.5318 265.64C97.9798 265.832 98.3638 266.104 98.6838 266.456C99.0144 266.808 99.2651 267.219 99.4358 267.688C99.6064 268.157 99.6918 268.669 99.6918 269.224C99.6918 269.757 99.6064 270.264 99.4358 270.744C99.2651 271.224 99.0091 271.651 98.6678 272.024C98.3371 272.387 97.9318 272.675 97.4518 272.888C96.9824 273.091 96.4384 273.192 95.8198 273.192ZM108.497 273V270.6H102.817V269.56L108.257 261.8H109.825V269.416H111.489V270.6H109.825V273H108.497ZM104.305 269.416H108.561V263.288L104.305 269.416ZM118.408 273.192C117.682 273.192 117.026 273.059 116.44 272.792C115.864 272.515 115.405 272.136 115.064 271.656C114.733 271.165 114.568 270.6 114.568 269.96C114.568 269.501 114.658 269.075 114.84 268.68C115.021 268.285 115.272 267.944 115.592 267.656C115.922 267.357 116.301 267.149 116.728 267.032C116.13 266.819 115.666 266.488 115.336 266.04C115.016 265.592 114.856 265.107 114.856 264.584C114.856 264.029 114.994 263.528 115.272 263.08C115.56 262.632 115.97 262.275 116.504 262.008C117.037 261.741 117.672 261.608 118.408 261.608C119.154 261.608 119.789 261.741 120.312 262.008C120.845 262.275 121.256 262.632 121.544 263.08C121.832 263.528 121.976 264.029 121.976 264.584C121.976 265.107 121.81 265.592 121.48 266.04C121.16 266.488 120.696 266.819 120.088 267.032C120.536 267.149 120.92 267.357 121.24 267.656C121.56 267.944 121.81 268.285 121.992 268.68C122.173 269.075 122.264 269.501 122.264 269.96C122.264 270.6 122.093 271.165 121.752 271.656C121.41 272.136 120.952 272.515 120.376 272.792C119.8 273.059 119.144 273.192 118.408 273.192ZM118.408 272.008C119.25 272.008 119.88 271.816 120.296 271.432C120.712 271.037 120.92 270.52 120.92 269.88C120.92 269.155 120.69 268.605 120.232 268.232C119.784 267.859 119.176 267.672 118.408 267.672C117.65 267.672 117.042 267.859 116.584 268.232C116.136 268.605 115.912 269.155 115.912 269.88C115.912 270.52 116.12 271.037 116.536 271.432C116.952 271.816 117.576 272.008 118.408 272.008ZM118.408 266.552C119.09 266.552 119.629 266.376 120.024 266.024C120.418 265.672 120.616 265.219 120.616 264.664C120.616 264.035 120.418 263.56 120.024 263.24C119.64 262.92 119.101 262.76 118.408 262.76C117.736 262.76 117.202 262.92 116.808 263.24C116.424 263.56 116.232 264.035 116.232 264.664C116.232 265.219 116.424 265.672 116.808 266.024C117.202 266.376 117.736 266.552 118.408 266.552ZM127.753 267.24L127.945 264.792L125.961 266.184L125.401 265.208L127.625 264.232L125.417 263.272L125.945 262.328L127.961 263.72L127.737 261.272H128.825L128.585 263.72L130.585 262.328L131.097 263.256L128.889 264.248L131.113 265.224L130.585 266.168L128.585 264.792L128.809 267.24H127.753ZM137.01 267.24L137.202 264.792L135.218 266.184L134.658 265.208L136.882 264.232L134.674 263.272L135.202 262.328L137.218 263.72L136.994 261.272H138.082L137.842 263.72L139.842 262.328L140.354 263.256L138.146 264.248L140.37 265.224L139.842 266.168L137.842 264.792L138.066 267.24H137.01ZM146.266 267.24L146.458 264.792L144.474 266.184L143.914 265.208L146.138 264.232L143.93 263.272L144.458 262.328L146.474 263.72L146.25 261.272H147.338L147.098 263.72L149.098 262.328L149.61 263.256L147.402 264.248L149.626 265.224L149.098 266.168L147.098 264.792L147.322 267.24H146.266ZM155.522 267.24L155.714 264.792L153.73 266.184L153.17 265.208L155.394 264.232L153.186 263.272L153.714 262.328L155.73 263.72L155.506 261.272H156.594L156.354 263.72L158.354 262.328L158.866 263.256L156.658 264.248L158.882 265.224L158.354 266.168L156.354 264.792L156.578 267.24H155.522Z" fill="#262626"/>
<path d="M39.044 297.144C38.324 297.144 37.704 296.964 37.184 296.604C36.672 296.236 36.276 295.728 35.996 295.08C35.716 294.424 35.576 293.664 35.576 292.8C35.576 291.936 35.716 291.18 35.996 290.532C36.276 289.876 36.672 289.368 37.184 289.008C37.704 288.64 38.324 288.456 39.044 288.456C39.764 288.456 40.38 288.64 40.892 289.008C41.404 289.368 41.8 289.876 42.08 290.532C42.36 291.18 42.5 291.936 42.5 292.8C42.5 293.664 42.36 294.424 42.08 295.08C41.8 295.728 41.404 296.236 40.892 296.604C40.38 296.964 39.764 297.144 39.044 297.144ZM39.044 296.256C39.508 296.256 39.92 296.12 40.28 295.848C40.648 295.568 40.936 295.172 41.144 294.66C41.36 294.14 41.468 293.52 41.468 292.8C41.468 292.072 41.36 291.452 41.144 290.94C40.936 290.428 40.648 290.036 40.28 289.764C39.92 289.492 39.508 289.356 39.044 289.356C38.58 289.356 38.16 289.492 37.784 289.764C37.416 290.036 37.128 290.428 36.92 290.94C36.712 291.452 36.608 292.072 36.608 292.8C36.608 293.52 36.712 294.14 36.92 294.66C37.128 295.172 37.416 295.568 37.784 295.848C38.16 296.12 38.58 296.256 39.044 296.256ZM46.9262 297.144C46.4062 297.144 45.9542 297.044 45.5702 296.844C45.1942 296.636 44.8942 296.36 44.6702 296.016C44.4542 295.672 44.3222 295.296 44.2742 294.888H45.2102C45.2902 295.328 45.4822 295.668 45.7862 295.908C46.0902 296.148 46.4742 296.268 46.9382 296.268C47.3622 296.268 47.7342 296.144 48.0542 295.896C48.3822 295.64 48.6462 295.252 48.8462 294.732C49.0462 294.212 49.1622 293.556 49.1942 292.764C49.1942 292.724 49.1942 292.692 49.1942 292.668C49.1942 292.636 49.1942 292.6 49.1942 292.56C49.0822 292.816 48.9102 293.052 48.6782 293.268C48.4542 293.476 48.1822 293.648 47.8622 293.784C47.5502 293.912 47.1942 293.976 46.7942 293.976C46.3302 293.976 45.8902 293.864 45.4742 293.64C45.0582 293.416 44.7222 293.104 44.4662 292.704C44.2102 292.296 44.0822 291.82 44.0822 291.276C44.0822 290.804 44.1982 290.352 44.4302 289.92C44.6622 289.488 44.9902 289.136 45.4142 288.864C45.8382 288.592 46.3422 288.456 46.9262 288.456C47.5342 288.456 48.0422 288.568 48.4502 288.792C48.8662 289.016 49.1982 289.32 49.4462 289.704C49.6942 290.088 49.8742 290.52 49.9862 291C50.0982 291.472 50.1542 291.96 50.1542 292.464C50.1542 293.384 50.0262 294.196 49.7702 294.9C49.5222 295.604 49.1582 296.156 48.6782 296.556C48.1982 296.948 47.6142 297.144 46.9262 297.144ZM46.9982 293.1C47.3662 293.1 47.6982 293.016 47.9942 292.848C48.2902 292.68 48.5222 292.456 48.6902 292.176C48.8582 291.888 48.9422 291.568 48.9422 291.216C48.9422 290.848 48.8582 290.524 48.6902 290.244C48.5222 289.956 48.2902 289.736 47.9942 289.584C47.6982 289.424 47.3662 289.344 46.9982 289.344C46.6382 289.344 46.3142 289.424 46.0262 289.584C45.7462 289.744 45.5222 289.964 45.3542 290.244C45.1862 290.524 45.1022 290.852 45.1022 291.228C45.1022 291.604 45.1862 291.932 45.3542 292.212C45.5222 292.492 45.7462 292.712 46.0262 292.872C46.3142 293.024 46.6382 293.1 46.9982 293.1ZM50.828 298.14L53.84 287.832H54.836L51.824 298.14H50.828ZM56.1872 297V296.292C56.7712 295.844 57.3232 295.392 57.8432 294.936C58.3632 294.48 58.8232 294.028 59.2232 293.58C59.6232 293.124 59.9392 292.68 60.1712 292.248C60.4032 291.816 60.5192 291.4 60.5192 291C60.5192 290.704 60.4632 290.432 60.3512 290.184C60.2472 289.928 60.0792 289.72 59.8472 289.56C59.6232 289.4 59.3152 289.32 58.9232 289.32C58.5472 289.32 58.2312 289.404 57.9752 289.572C57.7272 289.732 57.5392 289.948 57.4112 290.22C57.2832 290.484 57.2192 290.776 57.2192 291.096H56.2472C56.2552 290.544 56.3752 290.072 56.6072 289.68C56.8392 289.28 57.1552 288.976 57.5552 288.768C57.9632 288.56 58.4232 288.456 58.9352 288.456C59.4392 288.456 59.8832 288.552 60.2672 288.744C60.6592 288.928 60.9672 289.208 61.1912 289.584C61.4152 289.952 61.5272 290.412 61.5272 290.964C61.5272 291.356 61.4432 291.748 61.2752 292.14C61.1152 292.532 60.8952 292.916 60.6152 293.292C60.3432 293.66 60.0392 294.016 59.7032 294.36C59.3672 294.704 59.0232 295.028 58.6712 295.332C58.3192 295.636 57.9872 295.912 57.6752 296.16H61.8152V297H56.1872ZM66.3519 297.144C65.7839 297.144 65.2919 297.044 64.8759 296.844C64.4599 296.636 64.1279 296.356 63.8799 296.004C63.6399 295.652 63.4919 295.252 63.4359 294.804H64.4199C64.5079 295.244 64.7199 295.6 65.0559 295.872C65.3919 296.144 65.8279 296.28 66.3639 296.28C66.7559 296.28 67.0919 296.188 67.3719 296.004C67.6599 295.82 67.8799 295.572 68.0319 295.26C68.1839 294.94 68.2599 294.584 68.2599 294.192C68.2599 293.784 68.1839 293.428 68.0319 293.124C67.8799 292.82 67.6639 292.584 67.3839 292.416C67.1039 292.24 66.7799 292.152 66.4119 292.152C65.9639 292.152 65.5799 292.248 65.2599 292.44C64.9399 292.624 64.6999 292.864 64.5399 293.16H63.5679L64.2399 288.6H68.7039V289.476H65.0199L64.5519 292.068C64.7519 291.844 65.0199 291.66 65.3559 291.516C65.6919 291.372 66.0799 291.3 66.5199 291.3C66.9279 291.3 67.2959 291.372 67.6239 291.516C67.9599 291.66 68.2479 291.864 68.4879 292.128C68.7279 292.384 68.9119 292.688 69.0399 293.04C69.1679 293.392 69.2319 293.772 69.2319 294.18C69.2319 294.58 69.1639 294.96 69.0279 295.32C68.8999 295.68 68.7119 295.996 68.4639 296.268C68.2239 296.54 67.9239 296.756 67.5639 296.916C67.2119 297.068 66.8079 297.144 66.3519 297.144Z" fill="#737373"/>
<defs>
<clipPath id="bgblur_0_7931_28956_clip_path" transform="translate(-5 -140)"><rect x="15.25" y="150.25" width="323.5" height="171.5" rx="14.75"/>
</clipPath><linearGradient id="paint0_linear_7931_28956" x1="7.52125" y1="10" x2="337.163" y2="151.675" gradientUnits="userSpaceOnUse">
<stop stop-color="#4A4A49"/>
<stop offset="1" stop-color="#20201F"/>
</linearGradient>
<linearGradient id="paint1_linear_7931_28956" x1="68.5" y1="73.5" x2="325.856" y2="504.77" gradientUnits="userSpaceOnUse">
<stop stop-color="#959595"/>
<stop offset="1" stop-color="#324000"/>
</linearGradient>
<linearGradient id="paint2_linear_7931_28956" x1="177" y1="150" x2="177" y2="322" gradientUnits="userSpaceOnUse">
<stop stop-color="white" stop-opacity="0.4"/>
<stop offset="1" stop-color="white" stop-opacity="0.1"/>
</linearGradient>
<linearGradient id="paint3_linear_7931_28956" x1="-48.3046" y1="-1.99999" x2="346.012" y2="336.298" gradientUnits="userSpaceOnUse">
<stop stop-color="white" stop-opacity="0.4"/>
<stop offset="1" stop-color="white" stop-opacity="0.1"/>
</linearGradient>
</defs>
</svg>
