<svg width="124" height="109" viewBox="0 0 124 109" fill="none" xmlns="http://www.w3.org/2000/svg">
<path d="M79.6455 39.483C71.2424 39.5334 62.709 39.1409 54.7271 36.9166C46.7453 34.6924 39.6859 30.4956 33.2683 25.5943C29.0668 22.4039 25.2463 19.8677 19.7914 20.2502C14.4578 20.5315 9.35612 22.5288 5.24146 25.9466C-1.69756 32.0455 -0.644673 43.3175 2.12292 51.2482C6.29435 63.1945 18.9892 71.4875 29.7687 76.892C42.2329 83.142 55.9204 86.7752 69.6481 88.8585C81.681 90.6902 97.1334 92.0288 107.552 84.1383C117.128 76.9021 119.755 60.3564 117.409 49.185C116.838 45.8854 115.087 42.9082 112.486 40.8115C105.757 35.88 95.7296 39.171 88.1688 39.3421C85.4113 39.4025 82.5133 39.473 79.6455 39.483Z" fill="#E5E5E5"/>
<path d="M38.6731 0.424805V4.75245" stroke="#CFCFCF" stroke-width="0.85" stroke-linecap="round" stroke-linejoin="round"/>
<path d="M36.5173 2.58789H40.8292" stroke="#CFCFCF" stroke-width="0.85" stroke-linecap="round" stroke-linejoin="round"/>
<path d="M120.478 86.6855V91.0132" stroke="#CFCFCF" stroke-width="0.85" stroke-linecap="round" stroke-linejoin="round"/>
<path d="M118.321 88.8486H122.633" stroke="#CFCFCF" stroke-width="0.85" stroke-linecap="round" stroke-linejoin="round"/>
<path d="M6.09353 67.996C6.63626 67.996 7.07623 67.5545 7.07623 67.0097C7.07623 66.465 6.63626 66.0234 6.09353 66.0234C5.55081 66.0234 5.11084 66.465 5.11084 67.0097C5.11084 67.5545 5.55081 67.996 6.09353 67.996Z" fill="#CFCFCF"/>
<path d="M89.763 4.89253C90.3057 4.89253 90.7457 4.45094 90.7457 3.90622C90.7457 3.36151 90.3057 2.91992 89.763 2.91992C89.2202 2.91992 88.7803 3.36151 88.7803 3.90622C88.7803 4.45094 89.2202 4.89253 89.763 4.89253Z" fill="#CFCFCF"/>
<path d="M62.5284 108.425C82.853 108.425 99.3293 107.398 99.3293 106.131C99.3293 104.863 82.853 103.836 62.5284 103.836C42.2039 103.836 25.7275 104.863 25.7275 106.131C25.7275 107.398 42.2039 108.425 62.5284 108.425Z" fill="#E5E5E5"/>
<path d="M34.1809 12.1797H87.6274C88.9572 12.1797 90.2324 12.7099 91.1727 13.6536C92.1129 14.5973 92.6412 15.8772 92.6412 17.2118V81.0296C92.6412 82.3642 92.1129 83.6441 91.1727 84.5878C90.2324 85.5315 88.9572 86.0617 87.6274 86.0617H27.3321C26.0024 86.0617 24.7271 85.5315 23.7869 84.5878C22.8466 83.6441 22.3184 82.3642 22.3184 81.0296V24.2065L34.1809 12.1797Z" fill="white" stroke="#BABABA" stroke-linecap="round" stroke-linejoin="round"/>
<path d="M92.4002 43.2773H37.2891V86.6746H92.4002V43.2773Z" fill="#D2D2D2"/>
<path d="M22.3184 24.2065H32.035C32.605 24.2039 33.1508 23.9747 33.553 23.5692C33.9551 23.1637 34.1809 22.6148 34.1809 22.0427V12.1797L22.3184 24.2065Z" fill="white" stroke="#BABABA" stroke-linecap="round" stroke-linejoin="round"/>
<path d="M92.1293 29.4199H37.6198C35.4988 29.4199 33.7793 31.1457 33.7793 33.2745V44.9793C33.7793 47.1082 35.4988 48.834 37.6198 48.834H92.1293C94.2504 48.834 95.9698 47.1082 95.9698 44.9793V33.2745C95.9698 31.1457 94.2504 29.4199 92.1293 29.4199Z" fill="white" stroke="#BABABA" stroke-linecap="round" stroke-linejoin="round"/>
<path d="M44.3687 42.513C46.2184 42.513 47.7179 41.008 47.7179 39.1515C47.7179 37.295 46.2184 35.79 44.3687 35.79C42.519 35.79 41.0195 37.295 41.0195 39.1515C41.0195 41.008 42.519 42.513 44.3687 42.513Z" fill="#D2D2D2"/>
<path d="M54.8975 42.513C56.7472 42.513 58.2467 41.008 58.2467 39.1515C58.2467 37.295 56.7472 35.79 54.8975 35.79C53.0478 35.79 51.5483 37.295 51.5483 39.1515C51.5483 41.008 53.0478 42.513 54.8975 42.513Z" fill="#D2D2D2"/>
<path d="M65.4166 42.513C67.2663 42.513 68.7657 41.008 68.7657 39.1515C68.7657 37.295 67.2663 35.79 65.4166 35.79C63.5669 35.79 62.0674 37.295 62.0674 39.1515C62.0674 41.008 63.5669 42.513 65.4166 42.513Z" fill="#D2D2D2"/>
<path d="M92.1293 50.9365H37.6198C35.4988 50.9365 33.7793 52.6623 33.7793 54.7912V66.4959C33.7793 68.6248 35.4988 70.3506 37.6198 70.3506H92.1293C94.2504 70.3506 95.9698 68.6248 95.9698 66.4959V54.7912C95.9698 52.6623 94.2504 50.9365 92.1293 50.9365Z" fill="white" stroke="#BABABA" stroke-linecap="round" stroke-linejoin="round"/>
<path d="M44.3687 64.0403C46.2184 64.0403 47.7179 62.5353 47.7179 60.6789C47.7179 58.8224 46.2184 57.3174 44.3687 57.3174C42.519 57.3174 41.0195 58.8224 41.0195 60.6789C41.0195 62.5353 42.519 64.0403 44.3687 64.0403Z" fill="#D2D2D2"/>
<path d="M54.8975 64.0403C56.7472 64.0403 58.2467 62.5353 58.2467 60.6789C58.2467 58.8224 56.7472 57.3174 54.8975 57.3174C53.0478 57.3174 51.5483 58.8224 51.5483 60.6789C51.5483 62.5353 53.0478 64.0403 54.8975 64.0403Z" fill="#D2D2D2"/>
<path d="M65.4166 64.0403C67.2663 64.0403 68.7657 62.5353 68.7657 60.6789C68.7657 58.8224 67.2663 57.3174 65.4166 57.3174C63.5669 57.3174 62.0674 58.8224 62.0674 60.6789C62.0674 62.5353 63.5669 64.0403 65.4166 64.0403Z" fill="#D2D2D2"/>
<path d="M92.1293 72.4639H37.6198C35.4988 72.4639 33.7793 74.1896 33.7793 76.3185V88.0233C33.7793 90.1521 35.4988 91.8779 37.6198 91.8779H92.1293C94.2504 91.8779 95.9698 90.1521 95.9698 88.0233V76.3185C95.9698 74.1896 94.2504 72.4639 92.1293 72.4639Z" fill="white" stroke="#BABABA" stroke-linecap="round" stroke-linejoin="round"/>
<path d="M44.3687 85.5579C46.2184 85.5579 47.7179 84.0529 47.7179 82.1964C47.7179 80.3399 46.2184 78.835 44.3687 78.835C42.519 78.835 41.0195 80.3399 41.0195 82.1964C41.0195 84.0529 42.519 85.5579 44.3687 85.5579Z" fill="#D2D2D2"/>
<path d="M54.8975 85.5579C56.7472 85.5579 58.2467 84.0529 58.2467 82.1964C58.2467 80.3399 56.7472 78.835 54.8975 78.835C53.0478 78.835 51.5483 80.3399 51.5483 82.1964C51.5483 84.0529 53.0478 85.5579 54.8975 85.5579Z" fill="#D2D2D2"/>
<path d="M65.4166 85.5579C67.2663 85.5579 68.7657 84.0529 68.7657 82.1964C68.7657 80.3399 67.2663 78.835 65.4166 78.835C63.5669 78.835 62.0674 80.3399 62.0674 82.1964C62.0674 84.0529 63.5669 85.5579 65.4166 85.5579Z" fill="#D2D2D2"/>
</svg>
