<svg width="22" height="22" viewBox="0 0 22 22" fill="none" xmlns="http://www.w3.org/2000/svg">
<path d="M8.77232 17.2517C8.59816 17.2517 8.42399 17.1875 8.28649 17.05L2.72232 11.4858C2.45649 11.22 2.45649 10.78 2.72232 10.5142L8.28649 4.94999C8.55232 4.68415 8.99232 4.68415 9.25816 4.94999C9.52399 5.21582 9.52399 5.65582 9.25816 5.92165L4.17982 11L9.25816 16.0783C9.52399 16.3442 9.52399 16.7842 9.25816 17.05C9.12982 17.1875 8.94649 17.2517 8.77232 17.2517Z" fill="currentColor"/>
<path d="M18.7918 11.6875H3.36426C2.98842 11.6875 2.67676 11.3758 2.67676 11C2.67676 10.6242 2.98842 10.3125 3.36426 10.3125H18.7918C19.1676 10.3125 19.4793 10.6242 19.4793 11C19.4793 11.3758 19.1676 11.6875 18.7918 11.6875Z" fill="currentColor"/>
</svg>
