<svg width="22" height="22" viewBox="0 0 22 22" fill="none" xmlns="http://www.w3.org/2000/svg">
<path d="M13.2274 17.2515C13.0533 17.2515 12.8791 17.1874 12.7416 17.0499C12.4758 16.784 12.4758 16.344 12.7416 16.0782L17.8199 10.9999L12.7416 5.92153C12.4758 5.6557 12.4758 5.2157 12.7416 4.94986C13.0074 4.68403 13.4474 4.68403 13.7133 4.94986L19.2774 10.514C19.5433 10.7799 19.5433 11.2199 19.2774 11.4857L13.7133 17.0499C13.5758 17.1874 13.4016 17.2515 13.2274 17.2515Z" fill="white"/>
<path d="M18.6359 11.6875H3.20837C2.83254 11.6875 2.52087 11.3758 2.52087 11C2.52087 10.6242 2.83254 10.3125 3.20837 10.3125H18.6359C19.0117 10.3125 19.3234 10.6242 19.3234 11C19.3234 11.3758 19.0117 11.6875 18.6359 11.6875Z" fill="white"/>
</svg>
