<svg width="64" height="64" viewBox="0 0 64 64" fill="none" xmlns="http://www.w3.org/2000/svg">
<rect x="1.31818" y="1.31806" width="60.6304" height="60.6304" rx="12.3646" fill="url(#paint0_linear_7773_37561)"/>
<rect x="1.31818" y="1.31806" width="60.6304" height="60.6304" rx="12.3646" stroke="white" stroke-width="2.6361"/>
<path d="M38.9916 30.559C38.4639 30.559 38.0465 30.1295 38.0465 29.614C38.0465 29.1598 37.5924 28.2147 36.8314 27.3924C36.0827 26.5946 35.2604 26.1282 34.573 26.1282C34.0452 26.1282 33.6279 25.6986 33.6279 25.1831C33.6279 24.6676 34.0575 24.238 34.573 24.238C35.8004 24.238 37.0892 24.9008 38.2184 26.0913C39.2739 27.2083 39.949 28.5952 39.949 29.6017C39.949 30.1295 39.5194 30.559 38.9916 30.559Z" fill="#262626"/>
<path d="M43.4225 30.559C42.8947 30.559 42.4774 30.1294 42.4774 29.6139C42.4774 25.2567 38.9302 21.7218 34.5852 21.7218C34.0574 21.7218 33.6401 21.2922 33.6401 20.7767C33.6401 20.2612 34.0575 19.8193 34.573 19.8193C39.9735 19.8193 44.3675 24.2134 44.3675 29.6139C44.3675 30.1294 43.938 30.559 43.4225 30.559Z" fill="#262626"/>
<path opacity="0.4" d="M31.8355 34.8058L27.8219 38.8194C27.3801 38.4266 26.9505 38.0216 26.5332 37.6042C25.269 36.3278 24.1275 34.9899 23.1087 33.5907C22.1023 32.1914 21.2922 30.7922 20.7031 29.4053C20.1139 28.006 19.8193 26.6682 19.8193 25.3917C19.8193 24.5571 19.9666 23.7593 20.2612 23.0228C20.5558 22.2741 21.0222 21.5868 21.6727 20.9731C22.4582 20.1998 23.3174 19.8193 24.2257 19.8193C24.5693 19.8193 24.913 19.893 25.2199 20.0403C25.539 20.1876 25.8213 20.4085 26.0422 20.7276L28.8898 24.7412C29.1107 25.048 29.2703 25.3303 29.3807 25.6004C29.4912 25.8581 29.5526 26.1159 29.5526 26.3491C29.5526 26.6436 29.4666 26.9382 29.2948 27.2205C29.1352 27.5028 28.902 27.7974 28.6075 28.092L27.6746 29.0616C27.5396 29.1966 27.4783 29.3562 27.4783 29.5526C27.4783 29.6507 27.4905 29.7367 27.5151 29.8349C27.5519 29.933 27.5887 30.0067 27.6133 30.0803C27.8342 30.4854 28.2147 31.0132 28.7547 31.6514C29.3071 32.2896 29.8962 32.9402 30.5345 33.5907C30.9763 34.0203 31.4059 34.4376 31.8355 34.8058Z" fill="#262626"/>
<path d="M44.3308 39.8627C44.3308 40.2063 44.2694 40.5623 44.1467 40.906C44.1099 41.0042 44.073 41.1023 44.0239 41.2005C43.8153 41.6424 43.5453 42.0597 43.1893 42.4525C42.5879 43.1153 41.9251 43.594 41.1764 43.9008C41.1641 43.9008 41.1518 43.9131 41.1396 43.9131C40.4154 44.2076 39.6299 44.3672 38.783 44.3672C37.531 44.3672 36.1932 44.0726 34.7817 43.4712C33.3702 42.8698 31.9587 42.0597 30.5594 41.041C30.0808 40.685 29.6021 40.3291 29.1479 39.9486L33.1615 35.935C33.5052 36.1928 33.812 36.3892 34.0698 36.5242C34.1312 36.5487 34.2048 36.5855 34.2907 36.6224C34.3889 36.6592 34.4871 36.6715 34.5976 36.6715C34.8062 36.6715 34.9658 36.5978 35.1008 36.4628L36.0336 35.5423C36.3405 35.2354 36.635 35.0022 36.9173 34.8549C37.1996 34.6831 37.4819 34.5972 37.7888 34.5972C38.022 34.5972 38.2675 34.6463 38.5375 34.7567C38.8075 34.8672 39.0898 35.0268 39.3967 35.2354L43.4593 38.1198C43.7785 38.3407 43.9994 38.5985 44.1344 38.9053C44.2571 39.2122 44.3308 39.519 44.3308 39.8627Z" fill="#262626"/>
<defs>
<linearGradient id="paint0_linear_7773_37561" x1="31.6334" y1="2.63611" x2="31.6334" y2="60.6304" gradientUnits="userSpaceOnUse">
<stop stop-color="#CFC6F8"/>
<stop offset="1" stop-color="#CFC6F8" stop-opacity="0"/>
</linearGradient>
</defs>
</svg>
