<svg width="22" height="22" viewBox="0 0 22 22" fill="none" xmlns="http://www.w3.org/2000/svg">
<path opacity="0.4" d="M10.8074 13.0258L7.80992 16.0233C7.47992 15.73 7.15909 15.4275 6.84742 15.1158C5.90325 14.1625 5.05075 13.1633 4.28992 12.1183C3.53825 11.0733 2.93325 10.0283 2.49325 8.99251C2.05325 7.94751 1.83325 6.94834 1.83325 5.99501C1.83325 5.37168 1.94325 4.77584 2.16325 4.22584C2.38325 3.66668 2.73159 3.15334 3.21742 2.69501C3.80409 2.11751 4.44575 1.83334 5.12409 1.83334C5.38075 1.83334 5.63742 1.88834 5.86659 1.99834C6.10492 2.10834 6.31575 2.27334 6.48075 2.51168L8.60742 5.50918C8.77242 5.73834 8.89159 5.94918 8.97409 6.15084C9.05659 6.34334 9.10242 6.53584 9.10242 6.71001C9.10242 6.93001 9.03825 7.15001 8.90992 7.36084C8.79075 7.57168 8.61659 7.79168 8.39659 8.01168L7.69992 8.73584C7.59909 8.83668 7.55325 8.95584 7.55325 9.10251C7.55325 9.17584 7.56242 9.24001 7.58075 9.31334C7.60825 9.38668 7.63575 9.44168 7.65409 9.49668C7.81909 9.79918 8.10325 10.1933 8.50659 10.67C8.91909 11.1467 9.35909 11.6325 9.83575 12.1183C10.1658 12.4392 10.4866 12.7508 10.8074 13.0258Z" fill="#D4D4D4"/>
<path d="M20.1392 16.8025C20.1392 17.0592 20.0934 17.325 20.0017 17.5817C19.9742 17.655 19.9467 17.7283 19.91 17.8017C19.7542 18.1317 19.5525 18.4433 19.2867 18.7367C18.8375 19.2317 18.3425 19.5892 17.7834 19.8183C17.7742 19.8183 17.765 19.8275 17.7559 19.8275C17.215 20.0475 16.6284 20.1667 15.9959 20.1667C15.0609 20.1667 14.0617 19.9467 13.0075 19.4975C11.9534 19.0483 10.8992 18.4433 9.85422 17.6825C9.49672 17.4167 9.13922 17.1508 8.80005 16.8667L11.7975 13.8692C12.0542 14.0617 12.2834 14.2083 12.4759 14.3092C12.5217 14.3275 12.5767 14.355 12.6409 14.3825C12.7142 14.41 12.7875 14.4192 12.87 14.4192C13.0259 14.4192 13.145 14.3642 13.2459 14.2633L13.9425 13.5758C14.1717 13.3467 14.3917 13.1725 14.6025 13.0625C14.8134 12.9342 15.0242 12.87 15.2534 12.87C15.4275 12.87 15.6109 12.9067 15.8125 12.9892C16.0142 13.0717 16.225 13.1908 16.4542 13.3467L19.4884 15.5008C19.7267 15.6658 19.8917 15.8583 19.9925 16.0875C20.0842 16.3167 20.1392 16.5458 20.1392 16.8025Z" fill="#D4D4D4"/>
</svg>
