<svg width="28" height="28" viewBox="0 0 28 28" fill="none" xmlns="http://www.w3.org/2000/svg">
<path opacity="0.4" d="M25.6687 14.2283C25.4937 12.3033 24.9803 10.25 21.2353 10.25H6.34868C2.60368 10.25 2.10201 12.3033 1.91534 14.2283L1.26201 21.3333C1.18034 22.22 1.47201 23.1067 2.07868 23.7717C2.69701 24.4483 3.57201 24.8333 4.50534 24.8333H6.69868C8.58868 24.8333 8.95035 23.7483 9.18368 23.0367L9.41701 22.3367C9.68534 21.5317 9.75534 21.3333 10.8053 21.3333H16.7787C17.8287 21.3333 17.8637 21.45 18.167 22.3367L18.4003 23.0367C18.6337 23.7483 18.9953 24.8333 20.8853 24.8333H23.0787C24.0003 24.8333 24.887 24.4483 25.5053 23.7717C26.112 23.1067 26.4037 22.22 26.322 21.3333L25.6687 14.2283Z" fill="#737373"/>
<path d="M24.125 8.11175H22.9583C22.9467 8.11175 22.9467 8.11175 22.935 8.11175L22.4917 6.00008C22.0717 3.95841 21.1967 2.08008 17.72 2.08008H14.5H12.75H9.53C6.05333 2.08008 5.17833 3.95841 4.75833 6.00008L4.315 8.11175C4.30333 8.11175 4.30333 8.11175 4.29167 8.11175H3.125C2.64667 8.11175 2.25 8.50841 2.25 8.98675C2.25 9.46508 2.64667 9.86175 3.125 9.86175H3.95333L3.46333 12.1951C4.09333 11.8334 4.96833 11.6117 6.18167 11.6117H21.0683C22.2817 11.6117 23.1567 11.8334 23.7867 12.1951L23.2967 9.86175H24.125C24.6033 9.86175 25 9.46508 25 8.98675C25 8.50841 24.6033 8.11175 24.125 8.11175Z" fill="#737373"/>
<path d="M9.625 16H6.125C5.64667 16 5.25 15.6033 5.25 15.125C5.25 14.6467 5.64667 14.25 6.125 14.25H9.625C10.1033 14.25 10.5 14.6467 10.5 15.125C10.5 15.6033 10.1033 16 9.625 16Z" fill="#737373"/>
<path d="M18.625 16H15.125C14.6467 16 14.25 15.6033 14.25 15.125C14.25 14.6467 14.6467 14.25 15.125 14.25H18.625C19.1033 14.25 19.5 14.6467 19.5 15.125C19.5 15.6033 19.1033 16 18.625 16Z" fill="#737373"/>
</svg>
