<svg width="114" height="128" viewBox="0 0 114 128" fill="none" xmlns="http://www.w3.org/2000/svg">
<g filter="url(#filter0_d_8433_16820)">
<path opacity="0.4" d="M140.274 93.5502L125.683 118.824C116.956 133.939 104.579 135.43 91.6232 127.95L48.4865 103.045C46.2781 101.77 44.2811 100.356 42.5731 98.7805C41.4595 97.8759 40.4801 96.8524 39.6271 95.8364C33.8526 88.8382 33.0702 79.8801 39.3602 68.9855L53.9519 43.7119C62.6786 28.5968 75.0556 27.1058 88.0113 34.5858L131.148 59.4908C142.141 65.8375 147.35 75.0612 143.312 86.9288C142.522 89.0901 141.606 91.2437 140.274 93.5502Z" fill="#EAE8FF"/>
<path d="M146.497 116.773L131.905 142.046C123.178 157.161 110.801 158.652 97.8455 151.172L54.7088 126.267C51.0772 124.171 48.0725 121.782 45.8495 119.059C41.2562 113.528 39.8595 106.767 42.5729 98.7806C44.2809 100.356 46.278 101.77 48.4863 103.045L91.6231 127.95C104.579 135.43 116.956 133.939 125.683 118.824L140.274 93.5503C141.606 91.2437 142.6 89.0694 143.312 86.9289C151.503 94.2752 153.693 104.308 146.497 116.773Z" fill="#9A85FF"/>
<path d="M97.0084 68.7558C103.925 72.7488 106.294 81.5923 102.301 88.5084C98.3081 95.4246 89.4646 97.7942 82.5485 93.8012C75.6324 89.8081 73.2628 80.9646 77.2558 74.0485C81.2488 67.1325 90.0924 64.7629 97.0084 68.7558Z" fill="#D8D4FF" stroke="#9A85FF"/>
<path d="M67.8327 54.4633C69.6509 55.513 70.2311 57.8092 69.2053 59.5859L60.7053 74.3083C59.6817 76.0812 57.3556 76.7045 55.5827 75.6809C53.8098 74.6573 53.1865 72.3312 54.2101 70.5583L62.7101 55.8359C63.7337 54.063 66.0598 53.4397 67.8327 54.4633Z" fill="#D8D4FF" stroke="#9A85FF"/>
<path d="M123.925 86.8481C125.743 87.8978 126.324 90.194 125.298 91.9706L116.798 106.693C115.774 108.466 113.448 109.089 111.675 108.066C109.902 107.042 109.279 104.716 110.303 102.943L118.803 88.2206C119.826 86.4477 122.152 85.8245 123.925 86.8481Z" fill="#D8D4FF" stroke="#9A85FF"/>
</g>
<defs>
<filter id="filter0_d_8433_16820" x="-26" y="-26" width="235.78" height="235.779" filterUnits="userSpaceOnUse" color-interpolation-filters="sRGB">
<feFlood flood-opacity="0" result="BackgroundImageFix"/>
<feColorMatrix in="SourceAlpha" type="matrix" values="0 0 0 0 0 0 0 0 0 0 0 0 0 0 0 0 0 0 127 0" result="hardAlpha"/>
<feOffset dx="-1" dy="-1"/>
<feGaussianBlur stdDeviation="12.5"/>
<feComposite in2="hardAlpha" operator="out"/>
<feColorMatrix type="matrix" values="0 0 0 0 0.603922 0 0 0 0 0.521569 0 0 0 0 1 0 0 0 0.25 0"/>
<feBlend mode="normal" in2="BackgroundImageFix" result="effect1_dropShadow_8433_16820"/>
<feBlend mode="normal" in="SourceGraphic" in2="effect1_dropShadow_8433_16820" result="shape"/>
</filter>
</defs>
</svg>
