<svg width="113" height="126" viewBox="0 0 113 126" fill="none" xmlns="http://www.w3.org/2000/svg">
<path opacity="0.4" d="M150.464 106.501L129.328 143.11C122.839 154.349 108.47 158.157 97.2318 151.669L39.8143 118.519C28.5762 112.031 24.6899 97.6819 31.1783 86.4438L52.3149 49.834L150.464 106.501Z" fill="#FEF3C7"/>
<path d="M88.2976 34.5439L145.715 67.6938C156.715 74.0448 160.517 88.0884 154.168 99.086L150.281 105.818L52.998 49.6515L56.8847 42.9195C63.2341 31.9219 77.2973 28.1929 88.2976 34.5439Z" fill="#FBBF24" stroke="#FBBF24"/>
<path d="M52.5698 94.726L62.3844 100.392C64.1574 101.416 64.7806 103.742 63.757 105.515C62.7334 107.288 60.4074 107.911 58.6344 106.888L48.8198 101.221C47.0468 100.198 46.4236 97.8715 47.4472 96.0986C48.4708 94.3257 50.7968 93.7024 52.5698 94.726Z" fill="#FDE68A" stroke="#FBBF24"/>
<path d="M74.6535 107.476L94.2837 118.809C96.0564 119.833 96.6798 122.159 95.6563 123.932C94.6328 125.705 92.3066 126.328 90.5337 125.305L70.9035 113.971C69.1306 112.948 68.5073 110.621 69.5309 108.849C70.5545 107.076 72.8806 106.452 74.6535 107.476Z" fill="#FDE68A" stroke="#FBBF24"/>
</svg>
