<svg width="64" height="64" viewBox="0 0 64 64" fill="none" xmlns="http://www.w3.org/2000/svg">
<rect x="1.31818" y="1.31806" width="60.6304" height="60.6304" rx="12.3646" fill="url(#paint0_linear_7773_37567)"/>
<rect x="1.31818" y="1.31806" width="60.6304" height="60.6304" rx="12.3646" stroke="white" stroke-width="2.6361"/>
<path opacity="0.4" d="M38.2302 28.4111C38.2302 33.1611 34.1062 37.0028 29.0248 37.0028L27.8833 38.3775L27.2082 39.1876C26.6314 39.875 25.5267 39.7276 25.1462 38.9053L23.5015 35.2844C21.2677 33.7134 19.8193 31.2218 19.8193 28.4111C19.8193 23.6611 23.9434 19.8193 29.0248 19.8193C32.7315 19.8193 35.935 21.8691 37.371 24.8148C37.9234 25.9072 38.2302 27.1223 38.2302 28.4111Z" fill="#262626"/>
<path d="M44.3672 33.1488C44.3672 35.9595 42.9188 38.4512 40.685 40.0222L39.0403 43.643C38.6598 44.4653 37.5551 44.6249 36.9783 43.9253L35.1617 41.7405C32.1914 41.7405 29.5403 40.4272 27.8833 38.3775L29.0248 37.0028C34.1062 37.0028 38.2302 33.1611 38.2302 28.4111C38.2302 27.1223 37.9234 25.9072 37.371 24.8148C41.3846 25.7354 44.3672 29.1229 44.3672 33.1488Z" fill="#262626"/>
<path d="M32.0936 29.3316H25.9567C25.4534 29.3316 25.0361 28.9143 25.0361 28.4111C25.0361 27.9079 25.4534 27.4905 25.9567 27.4905H32.0936C32.5969 27.4905 33.0142 27.9079 33.0142 28.4111C33.0142 28.9143 32.5969 29.3316 32.0936 29.3316Z" fill="#262626"/>
<defs>
<linearGradient id="paint0_linear_7773_37567" x1="31.6334" y1="2.63611" x2="31.6334" y2="60.6304" gradientUnits="userSpaceOnUse">
<stop stop-color="#F0F9BA"/>
<stop offset="0.994469" stop-color="#F0F9BA" stop-opacity="0"/>
</linearGradient>
</defs>
</svg>
