<svg width="28" height="28" viewBox="0 0 28 28" fill="none" xmlns="http://www.w3.org/2000/svg">
<path opacity="0.5" d="M14.0002 25.6667C20.4435 25.6667 25.6668 20.4434 25.6668 14C25.6668 7.55672 20.4435 2.33337 14.0002 2.33337C7.55684 2.33337 2.3335 7.55672 2.3335 14C2.3335 15.8663 2.77171 17.6303 3.55087 19.1946C3.75792 19.6103 3.82684 20.0855 3.7068 20.5341L3.01193 23.1311C2.71028 24.2585 3.74168 25.2899 4.86907 24.9883L7.46611 24.2934C7.91475 24.1734 8.3899 24.2423 8.80561 24.4493C10.3699 25.2285 12.1339 25.6667 14.0002 25.6667Z" fill="#262626"/>
<path d="M8.75 12.9597C8.75 14.5562 10.2886 16.2312 11.7 17.4319L11.7 17.4319C12.6612 18.2496 13.1418 18.6585 14 18.6585C14.8582 18.6585 15.3388 18.2496 16.3 17.4319C17.7114 16.2313 19.25 14.5562 19.25 12.9597C19.25 9.83634 16.3624 8.67023 14 11.083C11.6376 8.67023 8.75 9.83634 8.75 12.9597Z" fill="#262626"/>
</svg>
