<svg width="28" height="28" viewBox="0 0 28 28" fill="none" xmlns="http://www.w3.org/2000/svg">
<path fill-rule="evenodd" clip-rule="evenodd" d="M18.9527 9.05349L24.9862 3.01996L24.9832 3.01693C23.5981 1.63178 20.974 2.50646 15.7259 4.25584L9.71834 6.25836C5.4826 7.67027 3.36474 8.37622 2.7629 9.41146C2.19036 10.3963 2.19036 11.6126 2.7629 12.5975C3.36473 13.6327 5.4826 14.3386 9.71834 15.7506C10.2433 15.9255 10.8338 15.8006 11.2269 15.4112L17.6502 9.04743C18.0115 8.68941 18.5947 8.69213 18.9527 9.05349Z" fill="#262626"/>
<path opacity="0.5" d="M21.7417 18.2811L23.7442 12.2735C25.4923 7.02923 26.367 4.40517 24.9861 3.01923L18.9526 9.05276C19.3106 9.41412 19.3079 9.99729 18.9465 10.3553L12.627 16.6163C12.1937 17.0455 12.0566 17.7025 12.2495 18.2811C13.6614 22.5168 14.3673 24.6347 15.4026 25.2365C16.3874 25.8091 17.6037 25.8091 18.5886 25.2365C19.6238 24.6347 20.3298 22.5168 21.7417 18.2811Z" fill="#262626"/>
</svg>
