<svg width="40" height="40" viewBox="0 0 40 40" fill="none" xmlns="http://www.w3.org/2000/svg">
<path opacity="0.5" d="M36.6666 19.9586V23.3335C36.6666 28.0475 36.6666 30.4046 35.2021 31.869C33.7377 33.3335 31.3806 33.3335 26.6666 33.3335H13.3333C8.61921 33.3335 6.26218 33.3335 4.79772 31.869C3.33325 30.4046 3.33325 28.0475 3.33325 23.3335V19.9586C3.33325 16.8826 3.33325 15.3446 3.98691 14.1951C4.43172 13.4129 5.07937 12.7653 5.86156 12.3205C7.01097 11.6668 8.549 11.6668 11.625 11.6668H12.091C12.2959 11.6668 12.3983 11.6668 12.4929 11.656C12.986 11.5995 13.4283 11.3261 13.6994 10.9103C13.7514 10.8306 13.7972 10.739 13.8888 10.5558L13.8888 10.5557C14.0721 10.1892 14.1637 10.0059 14.2676 9.84653C14.8098 9.01486 15.6944 8.46812 16.6807 8.35515C16.8698 8.3335 17.0746 8.3335 17.4844 8.3335H22.5154C22.9252 8.3335 23.1301 8.3335 23.3191 8.35515C24.3054 8.46812 25.1901 9.01486 25.7322 9.84653C25.8361 10.0059 25.9278 10.1892 26.111 10.5557C26.2027 10.739 26.2485 10.8306 26.3004 10.9103C26.5715 11.3261 27.0138 11.5995 27.507 11.656C27.6015 11.6668 27.704 11.6668 27.9088 11.6668H28.3748C31.4508 11.6668 32.9889 11.6668 34.1383 12.3205C34.9205 12.7653 35.5681 13.4129 36.0129 14.1951C36.6666 15.3446 36.6666 16.8826 36.6666 19.9586Z" fill="#737373"/>
<path fill-rule="evenodd" clip-rule="evenodd" d="M27.5 18.75C28.1904 18.75 28.75 19.3096 28.75 20V21.25H30C30.6904 21.25 31.25 21.8097 31.25 22.5C31.25 23.1904 30.6904 23.75 30 23.75H28.75V25C28.75 25.6904 28.1904 26.25 27.5 26.25C26.8096 26.25 26.25 25.6904 26.25 25V23.75H25C24.3096 23.75 23.75 23.1904 23.75 22.5C23.75 21.8097 24.3096 21.25 25 21.25H26.25V20C26.25 19.3096 26.8096 18.75 27.5 18.75ZM8.75 22.5C8.75 21.8096 9.30964 21.25 10 21.25H15C15.6904 21.25 16.25 21.8096 16.25 22.5C16.25 23.1904 15.6904 23.75 15 23.75H10C9.30964 23.75 8.75 23.1904 8.75 22.5Z" fill="#737373"/>
<path d="M31.7402 5.41651C32.4615 5.41642 33.1229 5.41635 33.6609 5.48868C34.2534 5.56834 34.8796 5.75575 35.3946 6.27079C35.9097 6.78583 36.0971 7.41204 36.1767 8.0045C36.2491 8.54249 36.249 12.5373 36.2489 13.2586L36.2489 14.6981C36.1817 14.5208 36.1037 14.3541 36.0131 14.1948C35.5683 13.4126 34.9206 12.765 34.1384 12.3202C32.989 11.6665 31.451 11.6665 28.375 11.6665H27.909C27.7041 11.6665 27.6017 11.6665 27.5071 11.6557C27.3809 11.6412 27.258 11.6125 27.1404 11.5709V8.11815C27.1447 8.07969 27.1494 8.0418 27.1544 8.0045C27.2341 7.41204 27.4215 6.78583 27.9365 6.27079C28.4515 5.75575 29.0778 5.56834 29.6702 5.48868C30.2082 5.41635 30.8696 5.41642 31.591 5.41651H31.7402Z" fill="#737373"/>
<path d="M8.31516 5.41651C7.5938 5.41642 6.93242 5.41635 6.3944 5.48868C5.80193 5.56834 5.17572 5.75575 4.66068 6.27079C4.14564 6.78583 3.95823 7.41204 3.87857 8.0045C3.80624 8.54249 3.80632 12.5373 3.8064 13.2586L3.8064 14.5603C3.86021 14.4336 3.92014 14.3122 3.98688 14.1948C4.4317 13.4126 5.07935 12.765 5.86153 12.3202C7.01095 11.6665 8.54897 11.6665 11.625 11.6665H12.091C12.2959 11.6665 12.3983 11.6665 12.4928 11.6557C12.639 11.6389 12.7808 11.6031 12.9149 11.5502V8.11815C12.9106 8.07969 12.9059 8.0418 12.9009 8.0045C12.8213 7.41204 12.6338 6.78583 12.1188 6.27079C11.6038 5.75575 10.9776 5.56834 10.3851 5.48868C9.84707 5.41635 9.18568 5.41642 8.46432 5.41651H8.31516Z" fill="#737373"/>
</svg>
