<svg width="20" height="20" viewBox="0 0 20 20" fill="none" xmlns="http://www.w3.org/2000/svg">
<path fill-rule="evenodd" clip-rule="evenodd" d="M15.2084 5.83301C15.2084 7.5589 13.8093 8.95801 12.0834 8.95801C10.3575 8.95801 8.95841 7.5589 8.95841 5.83301C8.95841 4.10712 10.3575 2.70801 12.0834 2.70801C13.8093 2.70801 15.2084 4.10712 15.2084 5.83301ZM12.0834 7.70801C13.1189 7.70801 13.9584 6.86854 13.9584 5.83301C13.9584 4.79747 13.1189 3.95801 12.0834 3.95801C11.0479 3.95801 10.2084 4.79747 10.2084 5.83301C10.2084 6.86854 11.0479 7.70801 12.0834 7.70801Z" fill="#262626"/>
<path fill-rule="evenodd" clip-rule="evenodd" d="M4.79175 14.1663C4.79175 15.8922 6.19086 17.2913 7.91675 17.2913C9.64264 17.2913 11.0417 15.8922 11.0417 14.1663C11.0417 12.4405 9.64264 11.0413 7.91675 11.0413C6.19086 11.0413 4.79175 12.4405 4.79175 14.1663ZM7.91675 16.0413C6.88121 16.0413 6.04175 15.2019 6.04175 14.1663C6.04175 13.1308 6.88121 12.2913 7.91675 12.2913C8.95228 12.2913 9.79175 13.1308 9.79175 14.1663C9.79175 15.2019 8.95228 16.0413 7.91675 16.0413Z" fill="#262626"/>
<path d="M11.8751 14.1318C11.8751 13.7866 12.1549 13.5068 12.5001 13.5068H18.3334C18.6786 13.5068 18.9584 13.7866 18.9584 14.1318C18.9584 14.477 18.6786 14.7568 18.3334 14.7568H12.5001C12.1549 14.7568 11.8751 14.477 11.8751 14.1318Z" fill="#262626"/>
<path d="M7.50008 5.17344C7.84526 5.17344 8.12508 5.45326 8.12508 5.79844C8.12508 6.14362 7.84526 6.42344 7.50008 6.42344L1.66675 6.42344C1.32157 6.42344 1.04175 6.14362 1.04175 5.79844C1.04175 5.45326 1.32157 5.17344 1.66675 5.17344L7.50008 5.17344Z" fill="#262626"/>
<path d="M1.04175 14.1318C1.04175 13.7866 1.32157 13.5068 1.66675 13.5068H3.33342C3.67859 13.5068 3.95842 13.7866 3.95842 14.1318C3.95842 14.477 3.67859 14.7568 3.33342 14.7568H1.66675C1.32157 14.7568 1.04175 14.477 1.04175 14.1318Z" fill="#262626"/>
<path d="M18.3334 5.17344C18.6786 5.17344 18.9584 5.45326 18.9584 5.79844C18.9584 6.14362 18.6786 6.42344 18.3334 6.42344H16.6667C16.3216 6.42344 16.0417 6.14362 16.0417 5.79844C16.0417 5.45326 16.3216 5.17344 16.6667 5.17344H18.3334Z" fill="#262626"/>
</svg>
