<svg width="40" height="40" viewBox="0 0 40 40" fill="none" xmlns="http://www.w3.org/2000/svg">
<rect width="40" height="40" rx="20" fill="#262626"/>
<path d="M9.99951 14C9.99951 13.4477 10.4472 13 10.9995 13H19.9995C20.5518 13 20.9995 13.4477 20.9995 14C20.9995 14.5523 20.5518 15 19.9995 15H10.9995C10.4472 15 9.99951 14.5522 9.99951 14ZM28.9995 19H10.9995C10.4472 19 9.99951 19.4478 9.99951 20C9.99951 20.5522 10.4472 21 10.9995 21H28.9995C29.5518 21 29.9995 20.5523 29.9995 20C29.9995 19.4478 29.5518 19 28.9995 19ZM28.9995 25H19.9995C19.4473 25 18.9995 25.4477 18.9995 26C18.9995 26.5522 19.4473 27 19.9995 27H28.9995C29.5518 27 29.9995 26.5522 29.9995 26C29.9995 25.4478 29.5518 25 28.9995 25Z" fill="white"/>
</svg>
