<svg width="171" height="171" viewBox="0 0 171 171" fill="none" xmlns="http://www.w3.org/2000/svg">
<path d="M61.7347 24.0448L64.3876 30.6827L63.5488 31.018L61.3145 25.4274L59.8697 26.72L59.5671 25.9628L61.6032 24.0974L61.7347 24.0448Z" fill="white"/>
<path d="M78.2551 22.4669L78.4043 23.5406C78.4845 24.1177 78.5005 24.6117 78.4525 25.0226C78.4044 25.4336 78.3004 25.7734 78.1406 26.0421C77.9807 26.3108 77.7714 26.5189 77.5125 26.6666C77.2565 26.8107 76.9576 26.9064 76.6158 26.9539C76.345 26.9915 76.0904 26.9924 75.852 26.9565C75.6137 26.9206 75.3924 26.8413 75.188 26.7185C74.9864 26.592 74.8043 26.4168 74.6417 26.1929C74.4791 25.969 74.34 25.6893 74.2244 25.3537C74.1088 25.0181 74.0189 24.6198 73.9549 24.1587L73.8057 23.0851C73.7255 22.5079 73.7099 22.0171 73.7589 21.6126C73.8111 21.2077 73.9176 20.8741 74.0783 20.6119C74.2386 20.3464 74.447 20.1433 74.7035 20.0025C74.9632 19.8612 75.2624 19.7671 75.6009 19.7201C75.875 19.682 76.1312 19.6809 76.3695 19.7168C76.6106 19.749 76.8315 19.8252 77.0322 19.9452C77.2325 20.0619 77.4121 20.2309 77.571 20.452C77.7326 20.6695 77.8711 20.9444 77.9863 21.2767C78.1015 21.6091 78.1911 22.0058 78.2551 22.4669ZM77.5249 23.8106L77.3347 22.4419C77.2908 22.126 77.233 21.8514 77.1611 21.6181C77.0921 21.3813 77.0102 21.1823 76.9155 21.0213C76.8209 20.8602 76.7113 20.7341 76.5869 20.643C76.4657 20.5513 76.3308 20.4912 76.1823 20.4626C76.0365 20.4302 75.8765 20.4262 75.7024 20.4504C75.4896 20.4799 75.3066 20.5464 75.1533 20.6499C74.9996 20.7501 74.8782 20.8935 74.7891 21.0801C74.7033 21.2662 74.6506 21.5019 74.631 21.7873C74.6115 22.0726 74.6293 22.4136 74.6844 22.8102L74.8746 24.1788C74.9185 24.4948 74.975 24.7712 75.044 25.0081C75.1163 25.2446 75.2018 25.4463 75.3006 25.6133C75.399 25.7772 75.5092 25.9081 75.6313 26.0062C75.7534 26.1042 75.8875 26.171 76.0338 26.2066C76.1828 26.2385 76.3428 26.2425 76.5137 26.2188C76.7329 26.1883 76.9189 26.1198 77.0717 26.0131C77.2245 25.9064 77.3434 25.7568 77.4284 25.5642C77.5161 25.368 77.5679 25.1258 77.5838 24.8377C77.5992 24.5463 77.5796 24.204 77.5249 23.8106Z" fill="white"/>
<path d="M92.2258 22.5281L92.1132 23.6062C92.0526 24.1857 91.9497 24.6692 91.8045 25.0566C91.6593 25.444 91.4769 25.749 91.2572 25.9715C91.0376 26.194 90.7845 26.3459 90.4978 26.4272C90.2146 26.5057 89.9015 26.5269 89.5583 26.4911C89.2863 26.4627 89.039 26.4024 88.8162 26.3104C88.5935 26.2184 88.3976 26.0883 88.2286 25.9201C88.0632 25.749 87.9284 25.5353 87.8243 25.2789C87.7202 25.0226 87.6522 24.7176 87.6204 24.3641C87.5886 24.0106 87.5969 23.6023 87.6453 23.1393L87.758 22.0612C87.8185 21.4817 87.9211 21.0015 88.0656 20.6206C88.2134 20.24 88.3967 19.9417 88.6157 19.7256C88.835 19.5063 89.086 19.3591 89.3688 19.2839C89.6548 19.2091 89.9678 19.1894 90.3078 19.2249C90.583 19.2537 90.8319 19.3141 91.0547 19.4061C91.281 19.4952 91.4772 19.6221 91.6433 19.7867C91.8097 19.9481 91.9436 20.1552 92.0448 20.408C92.1496 20.6578 92.2181 20.9579 92.2502 21.3082C92.2823 21.6585 92.2742 22.0651 92.2258 22.5281ZM91.1947 23.6575L91.3383 22.2832C91.3714 21.9659 91.3811 21.6854 91.3673 21.4418C91.357 21.1952 91.3253 20.9825 91.272 20.8034C91.2187 20.6244 91.1426 20.4757 91.0437 20.3574C90.948 20.2393 90.8315 20.1486 90.6941 20.0852C90.5603 20.0188 90.406 19.9765 90.2311 19.9582C90.0175 19.9359 89.8238 19.9566 89.6502 20.0203C89.477 20.0807 89.3248 20.1908 89.1935 20.3506C89.0655 20.5107 88.9578 20.7269 88.8705 20.9992C88.7831 21.2716 88.7186 21.6069 88.677 22.0051L88.5334 23.3794C88.5002 23.6967 88.4888 23.9786 88.499 24.2252C88.5125 24.472 88.5471 24.6884 88.603 24.8743C88.6592 25.0569 88.7348 25.2104 88.8298 25.3349C88.9248 25.4594 89.039 25.5564 89.1725 25.626C89.3095 25.6927 89.4638 25.735 89.6354 25.7529C89.8556 25.7759 90.0526 25.754 90.2265 25.687C90.4005 25.6201 90.5518 25.5034 90.6804 25.3368C90.8127 25.1673 90.9211 24.9446 91.0055 24.6687C91.0903 24.3896 91.1534 24.0525 91.1947 23.6575Z" fill="white"/>
<path d="M101.743 23.7017L101.871 23.3481C101.962 23.0939 102.101 22.8826 102.286 22.7142C102.472 22.5457 102.69 22.4358 102.94 22.3842C103.19 22.3327 103.457 22.3578 103.738 22.4594C104.026 22.5633 104.248 22.7144 104.405 22.9129C104.565 23.1125 104.662 23.3362 104.698 23.5842C104.733 23.8322 104.704 24.0833 104.613 24.3374L104.485 24.6911C104.396 24.9391 104.258 25.1473 104.073 25.3158C103.891 25.4853 103.674 25.5959 103.424 25.6474C103.176 25.7 102.91 25.6749 102.625 25.5722C102.341 25.4694 102.117 25.3177 101.954 25.1171C101.794 24.9175 101.697 24.6937 101.662 24.4457C101.626 24.1977 101.654 23.9497 101.743 23.7017ZM102.509 23.5784L102.382 23.9321C102.331 24.0729 102.309 24.2155 102.315 24.3598C102.325 24.5053 102.371 24.6377 102.452 24.7571C102.535 24.8734 102.659 24.9614 102.824 25.021C102.99 25.0807 103.14 25.0916 103.275 25.0537C103.41 25.0128 103.527 24.9389 103.624 24.8322C103.722 24.7254 103.796 24.6016 103.847 24.4607L103.974 24.1071C104.026 23.9632 104.047 23.8185 104.037 23.6731C104.032 23.5257 103.988 23.3938 103.905 23.2775C103.827 23.1592 103.705 23.0703 103.539 23.0106C103.377 22.952 103.226 22.9427 103.087 22.9825C102.953 23.0204 102.835 23.0937 102.733 23.2024C102.636 23.3092 102.561 23.4345 102.509 23.5784ZM103.641 28.6429L103.77 28.2847C103.86 28.0336 103.998 27.8238 104.184 27.6554C104.369 27.487 104.587 27.377 104.837 27.3255C105.088 27.2739 105.354 27.299 105.636 27.4007C105.924 27.5045 106.146 27.6557 106.303 27.8541C106.462 28.0537 106.56 28.2775 106.595 28.5255C106.63 28.7734 106.602 29.023 106.512 29.2741L106.383 29.6323C106.292 29.8834 106.154 30.0932 105.969 30.2616C105.786 30.4311 105.57 30.5417 105.32 30.5932C105.072 30.6458 104.806 30.6208 104.521 30.518C104.237 30.4153 104.014 30.2641 103.854 30.0645C103.695 29.865 103.595 29.6406 103.557 29.3915C103.522 29.1436 103.55 28.894 103.641 28.6429ZM104.408 28.515L104.279 28.8733C104.228 29.0141 104.206 29.1583 104.211 29.3057C104.221 29.4511 104.267 29.5835 104.348 29.7029C104.431 29.8192 104.555 29.9072 104.72 29.9668C104.886 30.0265 105.036 30.0374 105.17 29.9995C105.309 29.9597 105.427 29.8864 105.525 29.7796C105.622 29.6729 105.697 29.5475 105.749 29.4036L105.878 29.0454C105.93 28.9014 105.951 28.7568 105.941 28.6114C105.934 28.467 105.89 28.3367 105.807 28.2204C105.729 28.1021 105.605 28.0126 105.437 27.9518C105.275 27.8933 105.124 27.8839 104.985 27.9237C104.85 27.9616 104.733 28.0334 104.632 28.139C104.535 28.2458 104.46 28.3711 104.408 28.515ZM106.828 24.7578L101.677 28.8064L101.308 28.3309L106.46 24.2824L106.828 24.7578Z" fill="white"/>
<path d="M133.562 40.854L128.313 45.6487L127.687 44.9637L132.936 40.169L133.562 40.854ZM135.103 42.5412L134.533 43.0615L130.828 39.0057L131.398 38.4854L135.103 42.5412Z" fill="white"/>
<path d="M139.615 55.1947L135.703 57.3219L135.272 56.5283L139.913 54.0046L140.333 54.7767L139.615 55.1947ZM141.159 56.2341L140.419 56.631C140.397 56.5574 140.372 56.4899 140.342 56.4283C140.316 56.3679 140.283 56.3006 140.243 56.2263C140.144 56.0432 140.027 55.8972 139.894 55.7882C139.76 55.6791 139.616 55.604 139.46 55.5627C139.304 55.5215 139.139 55.5111 138.965 55.5317C138.795 55.5536 138.621 55.6018 138.443 55.6764L138.193 55.5233C138.474 55.3709 138.752 55.255 139.027 55.1756C139.304 55.0991 139.569 55.0681 139.821 55.0827C140.077 55.0958 140.306 55.1637 140.51 55.2863C140.718 55.4102 140.891 55.598 141.028 55.8497C141.059 55.9069 141.087 55.9765 141.113 56.0587C141.142 56.1393 141.158 56.1977 141.159 56.2341Z" fill="white"/>
<path d="M143.576 71.6836L147.506 70.6555L147.736 71.5342L142.624 72.8712L142.406 72.0351L143.576 71.6836ZM144.696 71.5672L144.8 71.9285C144.46 72.0175 144.136 72.0636 143.827 72.067C143.523 72.0727 143.244 72.0244 142.992 71.9221C142.74 71.8198 142.52 71.6568 142.334 71.433C142.151 71.2084 142.011 70.9135 141.916 70.5482C141.851 70.2994 141.827 70.0616 141.845 69.8348C141.864 69.6111 141.93 69.4055 142.042 69.218C142.155 69.0304 142.322 68.864 142.543 68.7187C142.764 68.5765 143.045 68.4609 143.386 68.372L146.683 67.5094L146.911 68.3833L143.605 69.2483C143.375 69.3085 143.191 69.3835 143.053 69.4734C142.919 69.5657 142.819 69.6675 142.754 69.7787C142.693 69.8923 142.66 70.0087 142.654 70.128C142.649 70.2504 142.662 70.3715 142.693 70.4911C142.791 70.8628 142.938 71.1387 143.137 71.3189C143.339 71.4983 143.573 71.6035 143.84 71.6346C144.112 71.6679 144.397 71.6455 144.696 71.5672Z" fill="white"/>
<path d="M145.152 86.7294C145.282 86.7276 145.402 86.6967 145.512 86.6366C145.625 86.5797 145.726 86.4627 145.815 86.2857C145.907 86.1119 145.985 85.8504 146.048 85.5012C146.106 85.2074 146.176 84.9411 146.257 84.7024C146.338 84.4669 146.438 84.2653 146.556 84.0976C146.675 83.9332 146.814 83.806 146.976 83.7159C147.138 83.6258 147.327 83.5792 147.545 83.5762C147.754 83.5734 147.951 83.6163 148.138 83.7049C148.325 83.7967 148.491 83.9263 148.637 84.0936C148.782 84.2641 148.897 84.4693 148.982 84.709C149.067 84.9488 149.111 85.2167 149.115 85.5129C149.121 85.9361 149.051 86.2984 148.905 86.5999C148.76 86.9014 148.563 87.1336 148.314 87.2965C148.069 87.4594 147.795 87.5429 147.492 87.5471L147.48 86.6438C147.626 86.6418 147.767 86.5959 147.903 86.5062C148.042 86.4196 148.156 86.2927 148.244 86.1255C148.333 85.9615 148.376 85.7607 148.373 85.5231C148.37 85.2725 148.328 85.0696 148.247 84.9144C148.17 84.7625 148.073 84.6515 147.955 84.5815C147.837 84.5147 147.712 84.4822 147.582 84.484C147.485 84.4854 147.397 84.5028 147.319 84.5365C147.245 84.5733 147.176 84.6361 147.112 84.7249C147.051 84.8136 146.994 84.9381 146.941 85.0983C146.888 85.2586 146.836 85.4628 146.784 85.7109C146.692 86.1451 146.58 86.5031 146.447 86.7849C146.314 87.0667 146.149 87.2773 145.952 87.4168C145.756 87.5562 145.516 87.6278 145.233 87.6317C145.001 87.6349 144.789 87.589 144.596 87.4939C144.403 87.4022 144.235 87.2661 144.092 87.0858C143.953 86.9086 143.843 86.6953 143.761 86.4457C143.683 86.1994 143.642 85.9216 143.637 85.6124C143.631 85.1469 143.709 84.7519 143.87 84.4274C144.032 84.1029 144.243 83.8559 144.505 83.6862C144.766 83.5166 145.043 83.4298 145.336 83.4258L145.349 84.3339C145.101 84.3503 144.905 84.4246 144.761 84.5568C144.619 84.689 144.519 84.8499 144.46 85.0395C144.404 85.2291 144.377 85.4167 144.38 85.6022C144.383 85.8496 144.418 86.0558 144.486 86.2209C144.553 86.3893 144.644 86.5166 144.759 86.6029C144.875 86.6893 145.005 86.7314 145.152 86.7294Z" fill="white"/>
<path d="M145.983 104.038L145.308 103.881L145.955 101.099L146.63 101.256L145.983 104.038ZM147.662 102.489L147.457 103.369L142.335 102.177C142.161 102.137 142.023 102.133 141.922 102.167C141.82 102.2 141.745 102.256 141.697 102.335C141.649 102.414 141.613 102.502 141.59 102.601C141.573 102.674 141.562 102.751 141.556 102.833C141.553 102.92 141.551 102.984 141.551 103.028L140.832 102.866C140.826 102.791 140.826 102.694 140.834 102.575C140.838 102.459 140.858 102.322 140.895 102.163C140.945 101.948 141.034 101.76 141.161 101.599C141.289 101.438 141.465 101.327 141.69 101.265C141.917 101.208 142.202 101.219 142.545 101.299L147.662 102.489Z" fill="white"/>
<path d="M136.766 113.946C136.933 113.618 137.139 113.349 137.385 113.138C137.633 112.931 137.907 112.784 138.207 112.696C138.506 112.611 138.821 112.588 139.151 112.628C139.481 112.669 139.812 112.773 140.142 112.941L140.325 113.034C140.708 113.229 141.02 113.459 141.261 113.724C141.506 113.991 141.683 114.274 141.793 114.575C141.903 114.876 141.949 115.177 141.93 115.478C141.912 115.779 141.836 116.062 141.702 116.326C141.531 116.662 141.325 116.923 141.085 117.108C140.843 117.295 140.578 117.414 140.29 117.465C140.004 117.516 139.701 117.508 139.381 117.441C139.065 117.374 138.741 117.257 138.41 117.089L138.049 116.905L139.838 113.389L140.495 113.723L139.116 116.434L139.176 116.465C139.391 116.56 139.616 116.62 139.852 116.645C140.086 116.673 140.308 116.639 140.517 116.545C140.726 116.45 140.9 116.265 141.04 115.989C141.133 115.806 141.18 115.618 141.18 115.425C141.182 115.232 141.136 115.043 141.042 114.856C140.947 114.669 140.806 114.49 140.62 114.318C140.433 114.146 140.198 113.988 139.913 113.843L139.73 113.75C139.507 113.637 139.281 113.56 139.053 113.521C138.826 113.486 138.608 113.49 138.4 113.534C138.19 113.58 137.999 113.668 137.828 113.796C137.655 113.927 137.513 114.103 137.401 114.324C137.256 114.608 137.192 114.878 137.207 115.135C137.223 115.391 137.29 115.643 137.409 115.89L136.774 116.18C136.672 116 136.591 115.797 136.532 115.569C136.472 115.341 136.457 115.091 136.487 114.817C136.515 114.547 136.608 114.256 136.766 113.946Z" fill="white"/>
<path d="M129.744 126.188L134.643 130.423L134.049 131.11L128.375 126.205L128.917 125.577L129.744 126.188ZM133.247 124.518L133.325 124.585C133.63 124.849 133.875 125.125 134.06 125.414C134.245 125.708 134.368 126.001 134.429 126.294C134.487 126.59 134.481 126.876 134.411 127.151C134.342 127.43 134.204 127.69 133.997 127.928C133.78 128.18 133.546 128.361 133.296 128.471C133.046 128.586 132.781 128.637 132.5 128.622C132.22 128.613 131.93 128.545 131.63 128.419C131.331 128.293 131.02 128.117 130.699 127.891L130.359 127.598C130.089 127.317 129.872 127.037 129.706 126.755C129.538 126.477 129.429 126.2 129.379 125.924C129.327 125.651 129.338 125.381 129.413 125.115C129.491 124.851 129.64 124.592 129.859 124.338C130.061 124.104 130.297 123.934 130.566 123.827C130.833 123.722 131.118 123.678 131.422 123.695C131.723 123.715 132.03 123.793 132.342 123.929C132.655 124.07 132.957 124.267 133.247 124.518ZM132.731 125.272L132.653 125.205C132.454 125.032 132.25 124.89 132.041 124.779C131.83 124.669 131.62 124.6 131.413 124.572C131.205 124.543 131.006 124.562 130.815 124.629C130.626 124.698 130.452 124.825 130.292 125.01C130.096 125.236 129.983 125.464 129.954 125.692C129.922 125.923 129.947 126.151 130.028 126.375C130.109 126.6 130.22 126.817 130.363 127.026L131.253 127.796C131.414 127.883 131.582 127.953 131.756 128.005C131.931 128.061 132.106 128.088 132.281 128.084C132.457 128.086 132.629 128.048 132.799 127.971C132.967 127.896 133.125 127.773 133.274 127.6C133.436 127.413 133.536 127.218 133.574 127.014C133.613 126.815 133.602 126.614 133.541 126.411C133.482 126.21 133.382 126.012 133.241 125.816C133.101 125.626 132.93 125.444 132.731 125.272Z" fill="white"/>
<path d="M106.57 141.842L105.698 142.184C105.579 141.748 105.552 141.326 105.616 140.92C105.681 140.514 105.852 140.144 106.131 139.811C106.411 139.481 106.816 139.212 107.346 139.004C107.734 138.852 108.115 138.786 108.491 138.807C108.863 138.829 109.215 138.929 109.547 139.106C109.88 139.287 110.182 139.541 110.454 139.868C110.724 140.199 110.949 140.597 111.131 141.06L111.39 141.719C111.571 142.183 111.675 142.627 111.701 143.05C111.726 143.477 111.676 143.871 111.551 144.231C111.423 144.593 111.224 144.91 110.954 145.184C110.684 145.458 110.344 145.675 109.935 145.835C109.435 146.031 108.975 146.103 108.556 146.051C108.137 145.998 107.767 145.843 107.445 145.584C107.122 145.33 106.852 144.993 106.635 144.575L107.508 144.233C107.671 144.525 107.854 144.759 108.056 144.935C108.259 145.115 108.491 145.223 108.75 145.261C109.01 145.299 109.311 145.251 109.653 145.117C109.947 145.002 110.185 144.844 110.365 144.644C110.542 144.445 110.666 144.213 110.737 143.947C110.805 143.683 110.82 143.392 110.783 143.074C110.746 142.757 110.658 142.422 110.52 142.071L110.258 141.402C110.131 141.078 109.978 140.787 109.8 140.528C109.619 140.27 109.416 140.061 109.192 139.901C108.968 139.74 108.725 139.64 108.461 139.6C108.198 139.563 107.92 139.603 107.626 139.718C107.253 139.864 106.979 140.04 106.804 140.245C106.629 140.449 106.529 140.685 106.504 140.95C106.475 141.216 106.498 141.513 106.57 141.842Z" fill="white"/>
<path d="M91.7554 143.409L92.112 146.105C92.1393 146.312 92.2049 146.485 92.3089 146.626C92.4101 146.77 92.5485 146.873 92.7242 146.935C92.8998 146.997 93.1087 147.012 93.3507 146.98C93.5766 146.951 93.77 146.886 93.9308 146.785C94.0883 146.686 94.2072 146.567 94.2874 146.428C94.3643 146.29 94.3932 146.148 94.374 146.003L95.2695 145.884C95.2942 146.072 95.2704 146.264 95.1979 146.46C95.1254 146.657 95.0086 146.842 94.8475 147.014C94.6837 147.19 94.48 147.338 94.2366 147.459C93.9904 147.584 93.7091 147.667 93.3929 147.709C93.0121 147.759 92.6679 147.739 92.3604 147.648C92.0497 147.558 91.7947 147.393 91.5956 147.153C91.3936 146.917 91.2668 146.604 91.2152 146.214L90.8925 143.774C90.8694 143.6 90.8304 143.416 90.7753 143.223C90.717 143.031 90.6478 142.867 90.5677 142.733L90.5574 142.656L91.4917 142.532C91.5505 142.63 91.6042 142.762 91.6526 142.93C91.7015 143.101 91.7357 143.26 91.7554 143.409ZM91.902 145.709L91.8091 145.081L92.7143 144.961C92.9692 144.928 93.194 144.877 93.3885 144.808C93.5835 144.743 93.7434 144.661 93.8682 144.563C93.9931 144.464 94.0829 144.349 94.1377 144.217C94.1929 144.088 94.2098 143.943 94.1885 143.781C94.1667 143.617 94.1098 143.472 94.0176 143.346C93.9255 143.22 93.7998 143.127 93.6407 143.066C93.4788 143.008 93.2881 142.994 93.0687 143.023C92.7944 143.06 92.56 143.15 92.3656 143.294C92.1712 143.437 92.0238 143.601 91.9234 143.785C91.8197 143.97 91.7735 144.142 91.7847 144.301L91.3454 143.921C91.35 143.783 91.3915 143.624 91.4698 143.447C91.548 143.269 91.661 143.093 91.8088 142.919C91.9537 142.749 92.1342 142.599 92.35 142.468C92.5631 142.341 92.8117 142.259 93.0957 142.222C93.4506 142.175 93.7712 142.203 94.0574 142.306C94.3404 142.41 94.5715 142.568 94.7507 142.781C94.927 142.997 95.0344 143.251 95.0729 143.541C95.11 143.822 95.0878 144.076 95.0062 144.304C94.9251 144.534 94.7907 144.734 94.6029 144.904C94.4156 145.076 94.1816 145.219 93.901 145.332C93.6204 145.444 93.301 145.524 92.9428 145.572L91.902 145.709Z" fill="white"/>
<path d="M76.1344 146.744L76.6262 142.318L77.524 142.418L76.9406 147.669L76.067 147.572L76.1344 146.744ZM74.3992 147.416L74.4968 146.582C74.5695 146.606 74.6395 146.624 74.7071 146.635C74.7711 146.648 74.8452 146.66 74.9293 146.669C75.1363 146.692 75.3227 146.68 75.4885 146.633C75.6542 146.586 75.7985 146.51 75.9214 146.406C76.0444 146.302 76.1472 146.172 76.2299 146.018C76.309 145.866 76.3688 145.696 76.4094 145.507L76.678 145.39C76.6427 145.707 76.5789 146.001 76.4865 146.272C76.3909 146.543 76.2649 146.778 76.1086 146.977C75.9518 147.179 75.7649 147.329 75.5478 147.426C75.327 147.526 75.0743 147.56 74.7896 147.528C74.7249 147.521 74.6514 147.505 74.5691 147.479C74.4864 147.457 74.4298 147.436 74.3992 147.416Z" fill="white"/>
<path d="M48.8816 133.313C48.7885 133.451 48.728 133.587 48.7 133.721C48.6674 133.856 48.6745 134.003 48.7213 134.16C48.7653 134.316 48.8526 134.495 48.983 134.697C49.1107 134.897 49.286 135.132 49.5089 135.401C49.7417 135.684 49.9397 135.958 50.1031 136.221C50.2647 136.488 50.3825 136.747 50.4566 136.997C50.5307 137.248 50.552 137.492 50.5205 137.73C50.4891 137.968 50.3958 138.202 50.2407 138.431C50.0856 138.66 49.8952 138.84 49.6695 138.97C49.4438 139.101 49.195 139.178 48.923 139.202C48.6466 139.227 48.3583 139.197 48.0583 139.112C47.7582 139.027 47.4572 138.882 47.1553 138.678C46.7132 138.379 46.3959 138.04 46.2036 137.662C46.0067 137.285 45.9195 136.906 45.942 136.524C45.9627 136.145 46.0771 135.802 46.2851 135.495L47.0615 136.02C46.9119 136.241 46.8267 136.469 46.8062 136.702C46.7837 136.939 46.8354 137.17 46.9611 137.397C47.085 137.626 47.2939 137.84 47.5877 138.039C47.8654 138.227 48.1228 138.34 48.36 138.379C48.5972 138.418 48.8086 138.396 48.9943 138.313C49.1772 138.228 49.3307 138.094 49.4548 137.911C49.5387 137.787 49.5898 137.657 49.6079 137.519C49.6215 137.383 49.6022 137.235 49.55 137.073C49.4952 136.911 49.4062 136.734 49.2829 136.545C49.1569 136.353 48.9954 136.142 48.7984 135.91C48.528 135.59 48.3107 135.289 48.1465 135.009C47.9824 134.729 47.8714 134.463 47.8135 134.212C47.7512 133.961 47.7443 133.719 47.7929 133.485C47.837 133.251 47.9365 133.02 48.0916 132.791C48.254 132.551 48.4494 132.366 48.6778 132.238C48.9062 132.11 49.1573 132.038 49.431 132.023C49.7046 132.007 49.9937 132.048 50.2982 132.144C50.5982 132.241 50.9032 132.394 51.2132 132.604C51.4855 132.788 51.7282 133.007 51.9413 133.262C52.1517 133.514 52.3136 133.789 52.4271 134.086C52.5379 134.381 52.5832 134.683 52.563 134.991C52.5382 135.301 52.4264 135.603 52.2276 135.896L51.4512 135.371C51.588 135.169 51.6666 134.968 51.6869 134.77C51.7055 134.574 51.6793 134.383 51.6083 134.198C51.5347 134.01 51.4271 133.835 51.2856 133.673C51.1396 133.511 50.9722 133.366 50.7835 133.239C50.5112 133.054 50.2552 132.936 50.0154 132.884C49.7756 132.832 49.5597 132.843 49.3678 132.917C49.1732 132.99 49.0111 133.122 48.8816 133.313Z" fill="white"/>
<path d="M41.8004 123.733C42.0467 124.006 42.2242 124.296 42.3328 124.601C42.4369 124.906 42.4762 125.215 42.4508 125.527C42.4233 125.836 42.3316 126.138 42.1757 126.432C42.0199 126.726 41.8042 126.997 41.5286 127.246L41.3763 127.383C41.0571 127.671 40.7305 127.88 40.3965 128.01C40.06 128.142 39.7317 128.206 39.4116 128.201C39.0915 128.196 38.7941 128.131 38.5194 128.006C38.2446 127.881 38.0081 127.709 37.8098 127.489C37.5569 127.208 37.3873 126.923 37.3009 126.632C37.2124 126.34 37.1963 126.05 37.2527 125.762C37.3066 125.477 37.4225 125.197 37.6004 124.923C37.7758 124.651 38.0014 124.39 38.277 124.142L38.578 123.871L41.2197 126.801L40.6721 127.295L38.6352 125.035L38.5845 125.081C38.4191 125.248 38.2825 125.436 38.1748 125.647C38.0649 125.856 38.0167 126.075 38.0302 126.304C38.0437 126.533 38.1539 126.762 38.361 126.992C38.4983 127.144 38.6574 127.255 38.8382 127.324C39.0166 127.396 39.21 127.421 39.4186 127.399C39.6271 127.378 39.845 127.311 40.0721 127.198C40.2992 127.085 40.5312 126.922 40.7681 126.708L40.9205 126.571C41.1066 126.403 41.259 126.22 41.3777 126.021C41.4917 125.822 41.5657 125.617 41.5996 125.407C41.6314 125.194 41.618 124.985 41.5596 124.779C41.4989 124.57 41.3857 124.374 41.2201 124.191C41.0065 123.954 40.7772 123.797 40.5323 123.719C40.2874 123.642 40.0283 123.615 39.7552 123.638L39.7118 122.941C39.9162 122.91 40.1353 122.907 40.3691 122.933C40.6028 122.959 40.842 123.035 41.0868 123.16C41.3293 123.284 41.5672 123.475 41.8004 123.733Z" fill="white"/>
<path d="M29.5202 115.549L33.4462 113.447L33.8725 114.244L29.2146 116.737L28.7999 115.962L29.5202 115.549ZM27.9837 114.499L28.7264 114.107C28.7474 114.181 28.7726 114.249 28.802 114.31C28.8269 114.371 28.8594 114.438 28.8993 114.513C28.9977 114.697 29.1132 114.844 29.2458 114.953C29.3785 115.063 29.5226 115.139 29.6782 115.182C29.8337 115.224 29.9986 115.235 30.1728 115.216C30.3426 115.195 30.5168 115.148 30.6954 115.075L30.9443 115.229C30.6631 115.38 30.3844 115.494 30.1084 115.572C29.8309 115.646 29.5659 115.676 29.3135 115.659C29.0583 115.645 28.8292 115.575 28.6262 115.451C28.4188 115.326 28.2475 115.137 28.1123 114.884C28.0816 114.827 28.0535 114.757 28.0279 114.675C27.9994 114.594 27.9847 114.536 27.9837 114.499Z" fill="white"/>
<path d="M28.0816 100.982L23.3953 100.684L23.1676 99.7894L28.7561 100.326L28.9055 100.913L28.0816 100.982ZM24.0495 103.253L28.0354 100.701L28.7766 100.407L28.926 100.994L24.2784 104.152L24.0495 103.253Z" fill="white"/>
<path d="M20.8771 88.2755L26.1602 88.2377L26.1667 89.1459L20.8836 89.1837L20.8771 88.2755ZM19.4828 89.262C19.3363 89.2631 19.2123 89.22 19.1108 89.1329C19.0092 89.0424 18.9578 88.9093 18.9565 88.7336C18.9553 88.561 19.0048 88.4288 19.1051 88.337C19.2053 88.2419 19.3287 88.1938 19.4751 88.1927C19.6151 88.1917 19.7359 88.2381 19.8375 88.3317C19.9358 88.4222 19.9855 88.5537 19.9868 88.7262C19.988 88.902 19.9402 89.0358 19.8432 89.1276C19.7429 89.2162 19.6227 89.261 19.4828 89.262Z" fill="white"/>
<path d="M27.2281 74.3345C27.2782 74.1255 27.2817 73.9222 27.2386 73.7244C27.1956 73.5267 27.1133 73.353 26.9918 73.2034C26.8672 73.0531 26.7102 72.9469 26.5209 72.8848L26.721 72.049C27.0211 72.1376 27.2798 72.3084 27.4971 72.5612C27.7119 72.8102 27.8637 73.1059 27.9524 73.4485C28.0379 73.7903 28.0371 74.1432 27.9499 74.5073C27.8574 74.8935 27.7086 75.2144 27.5035 75.4698C27.2992 75.7222 27.0556 75.9149 26.7727 76.048C26.4905 76.1779 26.1845 76.2536 25.8547 76.275C25.5225 76.2925 25.1838 76.26 24.8388 76.1774L24.6393 76.1296C24.2943 76.047 23.9792 75.923 23.6941 75.7577C23.4066 75.5884 23.1665 75.382 22.9738 75.1384C22.7818 74.8916 22.6519 74.6094 22.584 74.2919C22.5169 73.9712 22.5295 73.6178 22.622 73.2316C22.7183 72.8295 22.8847 72.4978 23.1213 72.2365C23.3548 71.9744 23.6329 71.7916 23.9556 71.6881C24.2758 71.5807 24.6151 71.5616 24.9735 71.6306L24.7734 72.4664C24.5575 72.4314 24.3516 72.4457 24.1556 72.5092C23.9604 72.5696 23.7909 72.6763 23.6472 72.8293C23.501 72.9784 23.3999 73.1701 23.3438 73.4044C23.2794 73.6735 23.279 73.9127 23.3426 74.1221C23.4039 74.3276 23.5119 74.5057 23.6666 74.6565C23.8188 74.8035 23.9985 74.9268 24.2055 75.0266C24.4102 75.1225 24.6249 75.1973 24.8497 75.2511L25.0491 75.2989C25.2739 75.3527 25.5008 75.3836 25.7298 75.3916C25.9589 75.3996 26.1746 75.3725 26.3769 75.3105C26.5799 75.2453 26.7569 75.1354 26.9077 74.9807C27.0561 74.8221 27.1629 74.6067 27.2281 74.3345Z" fill="white"/>
<path d="M33.0651 60.985C32.8962 61.3118 32.688 61.5797 32.4406 61.789C32.1918 61.9938 31.9168 62.1393 31.6157 62.2255C31.3162 62.3088 31.0014 62.3293 30.6715 62.287C30.3416 62.2446 30.0118 62.1383 29.6821 61.9678L29.5 61.8736C29.1183 61.6763 28.8077 61.4442 28.5682 61.1775C28.3257 60.9092 28.1505 60.6244 28.0425 60.323C27.9345 60.0217 27.8905 59.7204 27.9106 59.4193C27.9307 59.1182 28.0087 58.8361 28.1448 58.573C28.3182 58.2375 28.5256 57.9783 28.7668 57.7952C29.0095 57.6092 29.2754 57.492 29.5643 57.4435C29.8503 57.3935 30.153 57.4034 30.4724 57.4732C30.7888 57.5416 31.1119 57.661 31.4415 57.8314L31.8015 58.0175L29.9895 61.5221L29.3346 61.1835L30.7317 58.4813L30.671 58.4499C30.4568 58.3538 30.232 58.2926 29.9965 58.2661C29.7625 58.2367 29.5408 58.2686 29.3313 58.3619C29.1218 58.4552 28.9461 58.6391 28.8041 58.9138C28.7099 59.096 28.6622 59.2839 28.661 59.4775C28.657 59.6696 28.7017 59.8595 28.7953 60.0471C28.8888 60.2348 29.0283 60.415 29.2138 60.5878C29.3993 60.7607 29.6337 60.9204 29.9171 61.0669L30.0993 61.1611C30.3219 61.2762 30.5472 61.3542 30.7753 61.3952C31.0019 61.4317 31.2196 61.4288 31.4284 61.3865C31.6386 61.3413 31.8298 61.2551 32.0019 61.1279C32.1754 60.9977 32.319 60.8228 32.4326 60.603C32.5791 60.3196 32.6454 60.0497 32.6314 59.7933C32.6174 59.5369 32.5517 59.2849 32.4342 59.0372L33.0714 58.751C33.1723 58.9315 33.2518 59.1356 33.3098 59.3635C33.3679 59.5914 33.3813 59.842 33.3499 60.1153C33.32 60.3857 33.2251 60.6756 33.0651 60.985Z" fill="white"/>
<path d="M41.1013 46.6552C41.0033 46.5695 40.8934 46.5121 40.7715 46.4833C40.6494 46.4498 40.4961 46.4692 40.3117 46.5414C40.127 46.609 39.8942 46.7512 39.6133 46.9682C39.3737 47.1478 39.1438 47.2991 38.9236 47.4221C38.7055 47.5427 38.4965 47.6257 38.2965 47.6712C38.0986 47.7143 37.9095 47.7153 37.7292 47.6742C37.5489 47.633 37.3767 47.5406 37.2126 47.3969C37.0559 47.2596 36.9378 47.0956 36.8582 46.9048C36.7809 46.7115 36.7441 46.504 36.7479 46.2823C36.7538 46.0582 36.8055 45.8287 36.903 45.5938C37.0005 45.359 37.1469 45.1302 37.342 44.9074C37.6209 44.589 37.9153 44.3666 38.2252 44.2399C38.5352 44.1133 38.837 44.0726 39.1306 44.1178C39.4218 44.1608 39.6813 44.282 39.909 44.4815L39.3138 45.161C39.2036 45.0645 39.0682 45.0043 38.9074 44.9803C38.7464 44.9517 38.5768 44.9699 38.3989 45.0347C38.2231 45.0971 38.0569 45.2176 37.9003 45.3964C37.7352 45.5849 37.6305 45.7637 37.5863 45.9327C37.5418 46.0972 37.5401 46.2449 37.581 46.376C37.6242 46.5046 37.6947 46.6118 37.7926 46.6976C37.8661 46.762 37.9429 46.8076 38.0232 46.8346C38.1031 46.857 38.1965 46.8566 38.3033 46.8334C38.4078 46.808 38.5334 46.7536 38.6801 46.6701C38.8268 46.5865 39.0025 46.47 39.2071 46.3203C39.5659 46.059 39.8889 45.8681 40.1762 45.7476C40.4635 45.6271 40.7268 45.5808 40.9663 45.6088C41.2057 45.6368 41.432 45.7441 41.645 45.9307C41.8189 46.083 41.9459 46.2591 42.026 46.4591C42.1083 46.6567 42.142 46.8701 42.1272 47.0995C42.1121 47.3243 42.0513 47.5566 41.9449 47.7967C41.8382 48.0321 41.683 48.2661 41.4793 48.4988C41.1725 48.8489 40.8506 49.0905 40.5134 49.2235C40.1761 49.3566 39.8537 49.3987 39.5459 49.3498C39.2382 49.301 38.9741 49.18 38.7538 48.987L39.3522 48.3038C39.5469 48.457 39.7422 48.5329 39.9382 48.5315C40.1317 48.5279 40.3139 48.4755 40.4849 48.3742C40.6533 48.2708 40.7987 48.1493 40.921 48.0097C41.084 47.8236 41.1957 47.6467 41.2561 47.4789C41.3186 47.3087 41.336 47.153 41.3082 47.0118C41.2804 46.8706 41.2114 46.7518 41.1013 46.6552Z" fill="white"/>
<rect x="67.3896" y="67.4036" width="36" height="36" rx="18" fill="white" fill-opacity="0.1"/>
<path d="M91.6895 79.1033L79.0895 91.7033" stroke="white" stroke-width="1.8" stroke-miterlimit="10" stroke-linecap="round" stroke-linejoin="round"/>
<path d="M82.4465 79.1033H91.6895V88.3463" stroke="white" stroke-width="1.8" stroke-miterlimit="10" stroke-linecap="round" stroke-linejoin="round"/>
</svg>
