<svg width="18" height="18" viewBox="0 0 18 18" fill="none" xmlns="http://www.w3.org/2000/svg">
<g clip-path="url(#clip0_511_5870)">
<path d="M12.6084 1.4834H5.19173C3.14368 1.4834 1.4834 3.14368 1.4834 5.19173V12.6084C1.4834 14.6565 3.14368 16.3167 5.19173 16.3167H12.6084C14.6565 16.3167 16.3167 14.6565 16.3167 12.6084V5.19173C16.3167 3.14368 14.6565 1.4834 12.6084 1.4834Z" stroke="white" stroke-width="1.48333" stroke-linecap="round" stroke-linejoin="round"/>
<path d="M11.8666 8.43288C11.9581 9.05013 11.8527 9.68052 11.5653 10.2344C11.2779 10.7883 10.8232 11.2374 10.2658 11.518C9.70841 11.7985 9.07676 11.8962 8.46069 11.797C7.84461 11.6979 7.27549 11.407 6.83425 10.9658C6.39302 10.5246 6.10215 9.95542 6.00301 9.33935C5.90388 8.72328 6.00153 8.09163 6.28207 7.53425C6.56262 6.97688 7.01177 6.52215 7.56564 6.23476C8.11952 5.94736 8.74991 5.84193 9.36716 5.93346C9.99678 6.02682 10.5797 6.32021 11.0298 6.77029C11.4798 7.22036 11.7732 7.80326 11.8666 8.43288Z" stroke="white" stroke-width="1.48333" stroke-linecap="round" stroke-linejoin="round"/>
<path d="M12.979 4.82129H12.9864" stroke="white" stroke-width="1.48333" stroke-linecap="round" stroke-linejoin="round"/>
</g>
<defs>
<clipPath id="clip0_511_5870">
<rect width="17.8" height="17.8" fill="white"/>
</clipPath>
</defs>
</svg>
