<svg width="18" height="18" viewBox="0 0 18 18" fill="none" xmlns="http://www.w3.org/2000/svg">
<path d="M11.8665 5.93359C13.0467 5.93359 14.1786 6.40243 15.0131 7.23697C15.8477 8.07151 16.3165 9.20338 16.3165 10.3836V15.5753H13.3498V10.3836C13.3498 9.99019 13.1936 9.6129 12.9154 9.33472C12.6372 9.05654 12.2599 8.90026 11.8665 8.90026C11.4731 8.90026 11.0958 9.05654 10.8176 9.33472C10.5394 9.6129 10.3832 9.99019 10.3832 10.3836V15.5753H7.4165V10.3836C7.4165 9.20338 7.88534 8.07151 8.71988 7.23697C9.55442 6.40243 10.6863 5.93359 11.8665 5.93359Z" fill="white"/>
<path d="M4.45007 6.6748H1.4834V15.5748H4.45007V6.6748Z" fill="white"/>
<path d="M2.96673 4.45007C3.78595 4.45007 4.45007 3.78595 4.45007 2.96673C4.45007 2.14751 3.78595 1.4834 2.96673 1.4834C2.14751 1.4834 1.4834 2.14751 1.4834 2.96673C1.4834 3.78595 2.14751 4.45007 2.96673 4.45007Z" fill="white"/>
</svg>
