<svg width="22" height="22" viewBox="0 0 22 22" fill="none" xmlns="http://www.w3.org/2000/svg">
<path opacity="0.4" d="M1.92493 20.1667V5.52754C1.92493 3.68504 2.84164 2.75919 4.66581 2.75919H10.3766C12.2008 2.75919 13.1083 3.68504 13.1083 5.52754V20.1667" fill="#D4D4D4"/>
<path d="M9.85416 8.25H5.31665C4.94082 8.25 4.62915 7.93833 4.62915 7.5625C4.62915 7.18667 4.94082 6.875 5.31665 6.875H9.85416C10.23 6.875 10.5417 7.18667 10.5417 7.5625C10.5417 7.93833 10.23 8.25 9.85416 8.25Z" fill="#D4D4D4"/>
<path d="M9.85416 11.6875H5.31665C4.94082 11.6875 4.62915 11.3758 4.62915 11C4.62915 10.6242 4.94082 10.3125 5.31665 10.3125H9.85416C10.23 10.3125 10.5417 10.6242 10.5417 11C10.5417 11.3758 10.23 11.6875 9.85416 11.6875Z" fill="#D4D4D4"/>
<path d="M7.5625 20.8542C7.18667 20.8542 6.875 20.5425 6.875 20.1667V16.7292C6.875 16.3534 7.18667 16.0417 7.5625 16.0417C7.93833 16.0417 8.25 16.3534 8.25 16.7292V20.1667C8.25 20.5425 7.93833 20.8542 7.5625 20.8542Z" fill="#D4D4D4"/>
<path d="M21.0833 19.4792H19.0024V16.7292C19.8733 16.445 20.5058 15.6292 20.5058 14.6667V12.8333C20.5058 11.6325 19.5249 10.6517 18.3241 10.6517C17.1233 10.6517 16.1424 11.6325 16.1424 12.8333V14.6667C16.1424 15.62 16.7658 16.4267 17.6183 16.72V19.4792H0.916626C0.540793 19.4792 0.229126 19.7908 0.229126 20.1667C0.229126 20.5425 0.540793 20.8542 0.916626 20.8542H18.2691C18.2875 20.8542 18.2966 20.8634 18.3149 20.8634C18.3333 20.8634 18.3425 20.8542 18.3608 20.8542H21.0833C21.4591 20.8542 21.7708 20.5425 21.7708 20.1667C21.7708 19.7908 21.4591 19.4792 21.0833 19.4792Z" fill="#D4D4D4"/>
</svg>
