<svg width="125" height="40" viewBox="0 0 125 40" fill="none" xmlns="http://www.w3.org/2000/svg">
<path d="M34.9997 3.33333H14.9997C14.083 3.33333 13.333 4.08333 13.333 4.99999V10C13.333 10.9167 14.083 11.6667 14.9997 11.6667H34.9997C35.9163 11.6667 36.6663 10.9167 36.6663 10V4.99999C36.6663 4.08333 35.9163 3.33333 34.9997 3.33333Z" fill="#9A85FF"/>
<path d="M18.3337 28.3333H13.3337C12.417 28.3333 11.667 29.0833 11.667 30V35C11.667 35.9167 12.417 36.6667 13.3337 36.6667H18.3337C19.2503 36.6667 20.0003 35.9167 20.0003 35V30C20.0003 29.0833 19.2503 28.3333 18.3337 28.3333Z" fill="#9A85FF"/>
<path d="M9.99967 15.8333H4.99967C4.08301 15.8333 3.33301 16.5833 3.33301 17.5V22.5C3.33301 23.4167 4.08301 24.1667 4.99967 24.1667H9.99967C10.9163 24.1667 11.6663 23.4167 11.6663 22.5V17.5C11.6663 16.5833 10.9163 15.8333 9.99967 15.8333Z" fill="#9A85FF"/>
<path d="M28.333 16.0667H17.4997C16.583 16.0667 15.833 16.8167 15.833 17.7333V22.2667C15.833 23.1833 16.583 23.9333 17.4997 23.9333H28.333C29.2497 23.9333 29.9997 23.1833 29.9997 22.2667V17.7333C29.9997 16.8167 29.2497 16.0667 28.333 16.0667Z" fill="#9A85FF"/>
<path d="M41.3352 34V5.875H52.5852V11.3562H46.9922V15.8306H52.2976V21.2479H46.9922V34H41.3352ZM54.1513 34V5.875H59.5845V34H54.1513ZM61.0067 34L64.027 19.0906L61.63 5.85902H67.1271L68.5813 15.527L69.8757 5.85902H75.3888L72.9918 19.0906L75.9961 34H70.3072L68.5334 23.0057L66.7116 34H61.0067ZM99.8065 34.2557C95.7901 34.2557 93.782 31.3793 93.782 25.6264V13.4975C93.782 8.24538 96.0831 5.61932 100.685 5.61932C102.582 5.61932 104.036 6.00284 105.048 6.76989C106.06 7.52628 106.758 8.63423 107.141 10.0938C107.525 11.5533 107.717 13.3324 107.717 15.4311H102.219V12.9382C102.219 12.331 102.134 11.8249 101.964 11.4201C101.804 11.0046 101.463 10.7969 100.941 10.7969C100.291 10.7969 99.8597 11.0153 99.6467 11.4521C99.4442 11.8888 99.343 12.3683 99.343 12.8903V26.5213C99.343 27.2777 99.4389 27.8956 99.6307 28.375C99.8331 28.8438 100.222 29.0781 100.797 29.0781C101.394 29.0781 101.788 28.8438 101.98 28.375C102.182 27.8956 102.283 27.267 102.283 26.4893V22.4783H100.781V17.6204H107.653V34H105.4L104.441 31.6349C103.461 33.3821 101.916 34.2557 99.8065 34.2557ZM116.761 34.2557C111.989 34.2557 109.602 31.7788 109.602 26.8249V17.2049C109.602 14.9464 110.236 13.146 111.504 11.8036C112.772 10.4506 114.524 9.77415 116.761 9.77415C119.009 9.77415 120.767 10.4506 122.035 11.8036C123.303 13.146 123.936 14.9464 123.936 17.2049V26.8249C123.936 31.7788 121.545 34.2557 116.761 34.2557ZM116.761 29.8452C117.241 29.8452 117.582 29.6747 117.784 29.3338C117.997 28.9822 118.104 28.5401 118.104 28.0075V16.294C118.104 14.8984 117.656 14.2006 116.761 14.2006C115.866 14.2006 115.419 14.8984 115.419 16.294V28.0075C115.419 28.5401 115.52 28.9822 115.723 29.3338C115.936 29.6747 116.282 29.8452 116.761 29.8452Z" fill="white"/>
<path d="M77.5781 34V10.0298H83.299V13.082C83.5121 12.1658 83.9062 11.3881 84.4815 10.7489C85.0675 10.0991 85.8771 9.77415 86.9105 9.77415C88.5724 9.77415 89.7763 10.2855 90.522 11.3082C91.2784 12.331 91.6566 13.7319 91.6566 15.511V34H86.0156V16.1023C86.0156 15.6335 85.9197 15.2021 85.728 14.8079C85.5362 14.4031 85.206 14.2006 84.7372 14.2006C84.3004 14.2006 83.9755 14.3551 83.7624 14.6641C83.56 14.9624 83.4322 15.3406 83.3789 15.7987C83.3256 16.2461 83.299 16.6935 83.299 17.141V34H77.5781Z" fill="#9A85FF"/>
</svg>
