<svg width="16" height="16" viewBox="0 0 16 16" fill="none" xmlns="http://www.w3.org/2000/svg">
<path opacity="0.4" d="M11.3335 13.6663H4.66683C2.66683 13.6663 1.3335 12.6663 1.3335 10.333V5.66634C1.3335 3.33301 2.66683 2.33301 4.66683 2.33301H11.3335C13.3335 2.33301 14.6668 3.33301 14.6668 5.66634V10.333C14.6668 12.6663 13.3335 13.6663 11.3335 13.6663Z" fill="#737373"/>
<path d="M8 10C9.10457 10 10 9.10457 10 8C10 6.89543 9.10457 6 8 6C6.89543 6 6 6.89543 6 8C6 9.10457 6.89543 10 8 10Z" fill="#737373"/>
<path d="M3.6665 10.1663C3.39317 10.1663 3.1665 9.93967 3.1665 9.66634V6.33301C3.1665 6.05967 3.39317 5.83301 3.6665 5.83301C3.93984 5.83301 4.1665 6.05967 4.1665 6.33301V9.66634C4.1665 9.93967 3.93984 10.1663 3.6665 10.1663Z" fill="#737373"/>
<path d="M12.3335 10.1663C12.0602 10.1663 11.8335 9.93967 11.8335 9.66634V6.33301C11.8335 6.05967 12.0602 5.83301 12.3335 5.83301C12.6068 5.83301 12.8335 6.05967 12.8335 6.33301V9.66634C12.8335 9.93967 12.6068 10.1663 12.3335 10.1663Z" fill="#737373"/>
</svg>
