<svg width="28" height="28" viewBox="0 0 28 28" fill="none" xmlns="http://www.w3.org/2000/svg">
<path d="M6.4272 21.583H6.41675" stroke="#737373" stroke-width="1.75"/>
<g opacity="0.4">
<path d="M15.8952 17.1583L8.09924 24.9542C6.70397 26.3494 4.44176 26.3494 3.04647 24.9542C1.65118 23.5589 1.65118 21.2966 3.04647 19.9014L10.8424 12.1055" fill="#737373"/>
<path d="M15.8952 17.1583L8.09924 24.9542C6.70397 26.3494 4.44176 26.3494 3.04647 24.9542C1.65118 23.5589 1.65118 21.2966 3.04647 19.9014L10.8424 12.1055" stroke="#737373" stroke-width="1.62411"/>
</g>
<path d="M24.5581 15.7142C23.0555 17.2165 20.2284 17.1581 15.8936 17.1581C13.1047 17.1581 10.8435 14.8936 10.8421 12.1047C10.8421 7.77282 10.7837 4.94407 12.2863 3.44179C13.7887 1.93952 14.4524 2.00034 21.1083 2.00034C21.7515 1.99759 22.0753 2.77546 21.6205 3.23028L18.1935 6.65758C17.3236 7.52752 17.3212 8.93789 18.1912 9.80772C19.0612 10.6776 20.4717 10.6776 21.3417 9.80794L24.7697 6.38146C25.2246 5.92676 26.0026 6.25044 25.9998 6.89356C25.9998 13.5484 26.0607 14.212 24.5581 15.7142Z" fill="#737373" stroke="#737373" stroke-width="1.62411"/>
</svg>
