<svg width="339" height="251" viewBox="0 0 339 150" fill="none" xmlns="http://www.w3.org/2000/svg">
<rect x="73" width="185" height="180" rx="24" fill="#F6F6F6"/>
<path d="M97 49C97 42.4768 97 39.2152 98.0657 36.6424C99.4866 33.212 102.212 30.4866 105.642 29.0657C108.215 28 111.477 28 118 28H213C219.523 28 222.785 28 225.358 29.0657C228.788 30.4866 231.513 33.212 232.934 36.6424C234 39.2152 234 42.4768 234 49V184H97V49Z" fill="#FEFEFE"/>
<path d="M109 69C109 64.3406 109 62.0109 109.761 60.1732C110.776 57.7229 112.723 55.7761 115.173 54.7612C117.011 54 119.341 54 124 54H207C211.659 54 213.989 54 215.827 54.7612C218.277 55.7761 220.224 57.7229 221.239 60.1732C222 62.0109 222 64.3406 222 69V184H109V69Z" fill="#F5F5F5"/>
<rect x="147" y="40" width="4" height="4" rx="2" fill="#28AF60" fill-opacity="0.5"/>
<rect x="155" y="40" width="30" height="4" rx="2" fill="#28AF60" fill-opacity="0.5"/>
<rect x="120" y="92" width="24" height="24" rx="6" fill="#4ADE80"/>
<rect x="152" y="94" width="57" height="8" rx="3" fill="#4ADE80"/>
<rect x="152" y="108" width="42" height="6" rx="3" fill="#4ADE80"/>
<g filter="url(#filter0_d_8631_19728)">
<rect x="46" y="129" width="239" height="64" rx="12" fill="#FEFEFE"/>
<rect x="61" y="141" width="40" height="40" rx="20" fill="#66CB63"/>
<path d="M74 161L79 166L89 156" stroke="#FEFEFE" stroke-width="4" stroke-linecap="round" stroke-linejoin="round"/>
<rect x="113.621" y="142.99" width="118.917" height="16.322" rx="5.82927" fill="#BCB1FF"/>
<rect x="113.621" y="168.639" width="88.6049" height="11.6585" rx="4.66341" fill="#BCB1FF"/>
</g>
<path d="M143.5 72.5V69.3125C143.5 69.1042 143.542 68.9083 143.625 68.725C143.708 68.5417 143.833 68.3917 144 68.275V66.825C144 66.45 144.127 66.1354 144.381 65.8812C144.635 65.6271 144.95 65.5 145.325 65.5H147.575C147.758 65.5 147.929 65.5417 148.088 65.625C148.246 65.7083 148.383 65.8208 148.5 65.9625C148.617 65.8208 148.752 65.7083 148.906 65.625C149.06 65.5417 149.229 65.5 149.412 65.5H151.663C152.038 65.5 152.354 65.6271 152.613 65.8812C152.871 66.1354 153 66.45 153 66.825V68.275C153.167 68.3917 153.292 68.5417 153.375 68.725C153.458 68.9083 153.5 69.1042 153.5 69.3125V72.5H152.75V71.5H144.25V72.5H143.5ZM148.875 68.0625H152.25V66.825C152.25 66.6583 152.194 66.5208 152.081 66.4125C151.969 66.3042 151.829 66.25 151.663 66.25H149.375C149.233 66.25 149.115 66.3083 149.019 66.425C148.923 66.5417 148.875 66.675 148.875 66.825V68.0625ZM144.75 68.0625H148.125V66.825C148.125 66.675 148.077 66.5417 147.981 66.425C147.885 66.3083 147.767 66.25 147.625 66.25H145.325C145.167 66.25 145.031 66.3063 144.919 66.4187C144.806 66.5312 144.75 66.6667 144.75 66.825V68.0625ZM144.25 70.75H152.75V69.3125C152.75 69.1708 152.702 69.0521 152.606 68.9562C152.51 68.8604 152.392 68.8125 152.25 68.8125H144.75C144.608 68.8125 144.49 68.8604 144.394 68.9562C144.298 69.0521 144.25 69.1708 144.25 69.3125V70.75Z" fill="#9CA4AB"/>
<path d="M158.124 72V66.04H162.004V66.88H159.068V68.672H161.684V69.512H159.068V72H158.124ZM162.796 72V66.04H163.74V72H162.796ZM164.975 72V66.04H165.735L169.079 70.656L168.719 70.712V66.04H169.655V72H168.895L165.575 67.352L165.919 67.288V72H164.975ZM170.801 72V67.672H171.665V68.52L171.561 68.408C171.668 68.136 171.839 67.9307 172.073 67.792C172.308 67.648 172.58 67.576 172.889 67.576C173.209 67.576 173.492 67.6453 173.737 67.784C173.983 67.9227 174.175 68.1147 174.313 68.36C174.452 68.6053 174.521 68.888 174.521 69.208V72H173.625V69.448C173.625 69.2293 173.585 69.0453 173.505 68.896C173.425 68.7413 173.311 68.624 173.161 68.544C173.017 68.4587 172.852 68.416 172.665 68.416C172.479 68.416 172.311 68.4587 172.161 68.544C172.017 68.624 171.905 68.7413 171.825 68.896C171.745 69.0507 171.705 69.2347 171.705 69.448V72H170.801ZM178.369 72.096C177.948 72.096 177.556 72.0187 177.193 71.864C176.836 71.7093 176.521 71.496 176.249 71.224C175.982 70.9467 175.774 70.6213 175.625 70.248C175.476 69.8747 175.401 69.464 175.401 69.016C175.401 68.5733 175.473 68.1653 175.617 67.792C175.766 67.4133 175.974 67.088 176.241 66.816C176.508 66.5387 176.82 66.3253 177.177 66.176C177.534 66.0213 177.926 65.944 178.353 65.944C178.774 65.944 179.15 66.016 179.481 66.16C179.817 66.304 180.1 66.4933 180.329 66.728C180.558 66.9573 180.724 67.208 180.825 67.48L179.985 67.888C179.862 67.5627 179.66 67.3013 179.377 67.104C179.094 66.9013 178.753 66.8 178.353 66.8C177.958 66.8 177.609 66.8933 177.305 67.08C177.001 67.2667 176.764 67.5253 176.593 67.856C176.428 68.1867 176.345 68.5733 176.345 69.016C176.345 69.4587 176.43 69.848 176.601 70.184C176.777 70.5147 177.017 70.7733 177.321 70.96C177.625 71.1413 177.974 71.232 178.369 71.232C178.7 71.232 179.001 71.1653 179.273 71.032C179.55 70.8933 179.772 70.7013 179.937 70.456C180.102 70.2053 180.185 69.9147 180.185 69.584V69.176L180.609 69.56H178.353V68.76H181.121V69.32C181.121 69.7573 181.046 70.1493 180.897 70.496C180.748 70.8373 180.545 71.128 180.289 71.368C180.033 71.608 179.74 71.7893 179.409 71.912C179.078 72.0347 178.732 72.096 178.369 72.096ZM184.981 72.096C184.549 72.096 184.146 72.0187 183.773 71.864C183.405 71.7093 183.079 71.4933 182.797 71.216C182.519 70.9387 182.301 70.6133 182.141 70.24C181.986 69.8667 181.909 69.4587 181.909 69.016C181.909 68.5733 181.986 68.1653 182.141 67.792C182.301 67.4133 182.519 67.088 182.797 66.816C183.074 66.5387 183.399 66.3253 183.773 66.176C184.146 66.0213 184.549 65.944 184.981 65.944C185.418 65.944 185.821 66.0213 186.189 66.176C186.562 66.3253 186.887 66.5387 187.165 66.816C187.447 67.0933 187.666 67.4187 187.821 67.792C187.975 68.1653 188.053 68.5733 188.053 69.016C188.053 69.4587 187.973 69.8667 187.813 70.24C187.658 70.6133 187.442 70.9387 187.165 71.216C186.887 71.4933 186.562 71.7093 186.189 71.864C185.815 72.0187 185.413 72.096 184.981 72.096ZM184.981 71.232C185.29 71.232 185.573 71.176 185.829 71.064C186.09 70.952 186.317 70.7973 186.509 70.6C186.701 70.3973 186.85 70.1627 186.957 69.896C187.063 69.624 187.117 69.3307 187.117 69.016C187.117 68.7013 187.063 68.4107 186.957 68.144C186.85 67.8773 186.701 67.6427 186.509 67.44C186.317 67.2373 186.09 67.08 185.829 66.968C185.573 66.856 185.29 66.8 184.981 66.8C184.671 66.8 184.386 66.856 184.125 66.968C183.869 67.08 183.645 67.2373 183.453 67.44C183.261 67.6427 183.111 67.8773 183.005 68.144C182.903 68.4107 182.853 68.7013 182.853 69.016C182.853 69.3307 182.903 69.624 183.005 69.896C183.111 70.1627 183.261 70.3973 183.453 70.6C183.645 70.7973 183.871 70.952 184.133 71.064C184.394 71.176 184.677 71.232 184.981 71.232Z" fill="#9CA4AB"/>
<defs>
<filter id="filter0_d_8631_19728" x="0" y="87" width="339" height="164" filterUnits="userSpaceOnUse" color-interpolation-filters="sRGB">
<feFlood flood-opacity="0" result="BackgroundImageFix"/>
<feColorMatrix in="SourceAlpha" type="matrix" values="0 0 0 0 0 0 0 0 0 0 0 0 0 0 0 0 0 0 127 0" result="hardAlpha"/>
<feOffset dx="4" dy="8"/>
<feGaussianBlur stdDeviation="25"/>
<feComposite in2="hardAlpha" operator="out"/>
<feColorMatrix type="matrix" values="0 0 0 0 0.0705883 0 0 0 0 0.0980393 0 0 0 0 0.2 0 0 0 0.08 0"/>
<feBlend mode="normal" in2="BackgroundImageFix" result="effect1_dropShadow_8631_19728"/>
<feBlend mode="normal" in="SourceGraphic" in2="effect1_dropShadow_8631_19728" result="shape"/>
</filter>
</defs>
</svg>
