<svg width="20" height="20" viewBox="0 0 20 20" fill="none" xmlns="http://www.w3.org/2000/svg">
<path fill-rule="evenodd" clip-rule="evenodd" d="M16.9599 8.76729L15.5296 13.0584C14.5211 16.0839 14.0168 17.5967 13.2774 18.0266C12.5739 18.4355 11.7051 18.4355 11.0016 18.0266C10.2622 17.5967 9.75793 16.0839 8.74943 13.0584C8.5875 12.5726 8.50653 12.3297 8.37061 12.1267C8.23889 11.9299 8.06987 11.7609 7.87311 11.6292C7.67009 11.4933 7.42719 11.4123 6.94139 11.2504C3.91587 10.2419 2.4031 9.73761 1.97322 8.99815C1.56427 8.2947 1.56427 7.4259 1.97322 6.72244C2.4031 5.98299 3.91587 5.47874 6.94139 4.47023L11.2325 3.03986C14.9812 1.79031 16.8555 1.16553 17.8449 2.15492C18.8343 3.14431 18.2095 5.01864 16.9599 8.76729ZM10.8712 9.08511C10.6285 8.83968 10.6307 8.44396 10.8761 8.20124L14.3849 4.73114C14.6303 4.48842 15.0261 4.49061 15.2688 4.73604C15.5115 4.98147 15.5093 5.37719 15.2639 5.61991L11.7551 9.09001C11.5097 9.33273 11.114 9.33053 10.8712 9.08511Z" fill="white"/>
</svg>
