<svg width="22" height="21" viewBox="0 0 22 21" fill="none" xmlns="http://www.w3.org/2000/svg">
<path fill-rule="evenodd" clip-rule="evenodd" d="M4.698 0H16.802C17.7005 -2.93851e-05 18.4497 -5.38826e-05 19.0445 0.0799124C19.6723 0.164317 20.2391 0.349988 20.6945 0.805457C21.15 1.26093 21.3357 1.82773 21.4201 2.45552C21.5001 3.0503 21.5 3.79953 21.5 4.69801V4.802C21.5 5.70048 21.5001 6.4497 21.4201 7.04448C21.3357 7.67228 21.15 8.23907 20.6945 8.69454C20.2391 9.15001 19.6723 9.33568 19.0445 9.42009C18.4497 9.50006 17.7005 9.50003 16.802 9.5H4.69801C3.79953 9.50003 3.0503 9.50006 2.45552 9.42009C1.82773 9.33568 1.26093 9.15001 0.805459 8.69454C0.349989 8.23907 0.164318 7.67228 0.0799135 7.04448C-5.2765e-05 6.4497 -2.8264e-05 5.70048 1.12109e-06 4.802V4.698C-2.8264e-05 3.79952 -5.2765e-05 3.0503 0.0799135 2.45552C0.164318 1.82773 0.349989 1.26093 0.805459 0.805457C1.26093 0.349988 1.82773 0.164317 2.45552 0.0799124C3.0503 -5.38826e-05 3.79952 -2.93851e-05 4.698 0ZM2.65539 1.56654C2.19393 1.62858 1.99644 1.7358 1.86612 1.86612C1.7358 1.99643 1.62858 2.19393 1.56654 2.65539C1.5016 3.13843 1.5 3.78599 1.5 4.75C1.5 5.71401 1.5016 6.36157 1.56654 6.84461C1.62858 7.30607 1.7358 7.50357 1.86612 7.63388C1.99644 7.7642 2.19393 7.87142 2.65539 7.93347C3.13843 7.99841 3.78599 8 4.75 8H16.75C17.714 8 18.3616 7.99841 18.8446 7.93347C19.3061 7.87142 19.5036 7.7642 19.6339 7.63388C19.7642 7.50357 19.8714 7.30607 19.9335 6.84461C19.9984 6.36157 20 5.71401 20 4.75C20 3.78599 19.9984 3.13843 19.9335 2.65539C19.8714 2.19393 19.7642 1.99643 19.6339 1.86612C19.5036 1.7358 19.3061 1.62858 18.8446 1.56654C18.3616 1.50159 17.714 1.5 16.75 1.5H4.75C3.78599 1.5 3.13843 1.50159 2.65539 1.56654ZM4 4.75C4 4.33579 4.33579 4 4.75 4H6.75C7.16422 4 7.5 4.33579 7.5 4.75C7.5 5.16422 7.16422 5.5 6.75 5.5H4.75C4.33579 5.5 4 5.16422 4 4.75ZM9 4.75C9 4.33579 9.33579 4 9.75 4H16.75C17.1642 4 17.5 4.33579 17.5 4.75C17.5 5.16422 17.1642 5.5 16.75 5.5H9.75C9.33579 5.5 9 5.16422 9 4.75ZM4.69801 11H16.802C17.7005 11 18.4497 10.9999 19.0445 11.0799C19.6723 11.1643 20.2391 11.35 20.6945 11.8055C21.15 12.2609 21.3357 12.8277 21.4201 13.4555C21.5001 14.0503 21.5 14.7995 21.5 15.698V15.802C21.5 16.7005 21.5001 17.4497 21.4201 18.0445C21.3357 18.6723 21.15 19.2391 20.6945 19.6945C20.2391 20.15 19.6723 20.3357 19.0445 20.4201C18.4497 20.5001 17.7005 20.5 16.802 20.5H4.69801C3.79953 20.5 3.05031 20.5001 2.45552 20.4201C1.82773 20.3357 1.26093 20.15 0.805459 19.6945C0.349989 19.2391 0.164318 18.6723 0.0799135 18.0445C-5.2765e-05 17.4497 -2.8264e-05 16.7005 1.12109e-06 15.802V15.698C-2.8264e-05 14.7995 -5.2765e-05 14.0503 0.0799135 13.4555C0.164318 12.8277 0.349989 12.2609 0.805459 11.8055C1.26093 11.35 1.82773 11.1643 2.45552 11.0799C3.05031 10.9999 3.79953 11 4.69801 11ZM2.65539 12.5665C2.19393 12.6286 1.99644 12.7358 1.86612 12.8661C1.7358 12.9964 1.62858 13.1939 1.56654 13.6554C1.5016 14.1384 1.5 14.786 1.5 15.75C1.5 16.714 1.5016 17.3616 1.56654 17.8446C1.62858 18.3061 1.7358 18.5036 1.86612 18.6339C1.99644 18.7642 2.19393 18.8714 2.65539 18.9335C3.13843 18.9984 3.78599 19 4.75 19H16.75C17.714 19 18.3616 18.9984 18.8446 18.9335C19.3061 18.8714 19.5036 18.7642 19.6339 18.6339C19.7642 18.5036 19.8714 18.3061 19.9335 17.8446C19.9984 17.3616 20 16.714 20 15.75C20 14.786 19.9984 14.1384 19.9335 13.6554C19.8714 13.1939 19.7642 12.9964 19.6339 12.8661C19.5036 12.7358 19.3061 12.6286 18.8446 12.5665C18.3616 12.5016 17.714 12.5 16.75 12.5H4.75C3.78599 12.5 3.13843 12.5016 2.65539 12.5665ZM4 15.75C4 15.3358 4.33579 15 4.75 15H6.75C7.16422 15 7.5 15.3358 7.5 15.75C7.5 16.1642 7.16422 16.5 6.75 16.5H4.75C4.33579 16.5 4 16.1642 4 15.75ZM9 15.75C9 15.3358 9.33579 15 9.75 15H16.75C17.1642 15 17.5 15.3358 17.5 15.75C17.5 16.1642 17.1642 16.5 16.75 16.5H9.75C9.33579 16.5 9 16.1642 9 15.75Z" fill="currentColor"/>
</svg>
