<svg width="16" height="16" viewBox="0 0 16 16" fill="none" xmlns="http://www.w3.org/2000/svg">
<path d="M8.00016 2.66634C8.00016 1.92996 8.59712 1.33301 9.3335 1.33301C10.0699 1.33301 10.6668 1.92996 10.6668 2.66634C10.6668 3.40272 10.0699 3.99967 9.3335 3.99967C8.59712 3.99967 8.00016 3.40272 8.00016 2.66634Z" fill="#737373"/>
<path d="M8.00016 6.66634C8.73654 6.66634 9.3335 7.2633 9.3335 7.99967C9.3335 8.73605 8.73654 9.33301 8.00016 9.33301C7.26378 9.33301 6.66683 8.73605 6.66683 7.99967C6.66683 7.2633 7.26378 6.66634 8.00016 6.66634Z" fill="#737373"/>
<path d="M6.66683 11.9997C7.40321 11.9997 8.00016 12.5966 8.00016 13.333C8.00016 14.0694 7.40321 14.6663 6.66683 14.6663C5.93045 14.6663 5.3335 14.0694 5.3335 13.333C5.3335 12.5966 5.93045 11.9997 6.66683 11.9997Z" fill="#737373"/>
<g opacity="0.5">
<path d="M9.23658 8.50033C9.29908 8.34592 9.3335 8.17714 9.3335 8.00033C9.3335 7.82351 9.29908 7.65473 9.23658 7.50033L12.6668 7.50033C12.943 7.50033 13.1668 7.72418 13.1668 8.00033C13.1668 8.27647 12.943 8.50033 12.6668 8.50033L9.23658 8.50033Z" fill="#737373"/>
<path d="M6.76375 7.50033C6.70125 7.65473 6.66683 7.82351 6.66683 8.00033C6.66683 8.17714 6.70125 8.34592 6.76375 8.50033H3.3335C3.05735 8.50033 2.8335 8.27647 2.8335 8.00033C2.8335 7.72418 3.05735 7.50033 3.3335 7.50033H6.76375Z" fill="#737373"/>
<path d="M7.90324 12.8337C7.96574 12.9881 8.00016 13.1568 8.00016 13.3337C8.00016 13.5105 7.96574 13.6793 7.90324 13.8337H12.6668C12.943 13.8337 13.1668 13.6098 13.1668 13.3337C13.1668 13.0575 12.943 12.8337 12.6668 12.8337H7.90324Z" fill="#737373"/>
<path d="M5.43042 12.8337H3.3335C3.05735 12.8337 2.8335 13.0575 2.8335 13.3337C2.8335 13.6098 3.05735 13.8337 3.3335 13.8337H5.43042C5.36791 13.6793 5.3335 13.5105 5.3335 13.3337C5.3335 13.1568 5.36791 12.9881 5.43042 12.8337Z" fill="#737373"/>
<path d="M10.5699 3.16699C10.6324 3.01259 10.6668 2.84381 10.6668 2.66699C10.6668 2.49018 10.6324 2.3214 10.5699 2.16699L12.6668 2.16699C12.943 2.16699 13.1668 2.39085 13.1668 2.66699C13.1668 2.94313 12.943 3.16699 12.6668 3.16699L10.5699 3.16699Z" fill="#737373"/>
<path d="M8.09708 3.16699C8.03458 3.01259 8.00016 2.84381 8.00016 2.66699C8.00016 2.49018 8.03458 2.3214 8.09708 2.16699L3.3335 2.16699C3.05735 2.16699 2.8335 2.39085 2.8335 2.66699C2.8335 2.94313 3.05735 3.16699 3.3335 3.16699L8.09708 3.16699Z" fill="#737373"/>
</g>
</svg>
