<svg width="16" height="16" viewBox="0 0 16 16" fill="none" xmlns="http://www.w3.org/2000/svg">
<path opacity="0.4" d="M14.2468 7.59292V11.5862C14.2468 13.4262 12.7534 14.9196 10.9134 14.9196H5.08675C3.24675 14.9196 1.75342 13.4262 1.75342 11.5862V7.63958C2.26008 8.18625 2.98008 8.49958 3.76008 8.49958C4.60008 8.49958 5.40675 8.07958 5.91342 7.40625C6.36675 8.07958 7.14008 8.49958 8.00008 8.49958C8.85342 8.49958 9.61342 8.09958 10.0734 7.43292C10.5868 8.09292 11.3801 8.49958 12.2068 8.49958C13.0134 8.49958 13.7468 8.17292 14.2468 7.59292Z" fill="#737373"/>
<path d="M9.9934 0.833008H5.9934L5.50006 5.73967C5.46006 6.19301 5.52673 6.61967 5.6934 7.00634C6.08006 7.91301 6.98673 8.49967 8.00006 8.49967C9.02673 8.49967 9.9134 7.92634 10.3134 7.01301C10.4334 6.72634 10.5067 6.39301 10.5134 6.05301V5.92634L9.9934 0.833008Z" fill="#737373"/>
<path opacity="0.6" d="M14.9068 5.51301L14.7135 3.66634C14.4335 1.65301 13.5202 0.833008 11.5668 0.833008H9.00684L9.50017 5.83301C9.50684 5.89967 9.5135 5.97301 9.5135 6.09967C9.5535 6.44634 9.66017 6.76634 9.82017 7.05301C10.3002 7.93301 11.2335 8.49967 12.2068 8.49967C13.0935 8.49967 13.8935 8.10634 14.3935 7.41301C14.7935 6.87967 14.9735 6.20634 14.9068 5.51301Z" fill="#737373"/>
<path opacity="0.6" d="M4.3931 0.833008C2.4331 0.833008 1.52643 1.65301 1.23977 3.68634L1.05977 5.51967C0.9931 6.23301 1.18643 6.92634 1.60643 7.46634C2.1131 8.12634 2.8931 8.49967 3.75977 8.49967C4.7331 8.49967 5.66643 7.93301 6.13977 7.06634C6.3131 6.76634 6.42643 6.41967 6.45977 6.05967L6.97977 0.839674H4.3931V0.833008Z" fill="#737373"/>
<path d="M7.56675 11.1065C6.72008 11.1932 6.08008 11.9132 6.08008 12.7665V14.9198H9.91341V12.9998C9.92008 11.6065 9.10008 10.9465 7.56675 11.1065Z" fill="#737373"/>
</svg>
