<svg width="14" height="14" viewBox="0 0 14 14" fill="none" xmlns="http://www.w3.org/2000/svg">
<path d="M4.68849 4.23273C4.68849 4.23273 2.09537 4.52185 0.36554 4.71515C0.209625 4.73415 0.071764 4.83906 0.0200659 4.99849C-0.0316322 5.15792 0.0200658 5.32395 0.13495 5.42886C1.42002 6.6093 3.3509 8.37707 3.3509 8.37707C3.34926 8.37707 2.82079 10.9486 2.46957 12.6643C2.44003 12.8196 2.49583 12.984 2.63041 13.0823C2.76417 13.1806 2.93649 13.1823 3.07189 13.1054C4.58509 12.2397 6.8516 10.9379 6.8516 10.9379C6.8516 10.9379 9.11893 12.2397 10.6297 13.1063C10.7675 13.1823 10.9398 13.1806 11.0736 13.0823C11.2082 12.984 11.264 12.8196 11.2336 12.6651C10.8824 10.9486 10.3548 8.37707 10.3548 8.37707C10.3548 8.37707 12.2856 6.6093 13.5707 5.43134C13.6856 5.32313 13.7365 5.15709 13.6856 4.99849C13.6347 4.83988 13.4969 4.73497 13.3409 4.7168C11.6111 4.52185 9.01717 4.23273 9.01717 4.23273C9.01717 4.23273 7.94218 1.83881 7.22579 0.242862C7.1585 0.0999533 7.01736 0 6.8516 0C6.68584 0 6.54387 0.100779 6.47986 0.242862C5.76266 1.83881 4.68849 4.23273 4.68849 4.23273Z" fill="#F59E0B"/>
</svg>
