<svg width="20" height="20" viewBox="0 0 20 20" fill="none" xmlns="http://www.w3.org/2000/svg">
<path d="M12.4998 18.9583H7.49984C2.97484 18.9583 1.0415 17.025 1.0415 12.5V7.49999C1.0415 2.97499 2.97484 1.04166 7.49984 1.04166H12.4998C17.0248 1.04166 18.9582 2.97499 18.9582 7.49999V12.5C18.9582 17.025 17.0248 18.9583 12.4998 18.9583ZM7.49984 2.29166C3.65817 2.29166 2.2915 3.65832 2.2915 7.49999V12.5C2.2915 16.3417 3.65817 17.7083 7.49984 17.7083H12.4998C16.3415 17.7083 17.7082 16.3417 17.7082 12.5V7.49999C17.7082 3.65832 16.3415 2.29166 12.4998 2.29166H7.49984Z" fill="#262626"/>
<path d="M8.8167 12.9833C8.65003 12.9833 8.4917 12.9167 8.37503 12.8L6.0167 10.4417C5.77503 10.2 5.77503 9.79999 6.0167 9.55832C6.25837 9.31666 6.65837 9.31666 6.90003 9.55832L8.8167 11.475L13.1 7.19166C13.3417 6.94999 13.7417 6.94999 13.9834 7.19166C14.225 7.43332 14.225 7.83332 13.9834 8.07499L9.25837 12.8C9.1417 12.9167 8.98337 12.9833 8.8167 12.9833Z" fill="#262626"/>
</svg>
