<svg width="16" height="16" viewBox="0 0 16 16" fill="none" xmlns="http://www.w3.org/2000/svg">
<g clip-path="url(#clip0_8433_19121)">
<path fill-rule="evenodd" clip-rule="evenodd" d="M7.50016 1.33301C7.50016 1.05687 7.72402 0.833008 8.00016 0.833008C11.9582 0.833008 15.1668 4.04163 15.1668 7.99967C15.1668 11.9577 11.9582 15.1663 8.00016 15.1663C4.04212 15.1663 0.833496 11.9577 0.833496 7.99967C0.833496 7.72353 1.05735 7.49967 1.3335 7.49967C1.60964 7.49967 1.8335 7.72353 1.8335 7.99967C1.8335 11.4054 4.59441 14.1663 8.00016 14.1663C11.4059 14.1663 14.1668 11.4054 14.1668 7.99967C14.1668 4.59392 11.4059 1.83301 8.00016 1.83301C7.72402 1.83301 7.50016 1.60915 7.50016 1.33301Z" fill="#737373"/>
<path opacity="0.5" fill-rule="evenodd" clip-rule="evenodd" d="M6.06642 1.59839C6.16586 1.85601 6.03764 2.14546 5.78003 2.24491C5.68574 2.28131 5.59256 2.31996 5.50057 2.3608C5.24818 2.47284 4.95274 2.35907 4.8407 2.10668C4.72865 1.85429 4.84242 1.55886 5.09481 1.44681C5.20182 1.39931 5.31021 1.35435 5.4199 1.312C5.67752 1.21256 5.96697 1.34078 6.06642 1.59839ZM3.76517 2.82688C3.95561 3.02684 3.94789 3.34333 3.74792 3.53377C3.67481 3.6034 3.6034 3.67481 3.53377 3.74792C3.34333 3.94789 3.02684 3.95561 2.82688 3.76517C2.62691 3.57473 2.61919 3.25824 2.80963 3.05827C2.89048 2.97338 2.97338 2.89048 3.05827 2.80963C3.25824 2.61919 3.57473 2.62691 3.76517 2.82688ZM2.10668 4.8407C2.35907 4.95274 2.47284 5.24818 2.3608 5.50057C2.31996 5.59256 2.28131 5.68574 2.24491 5.78003C2.14546 6.03764 1.85601 6.16586 1.59839 6.06642C1.34078 5.96697 1.21256 5.67752 1.312 5.41991C1.35435 5.31021 1.39931 5.20182 1.44682 5.09481C1.55886 4.84242 1.85429 4.72865 2.10668 4.8407Z" fill="#737373"/>
<path opacity="0.5" d="M8 5.5C8.27614 5.5 8.5 5.72386 8.5 6V8.16667H10.6667C10.9428 8.16667 11.1667 8.39052 11.1667 8.66667C11.1667 8.94281 10.9428 9.16667 10.6667 9.16667H8C7.72386 9.16667 7.5 8.94281 7.5 8.66667V6C7.5 5.72386 7.72386 5.5 8 5.5Z" fill="#737373"/>
</g>
<defs>
<clipPath id="clip0_8433_19121">
<rect width="16" height="16" fill="white"/>
</clipPath>
</defs>
</svg>
