<svg width="23" height="16" viewBox="0 0 23 16" fill="none" xmlns="http://www.w3.org/2000/svg">
<path d="M17.2243 4.83594C17.0582 4.83594 16.9233 4.97083 16.9233 5.13691C16.9233 5.303 17.0582 5.43789 17.2243 5.43789C17.3904 5.43789 17.5253 5.303 17.5253 5.13691C17.5253 4.97083 17.3904 4.83594 17.2243 4.83594Z" fill="#22C55E"/>
<path d="M17.2248 0C14.4035 0 12.0881 2.31533 12.0881 5.13668C12.0881 7.95803 14.4035 10.2734 17.2248 10.2734C20.0462 10.2734 22.3615 7.95803 22.3615 5.13668C22.3615 2.31533 20.0462 0 17.2248 0ZM17.2248 8.44743C15.3993 8.44743 13.9141 6.96222 13.9141 5.13668C13.9141 3.31114 15.3993 1.82593 17.2248 1.82593C19.0504 1.82593 20.5356 3.31114 20.5356 5.13668C20.5356 6.96222 19.0504 8.44743 17.2248 8.44743Z" fill="#22C55E"/>
<path d="M18.639 3.97514L19.1386 3.2227C18.8075 2.89154 18.3922 2.64481 17.9287 2.52441L17.5254 3.33102H16.9234L16.5202 2.52441C16.0566 2.64481 15.6413 2.89154 15.3102 3.2227L15.8099 3.97514L15.5089 4.49276L14.606 4.4386C14.5457 4.66135 14.5156 4.8961 14.5156 5.13688C14.5156 5.37766 14.5457 5.61241 14.6059 5.83517L15.5089 5.78101L15.8098 6.29862L15.3102 7.05107C15.6413 7.38214 16.0566 7.62896 16.5201 7.74935L16.9234 6.94275H17.5254L17.9287 7.74935C18.3922 7.62896 18.8075 7.38214 19.1386 7.05107L18.6389 6.29862L18.9399 5.78101L19.8428 5.83517C19.9031 5.61241 19.9332 5.37766 19.9332 5.13688C19.9332 4.8961 19.9031 4.66135 19.8429 4.4386L18.94 4.49276L18.639 3.97514ZM17.2244 6.03981C16.7266 6.03981 16.3215 5.63475 16.3215 5.13688C16.3215 4.63902 16.7266 4.23395 17.2244 4.23395C17.7223 4.23395 18.1274 4.63902 18.1274 5.13688C18.1274 5.63475 17.7223 6.03981 17.2244 6.03981Z" fill="#22C55E"/>
<path d="M6.23735 8.57029C7.95976 8.57029 9.35605 6.97509 9.35605 5.00731C9.35605 3.03954 7.95976 1.44434 6.23735 1.44434C4.51494 1.44434 3.11865 3.03954 3.11865 5.00731C3.11865 6.97509 4.51494 8.57029 6.23735 8.57029Z" fill="#22C55E"/>
<path d="M12.4748 13.8402C12.4748 16.0048 9.29947 15.2654 6.2374 15.2654C3.17533 15.2654 0 16.0048 0 13.8402C0 11.6756 3.17533 9.9209 6.2374 9.9209C9.29947 9.9209 12.4748 11.6756 12.4748 13.8402Z" fill="#22C55E"/>
</svg>
