<svg width="18" height="18" viewBox="0 0 18 18" fill="none" xmlns="http://www.w3.org/2000/svg">
<path d="M17.0584 2.22523C16.3481 2.72621 15.5618 3.10938 14.7295 3.35998C14.2829 2.84639 13.6892 2.48236 13.0289 2.31714C12.3686 2.15193 11.6735 2.19348 11.0376 2.4362C10.4017 2.67892 9.85563 3.11108 9.47333 3.67424C9.09103 4.2374 8.89091 4.90438 8.90003 5.58498V6.32665C7.59665 6.36044 6.30514 6.07138 5.14053 5.48519C3.97592 4.899 2.97435 4.03389 2.22503 2.9669C2.22503 2.9669 -0.741634 9.6419 5.93337 12.6086C4.40592 13.6454 2.58634 14.1653 0.741699 14.0919C7.4167 17.8002 15.575 14.0919 15.575 5.56273C15.5744 5.35614 15.5545 5.15006 15.5157 4.94715C16.2726 4.20066 16.8068 3.25816 17.0584 2.22523Z" fill="white"/>
</svg>
