<svg width="30" height="30" viewBox="0 0 30 30" fill="none" xmlns="http://www.w3.org/2000/svg">
<path d="M7.97787 22.0931L7.97786 21.9832C7.97774 20.9207 7.97762 19.9466 8.08416 19.1542C8.20148 18.2815 8.47752 17.3592 9.2361 16.6006C9.99469 15.8421 10.917 15.566 11.7896 15.4487C12.5821 15.3422 13.5562 15.3423 14.6187 15.3424H14.8384C15.9008 15.3423 16.875 15.3422 17.6674 15.4487C18.54 15.566 19.4624 15.8421 20.221 16.6006C20.9795 17.3592 21.2556 18.2815 21.3729 19.1542C21.4779 19.9349 21.4793 20.892 21.4792 21.9362C24.6368 21.2609 27.0024 18.4844 27.0024 15.1619C27.0024 12.128 25.03 9.54939 22.2832 8.61012C21.8929 5.14731 18.9211 2.45477 15.313 2.45477C11.4394 2.45477 8.29931 5.55796 8.29931 9.38593C8.29931 10.2326 8.45293 11.0438 8.73412 11.7938C8.40437 11.7298 8.06357 11.6963 7.71484 11.6963C4.80968 11.6963 2.45459 14.0237 2.45459 16.8947C2.45459 19.7657 4.80968 22.093 7.71484 22.093L7.97787 22.0931Z" fill="#1C274C"/>
<path fill-rule="evenodd" clip-rule="evenodd" d="M14.7285 17.1835C12.4141 17.1835 11.2569 17.1835 10.5379 17.9025C9.81894 18.6215 9.81894 19.7787 9.81894 22.093C9.81894 24.4074 9.81894 25.5646 10.5379 26.2836C11.2569 27.0026 12.4141 27.0026 14.7285 27.0026C17.0429 27.0026 18.2001 27.0026 18.9191 26.2836C19.6381 25.5646 19.6381 24.4074 19.6381 22.093C19.6381 19.7787 19.6381 18.6215 18.9191 17.9025C18.2001 17.1835 17.0429 17.1835 14.7285 17.1835ZM16.9436 20.9689L15.3071 19.3324C14.9876 19.0129 14.4695 19.0129 14.1499 19.3324L12.5134 20.9689C12.1938 21.2885 12.1938 21.8066 12.5134 22.1261C12.8329 22.4457 13.351 22.4457 13.6706 22.1261L13.9102 21.8865V24.2751C13.9102 24.727 14.2766 25.0933 14.7285 25.0933C15.1804 25.0933 15.5468 24.727 15.5468 24.2751V21.8865L15.7864 22.1261C16.106 22.4457 16.6241 22.4457 16.9436 22.1261C17.2632 21.8066 17.2632 21.2885 16.9436 20.9689Z" fill="#9A85FF"/>
</svg>
