<svg width="22" height="22" viewBox="0 0 22 22" fill="none" xmlns="http://www.w3.org/2000/svg">
<path d="M16.4999 11.916C15.6383 11.916 14.8408 12.2185 14.2083 12.7227C13.3649 13.3919 12.8333 14.4277 12.8333 15.5827C12.8333 16.2702 13.0257 16.921 13.3649 17.471C13.9974 18.5343 15.1616 19.2493 16.4999 19.2493C17.4258 19.2493 18.2691 18.9102 18.9108 18.3327C19.1949 18.0943 19.4424 17.801 19.6349 17.471C19.9741 16.921 20.1666 16.2702 20.1666 15.5827C20.1666 13.5568 18.5258 11.916 16.4999 11.916ZM18.3974 15.1885L16.4449 16.9943C16.3166 17.1135 16.1424 17.1777 15.9774 17.1777C15.8032 17.1777 15.6291 17.1135 15.4916 16.976L14.5841 16.0685C14.3183 15.8027 14.3183 15.3627 14.5841 15.0968C14.8499 14.831 15.2899 14.831 15.5558 15.0968L15.9958 15.5369L17.4624 14.1802C17.7374 13.9235 18.1774 13.9419 18.4341 14.2169C18.6907 14.4919 18.6724 14.9227 18.3974 15.1885Z" fill="#D4D4D4"/>
<path opacity="0.4" d="M19.3325 19.709C19.3325 19.9657 19.1308 20.1673 18.8741 20.1673H3.12581C2.86915 20.1673 2.66748 19.9657 2.66748 19.709C2.66748 15.914 6.40748 12.834 11 12.834C11.9441 12.834 12.8608 12.9623 13.7042 13.2098C13.1633 13.8515 12.8333 14.6857 12.8333 15.584C12.8333 16.2715 13.0258 16.9223 13.365 17.4723C13.5483 17.784 13.7866 18.0681 14.0616 18.3065C14.7033 18.8931 15.5558 19.2507 16.5 19.2507C17.5266 19.2507 18.4525 18.829 19.1125 18.1506C19.2591 18.6456 19.3325 19.1682 19.3325 19.709Z" fill="#D4D4D4"/>
<path d="M11.0001 11.0007C13.5314 11.0007 15.5834 8.94862 15.5834 6.41732C15.5834 3.88601 13.5314 1.83398 11.0001 1.83398C8.46878 1.83398 6.41675 3.88601 6.41675 6.41732C6.41675 8.94862 8.46878 11.0007 11.0001 11.0007Z" fill="#D4D4D4"/>
</svg>
