<svg width="42" height="24" viewBox="0 0 42 24" fill="none" xmlns="http://www.w3.org/2000/svg">
<path fill-rule="evenodd" clip-rule="evenodd" d="M10.5004 18.0391H6.86561L4.13992 7.84437C4.01055 7.37542 3.73585 6.96083 3.33179 6.76543C2.32339 6.27438 1.2122 5.88358 0 5.68649V5.29399H5.85544C6.66357 5.29399 7.26967 5.88358 7.37069 6.56833L8.78493 13.9221L12.418 5.29399H15.9518L10.5004 18.0391ZM17.9718 18.0391H14.539L17.3657 5.29399H20.7985L17.9718 18.0391ZM25.2397 8.82472C25.3408 8.13828 25.9469 7.74578 26.654 7.74578C27.7652 7.64723 28.9756 7.84433 29.9858 8.33368L30.5919 5.58959C29.5817 5.19709 28.4705 4.99999 27.4621 4.99999C24.1303 4.99999 21.7059 6.76538 21.7059 9.21552C21.7059 11.0795 23.4232 12.0582 24.6354 12.6478C25.9469 13.2356 26.4519 13.6281 26.3509 14.216C26.3509 15.0979 25.3408 15.4904 24.3324 15.4904C23.1202 15.4904 21.908 15.1964 20.7985 14.7054L20.1924 17.4512C21.4046 17.9405 22.7161 18.1376 23.9283 18.1376C27.6641 18.2345 29.9858 16.4708 29.9858 13.8235C29.9858 10.4899 25.2397 10.2945 25.2397 8.82472ZM42.0003 18.0391L39.2747 5.29399H36.3469C35.7408 5.29399 35.1347 5.68649 34.9327 6.27438L29.8854 18.0391H33.4192L34.1246 16.1769H38.4665L38.8706 18.0391H42.0003ZM36.8513 8.72611L37.8597 13.5295H35.033L36.8513 8.72611Z" fill="#172B85"/>
</svg>
