<svg width="64" height="64" viewBox="0 0 64 64" fill="none" xmlns="http://www.w3.org/2000/svg">
<rect x="1.31818" y="1.31806" width="60.6304" height="60.6304" rx="12.3646" fill="url(#paint0_linear_7773_37555)"/>
<rect x="1.31818" y="1.31806" width="60.6304" height="60.6304" rx="12.3646" stroke="white" stroke-width="2.6361"/>
<path opacity="0.4" d="M26.7543 43.0295C26.7175 43.0295 26.6684 43.0541 26.6316 43.0541C24.2505 41.8758 22.3112 39.9242 21.1206 37.5431C21.1206 37.5063 21.1452 37.4572 21.1452 37.4203C22.6426 37.8622 24.1891 38.1936 25.7233 38.4514C25.9934 39.9979 26.3125 41.5321 26.7543 43.0295Z" fill="#262626"/>
<path opacity="0.4" d="M43.0663 37.5554C41.8511 39.9979 39.8259 41.974 37.3589 43.1645C37.8253 41.6058 38.2181 40.0347 38.4758 38.4514C40.0223 38.1936 41.5443 37.8622 43.0417 37.4203C43.0294 37.4694 43.0663 37.5185 43.0663 37.5554Z" fill="#262626"/>
<path opacity="0.4" d="M43.1645 26.828C41.6179 26.3616 40.0591 25.9811 38.4758 25.711C38.2181 24.1277 37.8376 22.5566 37.3589 21.0224C39.8996 22.2375 41.9493 24.2873 43.1645 26.828Z" fill="#262626"/>
<path opacity="0.4" d="M26.7544 21.1575C26.3125 22.6549 25.9934 24.1769 25.7356 25.7234C24.1523 25.9689 22.5812 26.3616 21.0225 26.828C22.213 24.361 24.1891 22.3358 26.6316 21.1207C26.6685 21.1207 26.7176 21.1575 26.7544 21.1575Z" fill="#262626"/>
<path d="M36.3773 25.4533C33.5297 25.1342 30.6576 25.1342 27.8101 25.4533C28.1169 23.7718 28.5097 22.0903 29.062 20.4701C29.0865 20.3719 29.0743 20.2983 29.0865 20.2001C30.0562 19.9669 31.0504 19.8196 32.0937 19.8196C33.1247 19.8196 34.1311 19.9669 35.0885 20.2001C35.1008 20.2983 35.1008 20.3719 35.1253 20.4701C35.6776 22.1025 36.0704 23.7718 36.3773 25.4533Z" fill="#262626"/>
<path d="M25.4531 36.3771C23.7593 36.0702 22.09 35.6775 20.4699 35.1251C20.3717 35.1006 20.298 35.1129 20.1998 35.1006C19.9666 34.1309 19.8193 33.1368 19.8193 32.0935C19.8193 31.0625 19.9666 30.056 20.1998 29.0986C20.298 29.0864 20.3717 29.0864 20.4699 29.0618C22.1023 28.5218 23.7593 28.1167 25.4531 27.8099C25.1462 30.6574 25.1462 33.5295 25.4531 36.3771Z" fill="#262626"/>
<path d="M44.3671 32.0935C44.3671 33.1368 44.2198 34.1309 43.9866 35.1006C43.8884 35.1129 43.8148 35.1006 43.7166 35.1251C42.0842 35.6652 40.4149 36.0702 38.7334 36.3771C39.0525 33.5295 39.0525 30.6574 38.7334 27.8099C40.4149 28.1167 42.0965 28.5095 43.7166 29.0618C43.8148 29.0864 43.8884 29.0986 43.9866 29.0986C44.2198 30.0683 44.3671 31.0625 44.3671 32.0935Z" fill="#262626"/>
<path d="M36.3773 38.7337C36.0704 40.4275 35.6776 42.0968 35.1253 43.7169C35.1008 43.8151 35.1008 43.8888 35.0885 43.9869C34.1311 44.2201 33.1247 44.3674 32.0937 44.3674C31.0504 44.3674 30.0562 44.2201 29.0865 43.9869C29.0743 43.8888 29.0865 43.8151 29.062 43.7169C28.5219 42.0845 28.1169 40.4275 27.8101 38.7337C29.2338 38.8933 30.6576 39.0037 32.0937 39.0037C33.5297 39.0037 34.9658 38.8933 36.3773 38.7337Z" fill="#262626"/>
<path d="M36.7127 36.7125C33.6429 37.0999 30.5444 37.0999 27.4746 36.7125C27.0873 33.6427 27.0873 30.5442 27.4746 27.4744C30.5444 27.0871 33.6429 27.0871 36.7127 27.4744C37.1 30.5442 37.1 33.6427 36.7127 36.7125Z" fill="#262626"/>
<defs>
<linearGradient id="paint0_linear_7773_37555" x1="31.6334" y1="2.63611" x2="31.6334" y2="60.6304" gradientUnits="userSpaceOnUse">
<stop stop-color="#8EC7EC"/>
<stop offset="1" stop-color="#8EC7EC" stop-opacity="0"/>
</linearGradient>
</defs>
</svg>
